<svg width="45" height="45" viewBox="0 0 45 45" fill="none" xmlns="http://www.w3.org/2000/svg">
<g clip-path="url(#clip0_307_2950)">
<path d="M32.2605 45C39.2963 45 45 44.4566 45 43.7862C45 43.1158 39.2963 42.5724 32.2605 42.5724C25.2246 42.5724 19.5209 43.1158 19.5209 43.7862C19.5209 44.4566 25.2246 45 32.2605 45Z" fill="white"/>
<path opacity="0.1" d="M32.2605 45C39.2963 45 45 44.4566 45 43.7862C45 43.1158 39.2963 42.5724 32.2605 42.5724C25.2246 42.5724 19.5209 43.1158 19.5209 43.7862C19.5209 44.4566 25.2246 45 32.2605 45Z" fill="#292A2E"/>
<path d="M11.1123 25.7357H7.05151V26.9558H11.1123V25.7357Z" fill="#F4F4F4"/>
<path opacity="0.05" d="M8.12894 25.7357H7.59686V26.9558H8.12894V25.7357Z" fill="#292A2E"/>
<path d="M10.5934 26.0009H8.38098V26.7239H10.5934V26.0009Z" fill="white"/>
<path d="M14.3513 25.8949L10.5782 24.1932L10.1053 25.3113L13.8784 27.013L14.3513 25.8949Z" fill="#F4F4F4"/>
<path opacity="0.05" d="M14.3513 25.8949L10.5782 24.1932L10.1053 25.3113L13.8784 27.013L14.3513 25.8949Z" fill="#292A2E"/>
<path d="M13.8447 25.6664L13.3503 25.4434L12.8774 26.5615L13.3718 26.7844L13.8447 25.6664Z" fill="white"/>
<path d="M13.0132 25.5808L10.9575 24.6537L10.6773 25.3162L12.733 26.2433L13.0132 25.5808Z" fill="white"/>
<path opacity="0.05" d="M14.3584 41.191H13.338V41.8948H14.3584V41.191Z" fill="#292A2E"/>
<path opacity="0.05" d="M3.92514 41.191H2.90466V41.8948H3.92514V41.191Z" fill="#292A2E"/>
<path d="M15.2939 27.0129H1.96924V41.1673H15.2939V27.0129Z" fill="#F4F4F4"/>
<path opacity="0.03" d="M15.2939 27.0129H1.96924V41.1673H15.2939V27.0129Z" fill="#292A2E"/>
<path d="M17.7631 27.0129H4.43848V41.1673H17.7631V27.0129Z" fill="#F4F4F4"/>
<path opacity="0.05" d="M16.8277 41.191H15.8072V41.8948H16.8277V41.191Z" fill="#292A2E"/>
<path opacity="0.05" d="M6.39438 41.191H5.3739V41.8948H6.39438V41.191Z" fill="#292A2E"/>
<path opacity="0.7" d="M17.263 27.6759H4.93872V30.3952H17.263V27.6759Z" fill="white"/>
<path opacity="0.7" d="M17.263 31.0608H4.93872V33.7801H17.263V31.0608Z" fill="white"/>
<path opacity="0.7" d="M17.263 34.4457H4.93872V37.165H17.263V34.4457Z" fill="white"/>
<path opacity="0.05" d="M11.1008 29.4161C11.3044 29.4161 11.4693 29.2457 11.4693 29.0356C11.4693 28.8254 11.3044 28.6551 11.1008 28.6551C10.8973 28.6551 10.7324 28.8254 10.7324 29.0356C10.7324 29.2457 10.8973 29.4161 11.1008 29.4161Z" fill="#292A2E"/>
<path opacity="0.05" d="M11.1008 32.801C11.3044 32.801 11.4693 32.6306 11.4693 32.4205C11.4693 32.2103 11.3044 32.04 11.1008 32.04C10.8973 32.04 10.7324 32.2103 10.7324 32.4205C10.7324 32.6306 10.8973 32.801 11.1008 32.801Z" fill="#292A2E"/>
<path opacity="0.05" d="M11.1008 36.1859C11.3044 36.1859 11.4693 36.0156 11.4693 35.8054C11.4693 35.5953 11.3044 35.4249 11.1008 35.4249C10.8973 35.4249 10.7324 35.5953 10.7324 35.8054C10.7324 36.0156 10.8973 36.1859 11.1008 36.1859Z" fill="#292A2E"/>
<path opacity="0.7" d="M17.263 37.9069H4.93872V40.6263H17.263V37.9069Z" fill="white"/>
<path opacity="0.05" d="M11.1008 39.6471C11.3044 39.6471 11.4693 39.4767 11.4693 39.2666C11.4693 39.0565 11.3044 38.8861 11.1008 38.8861C10.8973 38.8861 10.7324 39.0565 10.7324 39.2666C10.7324 39.4767 10.8973 39.6471 11.1008 39.6471Z" fill="#292A2E"/>
<path d="M6.69924 12.9642L14.5782 12.9642L14.5782 2.37469L6.69924 2.37469L6.69924 12.9642Z" fill="#F4F4F4"/>
<path d="M6.69926 2.37469H6.44366V12.9642H6.69926V2.37469Z" fill="#F4F4F4"/>
<path opacity="0.05" d="M6.69926 2.37469H6.44366V12.9642H6.69926V2.37469Z" fill="#292A2E"/>
<path opacity="0.05" d="M8.13454 11.0352H13.1429V4.30367L8.13454 4.30367V11.0352Z" fill="#292A2E"/>
<path opacity="0.03" d="M8.13456 11.0352H8.39557V4.30367H8.13456V11.0352Z" fill="#292A2E"/>
<path d="M0.255546 22.283H6.69922L6.69922 15.5682H0.255546L0.255546 22.283Z" fill="#F4F4F4"/>
<path opacity="0.05" d="M1.42933 21.0598H5.52539L5.52539 16.7915H1.42933L1.42933 21.0598Z" fill="#292A2E"/>
<path d="M0.255599 15.5683H0V22.283H0.255599V15.5683Z" fill="#F4F4F4"/>
<path opacity="0.05" d="M0.255599 15.5683H0V22.283H0.255599V15.5683Z" fill="#292A2E"/>
<path opacity="0.03" d="M1.42936 21.0598H1.69037L1.69037 16.7915H1.42936L1.42936 21.0598Z" fill="#292A2E"/>
<path d="M39.5482 2.34949H23.1061V19.3272H39.5482V2.34949Z" fill="#F4F4F4"/>
<path d="M23.1061 2.34949H22.9176V19.3272H23.1061V2.34949Z" fill="#F4F4F4"/>
<path opacity="0.05" d="M23.1061 2.34949H22.9176V19.3272H23.1061V2.34949Z" fill="#292A2E"/>
<path opacity="0.05" d="M27.0893 14.0485V9.60657H30.6131V12.1873H36.0714V16.7566H38.3913V19.3272H36.0714H35.6245H23.897V14.0485H27.0893Z" fill="#292A2E"/>
<path opacity="0.34" d="M30.1607 10.0889H27.5947V10.5711H30.1607V10.0889Z" fill="#FFFFFA"/>
<path opacity="0.34" d="M30.1607 11.0883H27.5947V11.5706H30.1607V11.0883Z" fill="#FFFFFA"/>
<path opacity="0.34" d="M30.1607 12.0877H27.5947V12.57H30.1607V12.0877Z" fill="#FFFFFA"/>
<path opacity="0.34" d="M24.825 14.5167H24.3521V14.9989H24.825V14.5167Z" fill="#FFFFFA"/>
<path opacity="0.34" d="M24.825 15.5161H24.3521V15.9984H24.825V15.5161Z" fill="#FFFFFA"/>
<path opacity="0.34" d="M24.825 16.5155H24.3521V16.9978H24.825V16.5155Z" fill="#FFFFFA"/>
<path opacity="0.34" d="M25.7 14.5167H25.2271V14.9989H25.7V14.5167Z" fill="#FFFFFA"/>
<path opacity="0.34" d="M25.7 15.5161H25.2271V15.9984H25.7V15.5161Z" fill="#FFFFFA"/>
<path opacity="0.34" d="M25.7 16.5155H25.2271V16.9978H25.7V16.5155Z" fill="#FFFFFA"/>
<path opacity="0.34" d="M26.5514 14.5167H26.0784V14.9989H26.5514V14.5167Z" fill="#FFFFFA"/>
<path opacity="0.34" d="M26.5514 15.5161H26.0784V15.9984H26.5514V15.5161Z" fill="#FFFFFA"/>
<path opacity="0.34" d="M26.5514 16.5155H26.0784V16.9978H26.5514V16.5155Z" fill="#FFFFFA"/>
<path d="M23.1061 10.7431H26.4145V2.34943H26.6881V10.7431H35.6245V2.34943H35.8981V10.7431H39.5482V11.0256H35.8981V19.3272H35.6245V11.0256H26.6881V19.3272H26.4145V11.0256H23.1061V10.7431Z" fill="white"/>
<path d="M40.2031 19.3067H22.451V19.8713H40.2031V19.3067Z" fill="#F4F4F4"/>
<path opacity="0.1" d="M40.2031 19.3067H22.451V19.8713H40.2031V19.3067Z" fill="#292A2E"/>
<path opacity="0.1" d="M22.4511 19.3067H22.1948V19.8713H22.4511V19.3067Z" fill="#292A2E"/>
<path opacity="0.1" d="M22.4511 19.3067H22.1948V19.8713H22.4511V19.3067Z" fill="#292A2E"/>
<path d="M36.729 22.2153C34.2118 22.2153 32.1712 22.9244 32.1712 23.7991V25.6846H41.2868V23.7991C41.2868 22.9244 39.2462 22.2153 36.729 22.2153Z" fill="#367CFF"/>
<path opacity="0.49" d="M36.729 22.2153C34.2118 22.2153 32.1712 22.9244 32.1712 23.7991V25.6846H41.2868V23.7991C41.2868 22.9244 39.2462 22.2153 36.729 22.2153Z" fill="white"/>
<path opacity="0.49" d="M40.0449 23.7993V25.6845H32.1708V23.7993C32.1708 22.9975 33.8846 22.3351 36.1079 22.2303C38.3314 22.3351 40.0449 22.9975 40.0449 23.7993Z" fill="white"/>
<path d="M41.2865 44.0057H41.4395L41.2865 25.5174L41.1349 25.6754L41.243 38.59L35.8432 38.6847L35.7343 25.674L35.5826 25.6754L35.6916 38.6874L32.4319 38.7446L32.3225 25.674L32.1708 25.5188L32.3238 44.0057L32.4742 44.0044L32.4332 38.9012L35.6929 38.844L35.7343 44.0057L35.8859 44.0044L35.8445 38.8414L41.2443 38.7466L41.2865 44.0057Z" fill="#292A2E"/>
<path d="M27.5386 41.2377C27.5386 41.2377 27.2675 42.6885 25.952 42.7694C24.6364 42.8503 24.9217 43.9324 24.9217 43.9324H29.949V41.3389L27.5386 41.2377Z" fill="#367CFF"/>
<path d="M30.4069 36.874C30.4069 36.874 30.7839 38.2994 29.638 38.9715C28.4922 39.6437 29.2107 40.4847 29.2107 40.4847L33.7217 38.1931L32.613 35.866L30.4069 36.874Z" fill="#367CFF"/>
<path d="M29.9296 37.816L26.5306 24.5733C26.2727 23.1103 26.6609 22.4762 27.259 21.8602C28.3098 20.7779 32.664 18.4744 32.664 18.4744L37.8878 18.4597C39.2729 18.4597 40.6345 19.87 40.6345 21.3002C40.6345 22.7303 39.2264 23.9433 37.8413 23.9433L31.4087 24.6062L33.1524 36.7317L29.9296 37.816Z" fill="#262626"/>
<path d="M33.1524 36.7316L32.4659 31.9579L28.9882 34.1485L29.9296 37.816L33.1524 36.7316Z" fill="#0C0C0C"/>
<path d="M33.9406 21.1542C33.9406 21.1542 31.7447 21.6595 29.5699 23.9051C28.2513 25.2667 28.3595 27.7306 28.5573 32.4696L30.7173 29.1752L33.0864 24.7631L33.9406 21.1542Z" fill="#0C0C0C"/>
<path d="M41.5438 18.4582L37.9963 18.4409L37.995 18.4892H36.9207C36.9207 18.4892 34.2299 21.0457 32.0636 22.6568C30.4879 23.8286 29.5266 24.9458 29.4435 26.1634C29.2407 29.1316 26.9537 41.7905 26.9537 41.7905L30.3955 42.3287L33.416 27.2003C33.416 27.2003 38.1387 24.952 39.2311 24.1697C40.2598 23.433 40.9864 23.1482 41.3268 22.3442C41.9147 20.9556 41.5438 18.4582 41.5438 18.4582Z" fill="#262626"/>
<path d="M37.5639 19.3808L31.8088 19.4595L35.0371 21.4505L37.7234 20.0181C37.7881 19.9823 37.8393 19.925 37.8687 19.8555C37.8982 19.786 37.9042 19.7083 37.8858 19.6349C37.8674 19.5614 37.8257 19.4965 37.7673 19.4504C37.709 19.4043 37.6373 19.3798 37.5639 19.3808Z" fill="#292A2E"/>
<path opacity="0.2" d="M37.5639 19.3808L31.8088 19.4595L35.0371 21.4505L37.7234 20.0181C37.7881 19.9823 37.8393 19.925 37.8687 19.8555C37.8982 19.786 37.9042 19.7083 37.8858 19.6349C37.8674 19.5614 37.8257 19.4965 37.7673 19.4504C37.709 19.4043 37.6373 19.3798 37.5639 19.3808Z" fill="white"/>
<path d="M31.8418 8.71985L30.214 14.166L26.9536 18.5739L28.8582 20.8315L32.7371 16.3611C32.9158 16.2153 33.0556 16.0248 33.1433 15.8078L33.2037 15.6567L35.4442 10.0591L31.8418 8.71985Z" fill="#367CFF"/>
<path d="M34.3495 2.93891C34.3495 2.93891 33.6935 2.42734 33.5311 1.25074C33.4052 0.339683 34.2191 0.929916 34.2191 0.929916C34.2191 0.929916 34.1347 0.27297 34.5982 0.338169C35.0618 0.403367 35.3212 1.09346 35.3212 1.09346" fill="#0C0C0C"/>
<path d="M36.994 0.415039C36.994 0.415039 39.2938 0.669621 38.4624 3.88769L38.259 3.90178L37.8458 3.93039" fill="#0C0C0C"/>
<path d="M34.7347 7.24851C34.7448 7.24716 34.857 9.1695 37.0197 9.00209C38.5172 8.88626 39.0511 7.2458 39.0853 7.2458C38.9239 7.21036 38.7244 7.15659 38.6451 7.13816C38.4723 7.09675 38.3158 7.00199 38.1964 6.86648C38.077 6.73097 38.0004 6.56114 37.9768 6.37958C37.933 6.10709 38.0071 4.71292 37.9844 4.43719L35.6862 4.96693C35.7183 5.54928 35.9431 6.89924 35.1553 7.13816C35.0241 7.17763 34.8829 7.21417 34.7347 7.24851Z" fill="#E98862"/>
<path opacity="0.52" d="M35.6539 6.58642C35.6899 6.4666 35.7131 6.34307 35.7231 6.21804C35.7483 5.93274 35.7432 5.64544 35.7079 5.36127C36.1751 5.29627 36.6153 5.09724 36.9784 4.7868C37.0211 4.94957 37.2558 5.66075 37.1907 5.81516C37.068 6.10748 36.4907 6.58642 35.6539 6.58642Z" fill="#0C0C0C"/>
<path d="M36.1283 6.20593C37.0351 6.12194 38.1204 5.53035 38.1361 4.25932L38.1502 3.11247C38.1659 1.84149 37.532 0.802642 36.3731 0.787399C35.2142 0.772209 34.3352 1.79117 34.3195 3.0622L34.3133 3.5699C34.3141 3.74427 34.3264 3.91838 34.3501 4.09102C34.4095 4.54778 34.5018 5.2422 34.8019 5.71196C35.0854 6.15545 35.549 6.25954 36.1283 6.20593Z" fill="#E98862"/>
<path opacity="0.52" d="M35.7077 5.04415C35.5205 5.0529 35.334 5.01612 35.1631 4.93677C35.1562 4.93351 35.1507 4.92757 35.1479 4.9202C35.1452 4.91284 35.1453 4.90465 35.1483 4.89738C35.1513 4.89011 35.1569 4.88434 35.164 4.88131C35.1711 4.87828 35.179 4.87823 35.1861 4.88118C35.5542 5.04326 35.8884 5.01956 36.1526 4.81258C36.1579 4.80823 36.1634 4.80417 36.1692 4.80042C36.1758 4.79719 36.1834 4.79666 36.1904 4.79893C36.1974 4.80121 36.2033 4.80611 36.207 4.81269C36.2107 4.81926 36.2118 4.82701 36.2102 4.83441C36.2086 4.8418 36.2043 4.84831 36.1983 4.85262C36.1962 4.85398 36.1927 4.85675 36.1882 4.8605C36.0493 4.96975 35.882 5.0337 35.7077 5.04415Z" fill="#0C0C0C"/>
<path opacity="0.52" d="M35.7162 5.33047C35.6824 5.33262 35.6484 5.33178 35.6148 5.32796C35.611 5.32754 35.6073 5.32635 35.6039 5.32446C35.6005 5.32256 35.5975 5.32 35.5951 5.31692C35.5927 5.31384 35.5909 5.31029 35.5898 5.30649C35.5887 5.30269 35.5884 5.2987 35.5888 5.29476C35.5892 5.29082 35.5903 5.287 35.5922 5.28352C35.594 5.28004 35.5965 5.27696 35.5995 5.27447C35.6025 5.27198 35.6059 5.27012 35.6096 5.269C35.6133 5.26788 35.6171 5.26751 35.6209 5.26793C35.8235 5.29012 35.9202 5.19433 35.9243 5.19021C35.9297 5.18454 35.9372 5.18135 35.9449 5.18134C35.9527 5.18133 35.9601 5.1845 35.9656 5.19015C35.9711 5.19581 35.9742 5.20348 35.9742 5.21149C35.9742 5.2195 35.9711 5.22718 35.9657 5.23285C35.8959 5.29418 35.8078 5.32867 35.7162 5.33047Z" fill="#0C0C0C"/>
<path d="M34.7023 3.8143C34.7811 3.8143 34.845 3.7483 34.845 3.66689C34.845 3.58547 34.7811 3.51947 34.7023 3.51947C34.6234 3.51947 34.5595 3.58547 34.5595 3.66689C34.5595 3.7483 34.6234 3.8143 34.7023 3.8143Z" fill="#0C0C0C"/>
<path d="M36.097 3.72397C36.1758 3.72397 36.2398 3.65797 36.2398 3.57655C36.2398 3.49514 36.1758 3.42914 36.097 3.42914C36.0181 3.42914 35.9542 3.49514 35.9542 3.57655C35.9542 3.65797 36.0181 3.72397 36.097 3.72397Z" fill="#0C0C0C"/>
<path d="M38.0594 4.64589C38.4116 4.65053 38.7019 4.26519 38.7065 3.90151C38.7111 3.53783 38.4279 3.33351 38.0756 3.32892L37.8912 3.57019L37.7567 4.64192L38.0594 4.64589Z" fill="#E98862"/>
<path d="M37.7089 4.0612C37.7089 4.0612 37.59 2.26273 37.0619 2.15165C36.7101 2.07768 35.8571 2.5929 35.067 2.43729C34.7214 2.36943 34.3932 2.45755 34.3599 2.62615C34.3466 2.69292 34.1313 1.73352 34.6726 1.00564C35.1036 0.42621 36.5139 0.2623 37.1555 0.45231C38.9321 0.978597 38.1481 3.40775 38.1481 3.40775L38.0689 4.02779L37.7089 4.0612Z" fill="#0C0C0C"/>
<g opacity="0.52">
<path d="M35.4947 4.61976C35.494 4.61981 35.4932 4.61981 35.4925 4.61976C35.379 4.61861 35.1887 4.60352 35.1895 4.51588C35.1903 4.44321 35.3905 3.66109 35.4133 3.57214C35.4153 3.56449 35.4201 3.55795 35.4267 3.55397C35.4334 3.54999 35.4413 3.54889 35.4487 3.55092C35.4561 3.55295 35.4624 3.55794 35.4663 3.56479C35.4701 3.57163 35.4712 3.57978 35.4692 3.58744C35.3802 3.93384 35.2478 4.46712 35.2473 4.51661C35.2583 4.53749 35.3755 4.559 35.493 4.56025C35.5004 4.56041 35.5075 4.56351 35.5127 4.5689C35.518 4.57429 35.521 4.58156 35.5213 4.58921C35.5215 4.59686 35.5189 4.60431 35.5139 4.61001C35.509 4.61572 35.5021 4.61924 35.4947 4.61986V4.61976Z" fill="#0C0C0C"/>
</g>
<path d="M35.1075 2.86759C34.9882 2.83369 34.8622 2.83369 34.743 2.86759C34.6844 2.88386 34.6285 2.90913 34.5772 2.94255C34.5264 2.97527 34.4799 3.01449 34.4387 3.05927C34.4311 3.06725 34.4267 3.07794 34.4266 3.08913C34.4264 3.10032 34.4304 3.11114 34.4378 3.11934C34.4452 3.12755 34.4553 3.1325 34.4662 3.13317C34.477 3.13385 34.4876 3.13019 34.4959 3.12295L34.4985 3.12066C34.5366 3.08416 34.5791 3.05278 34.6249 3.02727C34.6698 3.00188 34.7181 2.98364 34.7683 2.97319C34.8671 2.95181 34.9695 2.95773 35.0654 2.99036L35.0694 2.99183C35.0851 2.99705 35.1021 2.99575 35.1169 2.9882C35.1316 2.98065 35.143 2.96745 35.1485 2.9514C35.154 2.93535 35.1532 2.91773 35.1463 2.90227C35.1394 2.88682 35.1269 2.87475 35.1115 2.86863L35.1075 2.86759Z" fill="#0C0C0C"/>
<path d="M35.9521 2.94153C36.0429 2.89599 36.1437 2.87602 36.2444 2.88364C36.2954 2.88706 36.3457 2.89847 36.3934 2.91746C36.442 2.93649 36.4881 2.96175 36.5306 2.99263L36.5333 2.99451C36.5424 3.00058 36.5535 3.00278 36.5641 3.00065C36.5748 2.99852 36.5842 2.99222 36.5905 2.98306C36.5968 2.97391 36.5994 2.96262 36.5978 2.95153C36.5962 2.94045 36.5905 2.93043 36.5819 2.92357C36.5353 2.88487 36.4841 2.8524 36.4296 2.82695C36.3744 2.80089 36.3157 2.78354 36.2556 2.77548C36.133 2.75823 36.0082 2.77549 35.8943 2.82543C35.8867 2.82886 35.8798 2.83381 35.874 2.83999C35.8682 2.84617 35.8637 2.85347 35.8606 2.86147C35.8576 2.86947 35.8561 2.87801 35.8562 2.8866C35.8564 2.8952 35.8581 2.90368 35.8615 2.91156C35.8682 2.92749 35.8807 2.94 35.8964 2.94637C35.9041 2.94952 35.9124 2.95106 35.9207 2.95091C35.929 2.95076 35.9372 2.94892 35.9449 2.94549L35.9484 2.94377L35.9521 2.94153Z" fill="#0C0C0C"/>
<path d="M35.8943 1.01385C35.9745 0.617641 35.8281 0.250852 35.5674 0.194609C35.3067 0.138367 35.0304 0.41397 34.9502 0.810182C34.87 1.2064 35.0164 1.57318 35.2771 1.62942C35.5378 1.68567 35.8141 1.41007 35.8943 1.01385Z" fill="#0C0C0C"/>
<path d="M32.0473 11.4737C32.1154 12.3001 32.5983 17.4564 32.664 18.4744H41.54C41.591 17.5563 41.8199 13.5415 42.0133 11.7458C42.198 10.0324 42.4567 9.25276 42.2441 8.72037C41.8691 7.78128 40.6754 7.36195 39.8671 7.24894C39.3735 7.17993 38.6311 7.13049 38.6311 7.13049C38.6311 7.13049 38.5683 8.4435 37.0694 8.51658C35.0291 8.61576 35.1654 7.13049 35.1553 7.13049C34.8247 7.13049 33.0256 7.37871 32.5756 7.68147C31.9402 8.1091 31.7524 8.69192 31.745 9.22734C31.7365 9.84399 31.9701 10.5362 32.0473 11.4737Z" fill="#367CFF"/>
<path d="M32.4973 16.4425C32.491 16.4425 32.4849 16.4401 32.4802 16.4357C32.4755 16.4313 32.4726 16.4252 32.4721 16.4187L32.1358 12.4472C32.1352 12.4404 32.1373 12.4335 32.1416 12.4282C32.1459 12.4229 32.1521 12.4196 32.1587 12.419C32.162 12.4186 32.1654 12.4189 32.1686 12.42C32.1718 12.421 32.1747 12.4226 32.1773 12.4248C32.1799 12.4271 32.1819 12.4298 32.1835 12.4329C32.185 12.4359 32.1859 12.4393 32.1861 12.4427L32.5224 16.4141C32.523 16.421 32.5209 16.4279 32.5166 16.4332C32.5123 16.4384 32.5061 16.4418 32.4995 16.4424C32.4988 16.4425 32.498 16.4425 32.4973 16.4425Z" fill="#0C0C0C"/>
<path d="M33.1409 18.7493L34.3597 17.7284L34.1546 17.7882C34.088 17.8062 34.0173 17.7974 33.9568 17.7636C33.8962 17.7298 33.8504 17.6735 33.8285 17.6062C33.8184 17.571 33.8153 17.534 33.8194 17.4976C33.8236 17.4612 33.8349 17.426 33.8526 17.3942C33.8704 17.3624 33.8942 17.3347 33.9227 17.3127C33.9512 17.2908 33.9837 17.275 34.0182 17.2665L36.5786 16.6235L36.7989 17.4656C36.8673 17.7271 36.8586 18.0038 36.7737 18.2601C36.6889 18.5165 36.5319 18.7409 36.3228 18.9045L35.3741 19.6438C35.3255 19.6831 35.2653 19.7039 35.2036 19.7027C35.1419 19.7015 35.0824 19.6783 35.0354 19.6371C34.9936 19.5989 34.9647 19.5479 34.953 19.4915C34.9413 19.4352 34.9474 19.3764 34.9703 19.3239C34.9662 19.3226 34.9625 19.3202 34.9596 19.317C34.957 19.3138 34.9553 19.31 34.9545 19.306C34.9537 19.302 34.9538 19.2978 34.955 19.2939L34.7802 19.4305C34.7262 19.4746 34.6581 19.4958 34.5895 19.4899C34.5209 19.484 34.457 19.4515 34.4108 19.3988C34.3711 19.3503 34.3492 19.2889 34.3491 19.2253C34.3489 19.1618 34.3704 19.1002 34.4099 19.0515C34.4071 19.0511 34.4045 19.0501 34.402 19.0487L34.3302 19.1049C34.2817 19.1442 34.2215 19.1651 34.1597 19.1638C34.098 19.1626 34.0386 19.1394 33.9915 19.0982C33.9409 19.0519 33.9095 18.9871 33.9041 18.9174C33.8987 18.8477 33.9196 18.7786 33.9625 18.7245C33.9615 18.723 33.9607 18.7214 33.96 18.7196L33.4524 19.1448C33.4273 19.1659 33.3983 19.1816 33.3673 19.1912C33.3362 19.2007 33.3037 19.2038 33.2714 19.2004C33.2392 19.1969 33.208 19.1869 33.1795 19.171C33.151 19.155 33.1258 19.1335 33.1054 19.1075C33.085 19.0815 33.0697 19.0516 33.0605 19.0195C33.0513 18.9875 33.0483 18.9538 33.0516 18.9206C33.055 18.8873 33.0647 18.855 33.0801 18.8256C33.0955 18.7962 33.1164 18.7702 33.1416 18.7491L33.1409 18.7493Z" fill="#E98862"/>
<path opacity="0.2" d="M33.9903 18.7348C33.993 18.7339 33.9955 18.7324 33.9977 18.7305L34.4861 18.3116C34.4885 18.3095 34.4906 18.3068 34.4921 18.3039C34.4936 18.3009 34.4945 18.2977 34.4948 18.2944C34.4951 18.2911 34.4948 18.2877 34.4938 18.2846C34.4928 18.2814 34.4913 18.2784 34.4892 18.2759C34.4871 18.2733 34.4846 18.2712 34.4818 18.2696C34.4789 18.2681 34.4758 18.2671 34.4726 18.2668C34.4693 18.2665 34.4661 18.2669 34.463 18.2679C34.4599 18.2689 34.4571 18.2705 34.4546 18.2726L33.9663 18.6915C33.9619 18.6953 33.9589 18.7006 33.9578 18.7064C33.9568 18.7123 33.9578 18.7184 33.9607 18.7235C33.9636 18.7287 33.9681 18.7327 33.9735 18.7348C33.9789 18.7368 33.9849 18.7368 33.9903 18.7348Z" fill="#0A0A0A"/>
<path opacity="0.2" d="M34.4207 19.0512C34.4233 19.0503 34.4258 19.0489 34.4279 19.047L34.8142 18.7209C34.8192 18.7166 34.8224 18.7105 34.8231 18.7038C34.8237 18.6971 34.8218 18.6904 34.8177 18.6852C34.8136 18.68 34.8076 18.6766 34.8011 18.676C34.7946 18.6753 34.7881 18.6773 34.7831 18.6816L34.3968 19.0077C34.3923 19.0115 34.3893 19.0168 34.3882 19.0227C34.3871 19.0286 34.3881 19.0347 34.3909 19.0399C34.3938 19.0451 34.3984 19.0491 34.4038 19.0512C34.4092 19.0533 34.4152 19.0533 34.4207 19.0512Z" fill="#0A0A0A"/>
<path opacity="0.2" d="M34.9861 19.3247C34.9889 19.3236 34.9915 19.3221 34.9938 19.3201L35.1727 19.1616C35.1752 19.1595 35.1772 19.1568 35.1787 19.1539C35.1801 19.1509 35.181 19.1477 35.1812 19.1443C35.1815 19.141 35.1811 19.1377 35.1801 19.1345C35.1791 19.1314 35.1775 19.1284 35.1754 19.1259C35.1733 19.1234 35.1707 19.1213 35.1679 19.1198C35.165 19.1183 35.1619 19.1174 35.1586 19.1171C35.1554 19.1169 35.1522 19.1173 35.1491 19.1183C35.1461 19.1194 35.1432 19.121 35.1408 19.1232L34.9618 19.2816C34.9575 19.2855 34.9546 19.2908 34.9536 19.2966C34.9527 19.3024 34.9538 19.3084 34.9566 19.3136C34.9595 19.3187 34.964 19.3226 34.9694 19.3246C34.9748 19.3267 34.9807 19.3267 34.9861 19.3247Z" fill="#0A0A0A"/>
<path d="M43.9125 16.2486L43.9032 16.2057L42.2831 8.8067L39.078 9.55484L40.3425 15.3303L35.2771 16.6155L35.9005 19.5668L42.6507 18.2374C42.6659 18.2343 42.6884 18.2296 42.7037 18.226C42.9089 18.1781 43.1028 18.089 43.2746 17.9637C43.4463 17.8384 43.5925 17.6794 43.7048 17.4958C43.817 17.3122 43.8931 17.1075 43.9288 16.8935C43.9644 16.6795 43.9589 16.4604 43.9125 16.2486Z" fill="#367CFF"/>
<path d="M35.2523 16.6211C35.251 16.6145 35.2522 16.6076 35.2557 16.6018C35.2591 16.5961 35.2646 16.592 35.271 16.5904L40.3138 15.3115L39.4939 11.572C39.493 11.5686 39.4927 11.565 39.4932 11.5615C39.4936 11.558 39.4948 11.5547 39.4965 11.5516C39.4983 11.5486 39.5006 11.5459 39.5034 11.5439C39.5062 11.5418 39.5093 11.5403 39.5127 11.5395C39.516 11.5387 39.5195 11.5387 39.5228 11.5393C39.5262 11.54 39.5294 11.5413 39.5323 11.5433C39.5351 11.5452 39.5375 11.5477 39.5394 11.5507C39.5413 11.5537 39.5426 11.557 39.5432 11.5605L40.3686 15.3249C40.3701 15.3316 40.369 15.3387 40.3655 15.3445C40.362 15.3504 40.3565 15.3546 40.35 15.3563L35.3068 16.6352C35.3068 16.6352 35.3406 16.7874 35.3501 16.8388C35.3509 16.8454 35.349 16.8522 35.345 16.8574C35.3409 16.8627 35.335 16.8661 35.3285 16.8669C35.3221 16.8677 35.3156 16.8657 35.3104 16.8616C35.3053 16.8574 35.302 16.8513 35.3013 16.8446C35.2897 16.7883 35.2523 16.6211 35.2523 16.6211Z" fill="#0C0C0C"/>
<path d="M35.45 20.7423L33.5024 14.5605C33.4682 14.4519 33.4016 14.3572 33.312 14.2901C33.2225 14.223 33.1147 14.1868 33.0041 14.1868H25.0696C24.9868 14.1868 24.9053 14.207 24.8316 14.2458C24.7579 14.2846 24.6942 14.3408 24.6456 14.4099C24.5969 14.479 24.5649 14.559 24.552 14.6434C24.539 14.7278 24.5457 14.8141 24.5712 14.8953L26.5189 21.0771C26.5531 21.1857 26.6197 21.2803 26.7093 21.3475C26.7988 21.4146 26.9066 21.4508 27.0172 21.4508H34.9517C35.0344 21.4508 35.1159 21.4305 35.1896 21.3918C35.2633 21.353 35.3271 21.2967 35.3757 21.2276C35.4243 21.1585 35.4563 21.0785 35.4692 20.9942C35.4822 20.9098 35.4756 20.8235 35.45 20.7423Z" fill="#292A2E"/>
<path opacity="0.2" d="M35.45 20.7423L33.5024 14.5605C33.4682 14.4519 33.4016 14.3572 33.312 14.2901C33.2225 14.223 33.1147 14.1868 33.0041 14.1868H25.0696C24.9868 14.1868 24.9053 14.207 24.8316 14.2458C24.7579 14.2846 24.6942 14.3408 24.6456 14.4099C24.5969 14.479 24.5649 14.559 24.552 14.6434C24.539 14.7278 24.5457 14.8141 24.5712 14.8953L26.5189 21.0771C26.5531 21.1857 26.6197 21.2803 26.7093 21.3475C26.7988 21.4146 26.9066 21.4508 27.0172 21.4508H34.9517C35.0344 21.4508 35.1159 21.4305 35.1896 21.3918C35.2633 21.353 35.3271 21.2967 35.3757 21.2276C35.4243 21.1585 35.4563 21.0785 35.4692 20.9942C35.4822 20.9098 35.4756 20.8235 35.45 20.7423Z" fill="white"/>
<path d="M29.7821 18.6781C30.2416 18.6781 30.6142 18.2934 30.6142 17.8188C30.6142 17.3442 30.2416 16.9595 29.7821 16.9595C29.3225 16.9595 28.9499 17.3442 28.9499 17.8188C28.9499 18.2934 29.3225 18.6781 29.7821 18.6781Z" fill="white"/>
<path d="M21.9482 0.653259H6.20005C5.47047 0.653259 4.87903 1.26397 4.87903 2.01731V21.758C4.87903 22.5114 5.47047 23.1221 6.20005 23.1221H21.9482C22.6778 23.1221 23.2692 22.5114 23.2692 21.758V2.01731C23.2692 1.26397 22.6778 0.653259 21.9482 0.653259Z" fill="#292A2E"/>
<path d="M22.5303 0.0521851H6.78214C6.05256 0.0521851 5.46112 0.662894 5.46112 1.41624V21.157C5.46112 21.9103 6.05256 22.521 6.78214 22.521H22.5303C23.2598 22.521 23.8513 21.9103 23.8513 21.157V1.41624C23.8513 0.662894 23.2598 0.0521851 22.5303 0.0521851Z" fill="white"/>
<path d="M22.5303 22.5732H6.78216C6.41851 22.5728 6.06987 22.4235 5.81273 22.1579C5.5556 21.8924 5.41097 21.5324 5.41058 21.1569V1.41626C5.41098 1.04077 5.55562 0.680779 5.81275 0.41527C6.06988 0.14976 6.41851 0.000414507 6.78216 0L22.5303 0C22.8939 0.000428321 23.2425 0.14978 23.4997 0.415288C23.7568 0.680796 23.9014 1.04078 23.9018 1.41626V21.1569C23.9014 21.5324 23.7568 21.8924 23.4997 22.1579C23.2425 22.4234 22.8939 22.5728 22.5303 22.5732ZM6.78216 0.104401C6.44532 0.104788 6.12239 0.243125 5.88421 0.489062C5.64604 0.734999 5.51207 1.06845 5.51169 1.41626V21.1569C5.51207 21.5047 5.64604 21.8382 5.88421 22.0841C6.12239 22.3301 6.44532 22.4684 6.78216 22.4688H22.5303C22.8671 22.4684 23.19 22.3301 23.4282 22.0841C23.6664 21.8382 23.8003 21.5047 23.8007 21.1569V1.41626C23.8003 1.06845 23.6664 0.735003 23.4282 0.489065C23.19 0.243127 22.8671 0.104788 22.5303 0.104401H6.78216Z" fill="#292A2E"/>
<path d="M5.24901 25.3457C7.06038 25.3457 8.52878 23.8295 8.52878 21.9591C8.52878 20.0887 7.06038 18.5724 5.24901 18.5724C3.43764 18.5724 1.96924 20.0887 1.96924 21.9591C1.96924 23.8295 3.43764 25.3457 5.24901 25.3457Z" fill="#292A2E"/>
<path d="M4.56817 21.5171C4.52499 21.5171 4.48358 21.4994 4.45305 21.4679C4.42251 21.4363 4.40535 21.3936 4.40533 21.349V20.5351C4.40533 20.0851 4.78383 19.7189 5.24902 19.7189C5.71422 19.7189 6.09271 20.0851 6.09271 20.5351V21.2931C6.0931 21.3155 6.08917 21.3377 6.08116 21.3584C6.07314 21.3791 6.06121 21.398 6.04606 21.414C6.0309 21.4299 6.01282 21.4425 5.99288 21.4512C5.97294 21.4598 5.95153 21.4642 5.92991 21.4642C5.90828 21.4642 5.88687 21.4598 5.86693 21.4512C5.84699 21.4425 5.82891 21.4299 5.81376 21.414C5.7986 21.398 5.78667 21.3791 5.77866 21.3584C5.77065 21.3377 5.76672 21.3155 5.7671 21.2931V20.5351C5.7671 20.2705 5.53455 20.0552 5.24902 20.0552C4.9635 20.0552 4.73095 20.2705 4.73095 20.5351V21.3491C4.73092 21.3937 4.71376 21.4364 4.68324 21.4679C4.65271 21.4994 4.61132 21.5171 4.56817 21.5171Z" fill="white"/>
<path d="M6.28767 21.2083H4.21032C4.08917 21.2083 3.99097 21.3097 3.99097 21.4348V23.4553C3.99097 23.5804 4.08917 23.6818 4.21032 23.6818H6.28767C6.40882 23.6818 6.50702 23.5804 6.50702 23.4553V21.4348C6.50702 21.3097 6.40882 21.2083 6.28767 21.2083Z" fill="white"/>
<path d="M5.04218 22.245C5.04216 22.2851 5.05306 22.3244 5.07362 22.3584C5.09418 22.3923 5.12357 22.4197 5.15846 22.4372V22.7654C5.15846 22.7901 5.16797 22.8138 5.1849 22.8313C5.20183 22.8488 5.2248 22.8586 5.24875 22.8586C5.27269 22.8586 5.29566 22.8488 5.31259 22.8313C5.32952 22.8138 5.33904 22.7901 5.33904 22.7654V22.4372C5.37226 22.4206 5.40056 22.3951 5.421 22.3633C5.44144 22.3315 5.45327 22.2947 5.45526 22.2566C5.45725 22.2185 5.44933 22.1806 5.43233 22.1468C5.41532 22.1129 5.38984 22.0844 5.35855 22.0641C5.32725 22.0439 5.29128 22.0327 5.25436 22.0316C5.21744 22.0306 5.18093 22.0398 5.14862 22.0583C5.11631 22.0767 5.08937 22.1038 5.07061 22.1366C5.05185 22.1695 5.04194 22.2069 5.04193 22.245H5.04218Z" fill="#292A2E"/>
<path d="M21.155 11.2635H8.15732C7.84705 11.2635 7.59552 11.5232 7.59552 11.8436V13.7251C7.59552 14.0455 7.84705 14.3052 8.15732 14.3052H21.155C21.4653 14.3052 21.7168 14.0455 21.7168 13.7251V11.8436C21.7168 11.5232 21.4653 11.2635 21.155 11.2635Z" fill="white"/>
<path d="M21.155 14.3574H8.15734C7.99499 14.3572 7.83934 14.2905 7.72455 14.172C7.60975 14.0534 7.54517 13.8927 7.54498 13.7251V11.8436C7.54517 11.676 7.60974 11.5152 7.72454 11.3967C7.83934 11.2781 7.99499 11.2114 8.15734 11.2112H21.155C21.3174 11.2114 21.473 11.2781 21.5878 11.3967C21.7026 11.5152 21.7672 11.6759 21.7674 11.8436V13.7251C21.7672 13.8927 21.7026 14.0534 21.5878 14.172C21.473 14.2905 21.3174 14.3572 21.155 14.3574ZM8.15734 11.3156C8.02178 11.3158 7.89182 11.3715 7.79598 11.4704C7.70013 11.5694 7.64622 11.7036 7.64609 11.8436V13.7251C7.64624 13.865 7.70015 13.9992 7.79599 14.0982C7.89184 14.1972 8.02179 14.2528 8.15734 14.253H21.155C21.2905 14.2528 21.4205 14.1972 21.5164 14.0982C21.6122 13.9992 21.6661 13.865 21.6663 13.7251V11.8436C21.6661 11.7036 21.6122 11.5694 21.5164 11.4704C21.4205 11.3715 21.2906 11.3158 21.155 11.3156H8.15734Z" fill="#292A2E"/>
<path d="M21.155 15.6104H8.15732C7.84705 15.6104 7.59552 15.8701 7.59552 16.1905V18.072C7.59552 18.3924 7.84705 18.6521 8.15732 18.6521H21.155C21.4653 18.6521 21.7168 18.3924 21.7168 18.072V16.1905C21.7168 15.8701 21.4653 15.6104 21.155 15.6104Z" fill="white"/>
<path d="M21.155 18.7043H8.15734C7.99496 18.7041 7.83929 18.6374 7.72449 18.5188C7.60969 18.4003 7.54513 18.2395 7.54498 18.0718V16.1905C7.54517 16.0229 7.60975 15.8622 7.72455 15.7436C7.83934 15.6251 7.99499 15.5584 8.15734 15.5582H21.155C21.3174 15.5584 21.473 15.6251 21.5878 15.7436C21.7026 15.8622 21.7672 16.0229 21.7674 16.1905V18.0718C21.7673 18.2395 21.7027 18.4003 21.5879 18.5189C21.4731 18.6374 21.3174 18.7041 21.155 18.7043ZM8.15734 15.6626C8.02179 15.6628 7.89184 15.7184 7.79599 15.8174C7.70015 15.9164 7.64624 16.0506 7.64609 16.1905V18.0718C7.64624 18.2118 7.70015 18.346 7.79599 18.445C7.89184 18.5439 8.02179 18.5996 8.15734 18.5998H21.155C21.2905 18.5996 21.4205 18.544 21.5164 18.445C21.6122 18.346 21.6661 18.2118 21.6663 18.0718V16.1905C21.6661 16.0506 21.6122 15.9164 21.5164 15.8174C21.4205 15.7184 21.2905 15.6628 21.155 15.6626H8.15734Z" fill="#292A2E"/>
<path d="M14.6562 9.00093C16.3228 9.00093 17.6739 7.60582 17.6739 5.88487C17.6739 4.16391 16.3228 2.7688 14.6562 2.7688C12.9895 2.7688 11.6384 4.16391 11.6384 5.88487C11.6384 7.60582 12.9895 9.00093 14.6562 9.00093Z" fill="white"/>
<path d="M14.6562 9.05315C14.0493 9.05315 13.4561 8.86733 12.9515 8.5192C12.447 8.17107 12.0537 7.67625 11.8215 7.09733C11.5892 6.5184 11.5285 5.88137 11.6468 5.26678C11.7652 4.6522 12.0575 4.08767 12.4866 3.64458C12.9157 3.20149 13.4624 2.89974 14.0576 2.77749C14.6528 2.65524 15.2697 2.71799 15.8304 2.95779C16.391 3.19758 16.8702 3.60367 17.2074 4.12469C17.5445 4.64571 17.7245 5.25826 17.7245 5.88488C17.7236 6.72487 17.4 7.53019 16.8248 8.12415C16.2496 8.71811 15.4697 9.05221 14.6562 9.05315ZM14.6562 2.82102C14.0693 2.82102 13.4957 3.00071 13.0077 3.33737C12.5198 3.67403 12.1394 4.15254 11.9149 4.71239C11.6903 5.27224 11.6315 5.88828 11.746 6.48261C11.8605 7.07694 12.1431 7.62287 12.5581 8.05136C12.973 8.47985 13.5017 8.77166 14.0773 8.88988C14.6529 9.0081 15.2495 8.94742 15.7917 8.71553C16.3339 8.48363 16.7973 8.09093 17.1233 7.58708C17.4494 7.08323 17.6234 6.49086 17.6234 5.88488C17.6225 5.07257 17.3096 4.2938 16.7533 3.71941C16.1971 3.14502 15.4429 2.82193 14.6562 2.82102Z" fill="#292A2E"/>
<path opacity="0.5" d="M17.6069 5.88487C17.6077 6.60611 17.3599 7.30411 16.9077 7.85383C16.6292 7.51857 16.2838 7.24949 15.8951 7.06503C15.5064 6.88057 15.0837 6.78511 14.656 6.78519C14.2282 6.78527 13.8055 6.88089 13.4169 7.06549C13.0283 7.25009 12.683 7.5193 12.4046 7.85466C12.0976 7.48047 11.8825 7.03527 11.7778 6.55689C11.673 6.07851 11.6817 5.5811 11.803 5.10691C11.9242 4.63271 12.1546 4.19576 12.4744 3.83317C12.7943 3.47058 13.1942 3.19307 13.6401 3.02422C14.086 2.85537 14.5649 2.80017 15.0359 2.86331C15.5069 2.92644 15.9562 3.10605 16.3456 3.38687C16.735 3.6677 17.053 4.04143 17.2726 4.47633C17.4922 4.91122 17.6069 5.39442 17.6069 5.88487Z" fill="#367CFF"/>
<path d="M16.9077 7.85386C16.6308 8.19156 16.2859 8.46292 15.8971 8.64906C15.5083 8.83521 15.0849 8.93168 14.6563 8.93176C14.2278 8.93184 13.8044 8.83553 13.4155 8.64952C13.0266 8.46352 12.6817 8.19229 12.4046 7.85469C12.683 7.51933 13.0283 7.25012 13.4169 7.06552C13.8055 6.88092 14.2282 6.7853 14.656 6.78522C15.0837 6.78514 15.5064 6.8806 15.8951 7.06506C16.2838 7.24951 16.6292 7.5186 16.9077 7.85386Z" fill="white"/>
<path d="M14.6562 6.21674C15.3149 6.21674 15.8489 5.66535 15.8489 4.98517C15.8489 4.30499 15.3149 3.7536 14.6562 3.7536C13.9975 3.7536 13.4635 4.30499 13.4635 4.98517C13.4635 5.66535 13.9975 6.21674 14.6562 6.21674Z" fill="white"/>
<g opacity="0.4">
<path d="M8.6896 17.5017C8.88772 17.5017 9.04833 17.3359 9.04833 17.1313C9.04833 16.9267 8.88772 16.7609 8.6896 16.7609C8.49148 16.7609 8.33087 16.9267 8.33087 17.1313C8.33087 17.3359 8.49148 17.5017 8.6896 17.5017Z" fill="#292A2E"/>
<path d="M9.81173 17.5017C10.0099 17.5017 10.1705 17.3359 10.1705 17.1313C10.1705 16.9267 10.0099 16.7609 9.81173 16.7609C9.61361 16.7609 9.453 16.9267 9.453 17.1313C9.453 17.3359 9.61361 17.5017 9.81173 17.5017Z" fill="#292A2E"/>
<path d="M10.9339 17.5017C11.132 17.5017 11.2926 17.3359 11.2926 17.1313C11.2926 16.9267 11.132 16.7609 10.9339 16.7609C10.7357 16.7609 10.5751 16.9267 10.5751 17.1313C10.5751 17.3359 10.7357 17.5017 10.9339 17.5017Z" fill="#292A2E"/>
<path d="M12.056 17.5017C12.2541 17.5017 12.4147 17.3359 12.4147 17.1313C12.4147 16.9267 12.2541 16.7609 12.056 16.7609C11.8579 16.7609 11.6973 16.9267 11.6973 17.1313C11.6973 17.3359 11.8579 17.5017 12.056 17.5017Z" fill="#292A2E"/>
<path d="M13.1781 17.5017C13.3762 17.5017 13.5369 17.3359 13.5369 17.1313C13.5369 16.9267 13.3762 16.7609 13.1781 16.7609C12.98 16.7609 12.8194 16.9267 12.8194 17.1313C12.8194 17.3359 12.98 17.5017 13.1781 17.5017Z" fill="#292A2E"/>
<path d="M14.3003 17.5017C14.4984 17.5017 14.659 17.3359 14.659 17.1313C14.659 16.9267 14.4984 16.7609 14.3003 16.7609C14.1021 16.7609 13.9415 16.9267 13.9415 17.1313C13.9415 17.3359 14.1021 17.5017 14.3003 17.5017Z" fill="#292A2E"/>
<path d="M15.4224 17.5017C15.6205 17.5017 15.7811 17.3359 15.7811 17.1313C15.7811 16.9267 15.6205 16.7609 15.4224 16.7609C15.2243 16.7609 15.0637 16.9267 15.0637 17.1313C15.0637 17.3359 15.2243 17.5017 15.4224 17.5017Z" fill="#292A2E"/>
</g>
<g opacity="0.3">
<path d="M9.04541 12.762V12.8873H8.58472V12.762H9.04541Z" fill="black"/>
<path d="M9.61792 12.762V12.8873H9.15723V12.762H9.61792Z" fill="black"/>
<path d="M10.1904 12.762V12.8873H9.72974V12.762H10.1904Z" fill="black"/>
<path d="M10.7629 12.762V12.8873H10.3022V12.762H10.7629Z" fill="black"/>
<path d="M11.3354 12.762V12.8873H10.8747V12.762H11.3354Z" fill="black"/>
<path d="M12.3686 13.4689C12.2661 13.5232 12.152 13.5498 12.0368 13.5461C11.7309 13.5461 11.4716 13.3149 11.4716 12.9451C11.4716 12.5484 11.7384 12.2056 12.1524 12.2056C12.477 12.2056 12.6952 12.4405 12.6952 12.7622C12.6952 13.0511 12.5385 13.2206 12.3632 13.2206C12.2886 13.2206 12.2196 13.1684 12.2252 13.0511H12.2177C12.1936 13.1019 12.1562 13.1447 12.1097 13.1746C12.0632 13.2046 12.0096 13.2205 11.9548 13.2206C11.8466 13.2206 11.7534 13.13 11.7534 12.9779C11.7531 12.9179 11.7644 12.8585 11.7866 12.803C11.8087 12.7475 11.8413 12.6971 11.8824 12.6547C11.9235 12.6122 11.9723 12.5786 12.026 12.5557C12.0798 12.5329 12.1373 12.5212 12.1954 12.5214C12.264 12.5204 12.332 12.5342 12.395 12.5619L12.3316 12.9105C12.3036 13.0566 12.326 13.1245 12.3875 13.1262C12.4827 13.1281 12.589 12.9971 12.589 12.7738C12.589 12.4945 12.4267 12.2942 12.1376 12.2942C11.8336 12.2942 11.578 12.5426 11.578 12.9336C11.578 13.2553 11.7814 13.4536 12.0574 13.4536C12.1553 13.456 12.2522 13.4328 12.3391 13.3862L12.3686 13.4689ZM12.266 12.6368C12.2357 12.6277 12.2043 12.6231 12.1727 12.6234C12.0086 12.6234 11.8762 12.7832 11.8762 12.97C11.8762 13.0548 11.9172 13.1162 11.9993 13.1162C12.1075 13.1162 12.2063 12.9737 12.2268 12.8543L12.266 12.6368Z" fill="black"/>
<path d="M13.2823 12.762V12.8873H12.8216V12.762H13.2823Z" fill="black"/>
<path d="M13.8549 12.762V12.8873H13.3941V12.762H13.8549Z" fill="black"/>
<path d="M14.4273 12.762V12.8873H13.9666V12.762H14.4273Z" fill="black"/>
</g>
</g>
<defs>
<clipPath id="clip0_307_2950">
<rect width="45" height="45" fill="white"/>
</clipPath>
</defs>
</svg>
