<svg width="45" height="45" viewBox="0 0 45 45" fill="none" xmlns="http://www.w3.org/2000/svg">
<path d="M13.5729 4.73832C13.5729 2.50368 12.7028 0.715881 11.0307 0.715881C9.52181 0.715881 8.56592 2.52998 8.56592 4.73832" fill="#C1D8ED"/>
<path d="M11.0308 0.716431C12.7014 0.716431 13.5701 2.50115 13.5729 4.73252C13.5743 4.74865 13.5749 4.76488 13.5748 4.78112V26.1486C13.5729 26.6784 13.6503 27.2035 13.8025 27.6937C13.9547 28.1839 14.1787 28.6296 14.4617 29.0051C14.7447 29.3807 15.0811 29.6787 15.4516 29.882C15.822 30.0854 16.2192 30.19 16.6204 30.19C17.0216 30.19 17.4188 30.0854 17.7893 29.882C18.1597 29.6787 18.4961 29.3807 18.7791 29.0051C19.0621 28.6296 19.2861 28.1839 19.4384 27.6937C19.5906 27.2035 19.6679 26.6784 19.666 26.1486H29.3664V5.18543C29.3664 2.79284 28.3206 0.820886 26.509 0.716431H11.0308Z" fill="#D7E8F4"/>
<path d="M16.6205 30.1708H29.3663C29.7663 30.1708 30.1623 30.0668 30.5318 29.8646C30.9014 29.6625 31.2371 29.3662 31.5199 28.9927C31.8028 28.6192 32.0271 28.1758 32.1802 27.6877C32.3332 27.1997 32.412 26.6767 32.412 26.1484H19.6661C19.6678 26.6773 19.5902 27.2013 19.4377 27.6903C19.2852 28.1793 19.061 28.6236 18.7778 28.9976C18.4947 29.3715 18.1582 29.6677 17.788 29.8691C17.4177 30.0705 17.0209 30.173 16.6205 30.1708Z" fill="#C1D8ED"/>
<path d="M18.232 9.36096L24.7703 9.36096C25.0651 9.36096 25.3041 9.04531 25.3041 8.65593C25.3041 8.26656 25.0651 7.95091 24.7703 7.95091L18.232 7.95091C17.9372 7.95091 17.6982 8.26656 17.6982 8.65593C17.6982 9.04531 17.9372 9.36096 18.232 9.36096Z" fill="#FAFBFC"/>
<path d="M26.6381 12.7942H16.3642C16.2386 12.7942 16.1367 12.9287 16.1367 13.0946V13.0947C16.1367 13.2606 16.2386 13.3951 16.3642 13.3951H26.6381C26.7637 13.3951 26.8656 13.2606 26.8656 13.0947V13.0946C26.8656 12.9287 26.7637 12.7942 26.6381 12.7942Z" fill="#FAFBFC"/>
<path d="M26.6381 11.3514H16.3642C16.2386 11.3514 16.1367 11.4859 16.1367 11.6518V11.6519C16.1367 11.8178 16.2386 11.9523 16.3642 11.9523H26.6381C26.7637 11.9523 26.8656 11.8178 26.8656 11.6519V11.6518C26.8656 11.4859 26.7637 11.3514 26.6381 11.3514Z" fill="#FAFBFC"/>
<path d="M26.6381 14.2371H16.3642C16.2386 14.2371 16.1367 14.3716 16.1367 14.5375V14.5376C16.1367 14.7035 16.2386 14.838 16.3642 14.838H26.6381C26.7637 14.838 26.8656 14.7035 26.8656 14.5376V14.5375C26.8656 14.3716 26.7637 14.2371 26.6381 14.2371Z" fill="#FAFBFC"/>
<path d="M26.6381 15.6801H16.3642C16.2386 15.6801 16.1367 15.8146 16.1367 15.9805V15.9806C16.1367 16.1465 16.2386 16.281 16.3642 16.281H26.6381C26.7637 16.281 26.8656 16.1465 26.8656 15.9806V15.9805C26.8656 15.8146 26.7637 15.6801 26.6381 15.6801Z" fill="#FAFBFC"/>
<path d="M26.6381 17.1231H16.3642C16.2386 17.1231 16.1367 17.2576 16.1367 17.4235V17.4236C16.1367 17.5895 16.2386 17.724 16.3642 17.724H26.6381C26.7637 17.724 26.8656 17.5895 26.8656 17.4236V17.4235C26.8656 17.2576 26.7637 17.1231 26.6381 17.1231Z" fill="#FAFBFC"/>
<path d="M26.6381 20.009H16.3642C16.2386 20.009 16.1367 20.1435 16.1367 20.3094V20.3095C16.1367 20.4754 16.2386 20.6099 16.3642 20.6099H26.6381C26.7637 20.6099 26.8656 20.4754 26.8656 20.3095V20.3094C26.8656 20.1435 26.7637 20.009 26.6381 20.009Z" fill="#FAFBFC"/>
<path d="M26.6381 18.5661H16.3642C16.2386 18.5661 16.1367 18.7006 16.1367 18.8665V18.8666C16.1367 19.0325 16.2386 19.167 16.3642 19.167H26.6381C26.7637 19.167 26.8656 19.0325 26.8656 18.8666V18.8665C26.8656 18.7006 26.7637 18.5661 26.6381 18.5661Z" fill="#FAFBFC"/>
<path d="M23.5485 21.452H19.4538C19.3282 21.452 19.2264 21.5865 19.2264 21.7524V21.7525C19.2264 21.9184 19.3282 22.0529 19.4538 22.0529H23.5485C23.6741 22.0529 23.7759 21.9184 23.7759 21.7525V21.7524C23.7759 21.5865 23.6741 21.452 23.5485 21.452Z" fill="#FAFBFC"/>
<path d="M7.28378 3.56859C7.30437 3.90127 7.04183 4.21101 6.99858 4.52456C6.95381 4.84899 7.11433 5.26101 7.00956 5.55207C6.90335 5.8473 6.55897 5.94305 6.39976 6.1905C6.24055 6.43794 6.22442 6.90219 6.02092 7.08816C5.82031 7.27159 5.4865 7.12869 5.25136 7.23931C5.02404 7.34621 4.83489 7.73801 4.58292 7.76521C4.33096 7.79242 4.0965 7.44559 3.85908 7.38847C3.61343 7.32935 3.30146 7.54134 3.08108 7.40298C2.85753 7.2627 2.78503 6.80789 2.59767 6.59762C2.41031 6.38735 2.05879 6.36604 1.91798 6.09728C1.77909 5.83234 1.88729 5.39149 1.80353 5.08093C1.72258 4.78071 1.42592 4.53091 1.40532 4.19814C1.38473 3.86537 1.64734 3.55572 1.69059 3.24217C1.73535 2.91774 1.57484 2.50573 1.6796 2.21466C1.78581 1.91943 2.13019 1.82368 2.28941 1.57624C2.44862 1.32879 2.46475 0.864543 2.66825 0.678573C2.86886 0.495141 3.20267 0.638042 3.43781 0.527421C3.66513 0.420517 3.85428 0.0287192 4.10624 0.00151731C4.35821 -0.0256846 4.59267 0.32114 4.83008 0.378264C5.07573 0.437383 5.38771 0.225389 5.60809 0.363756C5.83163 0.504027 5.90441 0.958843 6.0915 1.16911C6.27858 1.37938 6.63038 1.40069 6.77119 1.66945C6.91008 1.93439 6.80188 2.37525 6.88564 2.6858C6.96659 2.98602 7.26338 3.23582 7.28378 3.56859Z" fill="#0F1011"/>
<path d="M3.43207 7.18463C3.56801 6.88088 3.71356 6.29241 3.64627 5.1998L4.74339 4.93231C4.74339 4.93231 4.61981 6.63697 5.16975 7.18463H3.43207Z" fill="#E98862"/>
<path opacity="0.15" d="M4.94897 6.83029L4.03839 5.9086L4.75406 5.89954C4.77456 6.22312 4.84066 6.53879 4.94897 6.83029Z" fill="black"/>
<path d="M3.02438 4.45892C3.0999 5.03832 3.33896 5.58707 3.7257 5.77467C4.14727 5.9962 4.60347 6.07817 5.05453 6.01342C6.25539 5.88475 6.02031 2.27859 5.45068 1.57778C4.88104 0.87697 3.20769 1.31828 3.00337 2.48959C2.89771 3.09501 2.95222 3.90744 3.02438 4.45892Z" fill="#E98862"/>
<path d="M4.74255 4.01466C4.79749 4.01466 4.84203 3.95584 4.84203 3.88328C4.84203 3.81072 4.79749 3.75189 4.74255 3.75189C4.68761 3.75189 4.64307 3.81072 4.64307 3.88328C4.64307 3.95584 4.68761 4.01466 4.74255 4.01466Z" fill="#0F1011"/>
<path d="M5.5274 3.93062C5.58234 3.93062 5.62688 3.87179 5.62688 3.79923C5.62688 3.72667 5.58234 3.66785 5.5274 3.66785C5.47246 3.66785 5.42792 3.72667 5.42792 3.79923C5.42792 3.87179 5.47246 3.93062 5.5274 3.93062Z" fill="#0F1011"/>
<path d="M5.69997 3.51954H5.69936L5.43586 3.51482C5.42377 3.51412 5.41237 3.50725 5.40404 3.49567C5.39571 3.48409 5.3911 3.4687 5.39118 3.45273C5.39126 3.43676 5.39602 3.42145 5.40447 3.41001C5.41291 3.39858 5.42438 3.39192 5.43647 3.39142H5.43709L5.70059 3.39604C5.71299 3.39615 5.72485 3.40276 5.73356 3.41442C5.74227 3.42607 5.74712 3.44182 5.74704 3.4582C5.74696 3.47458 5.74195 3.49024 5.73313 3.50174C5.7243 3.51325 5.71237 3.51965 5.69997 3.51954Z" fill="#0F1011"/>
<path d="M4.52789 3.64506C4.51646 3.645 4.50545 3.63941 4.49693 3.62936C4.4884 3.6193 4.48297 3.60547 4.48164 3.59048C4.48031 3.57549 4.48319 3.56038 4.48972 3.548C4.49626 3.53562 4.506 3.52683 4.51711 3.52329L4.77698 3.44105C4.78301 3.43889 4.78932 3.43835 4.79551 3.43947C4.80171 3.44059 4.80767 3.44334 4.81305 3.44756C4.81843 3.45177 4.82311 3.45737 4.82682 3.46402C4.83053 3.47068 4.8332 3.47824 4.83465 3.48627C4.83611 3.49431 4.83633 3.50265 4.8353 3.51079C4.83428 3.51894 4.83202 3.52674 4.82867 3.53371C4.82532 3.54069 4.82095 3.54671 4.81581 3.55141C4.81067 3.55612 4.80486 3.55941 4.79874 3.5611L4.53888 3.64334C4.53528 3.64449 4.53159 3.64507 4.52789 3.64506Z" fill="#0F1011"/>
<path d="M4.78784 4.91811C4.78784 4.91811 5.15501 4.96971 5.41261 4.8512C5.41261 4.8512 5.41034 5.17064 5.11979 5.20174C4.82924 5.23284 4.78784 4.91811 4.78784 4.91811Z" fill="#F8FCFF"/>
<path d="M3.83332 2.95909C3.90538 4.31682 3.79223 5.68061 3.49924 6.98551C3.49924 6.98551 2.66212 5.07911 2.53263 3.49188C2.41125 2.00394 3.24205 1.1264 3.80304 0.961198C5.93487 0.334557 6.08832 2.3912 6.08832 2.3912C5.69993 3.45779 3.60257 3.45307 3.60257 3.45307" fill="#0F1011"/>
<path d="M4.23983 4.44901C4.24754 4.59528 4.21127 4.73967 4.13888 4.85084C4.0665 4.96202 3.96384 5.03102 3.85319 5.04287C3.74253 5.05472 3.6328 5.00847 3.54779 4.91415C3.46279 4.81983 3.40938 4.68505 3.39914 4.53905C3.3937 4.46591 3.39947 4.39206 3.41609 4.32192C3.43271 4.25178 3.45985 4.18677 3.49589 4.13077C3.53193 4.07477 3.57613 4.02892 3.62587 3.99596C3.67561 3.96299 3.72986 3.94358 3.7854 3.93889C4.08597 3.92619 4.22102 4.14245 4.23983 4.44901Z" fill="#E98862"/>
<g opacity="0.15">
<path d="M5.18357 4.61259C5.17536 4.61257 5.16741 4.60867 5.16119 4.60158C5.15497 4.59448 5.15088 4.58468 5.14967 4.57395C5.14845 4.56321 5.1502 4.55226 5.15458 4.54308C5.15896 4.5339 5.16569 4.52709 5.17355 4.52391L5.37588 4.44231L5.23472 4.02593C5.231 4.01496 5.23073 4.00247 5.23397 3.99123C5.23722 3.97999 5.24371 3.97092 5.25202 3.966C5.26034 3.96108 5.26979 3.96073 5.2783 3.96501C5.28681 3.9693 5.29368 3.97787 5.2974 3.98885L5.45456 4.45219C5.45654 4.45805 5.45756 4.46441 5.45754 4.47083C5.45753 4.47725 5.45648 4.48359 5.45447 4.48944C5.45245 4.49529 5.44952 4.5005 5.44587 4.50474C5.44222 4.50898 5.43792 4.51215 5.43327 4.51403L5.19373 4.61087C5.19043 4.61211 5.18701 4.61269 5.18357 4.61259Z" fill="black"/>
</g>
<path d="M7.09316 19.8007C8.46285 27.7698 9.70311 35.7924 10.6819 43.8623L9.30601 44.2361C7.79345 36.3113 6.5352 28.2934 5.41199 20.2574L7.09316 19.8007Z" fill="#E98862"/>
<path d="M4.26197 20.2944C4.38775 28.2112 4.37869 36.1459 4.10606 44.0574H2.70143C2.42893 36.146 2.41994 28.2111 2.54558 20.2944H4.26197Z" fill="#E98862"/>
<path d="M5.92335 44.7888C5.96212 44.7886 6.00044 44.7777 6.03591 44.7571C6.07138 44.7364 6.10324 44.7063 6.1295 44.6686C6.15576 44.6309 6.17585 44.5865 6.18853 44.5381C6.20121 44.4897 6.2062 44.4384 6.20319 44.3873C6.19906 44.3165 6.17967 44.2487 6.14733 44.192C6.11498 44.1352 6.07102 44.0919 6.02064 44.0671L4.34255 43.3248C4.31004 43.3106 4.27558 43.3058 4.24153 43.3108C4.20748 43.3157 4.17466 43.3304 4.1453 43.3537C3.91462 43.5651 3.63867 43.6732 3.35803 43.662C3.13942 43.6415 2.92957 43.5403 2.75241 43.3699C2.73685 43.353 2.71797 43.3423 2.69798 43.3391C2.67799 43.3358 2.65772 43.3402 2.63953 43.3516C2.62134 43.363 2.60598 43.381 2.59525 43.4035C2.58452 43.426 2.57885 43.4521 2.57892 43.4787V44.5624C2.57891 44.5944 2.58368 44.626 2.59297 44.6556C2.60225 44.6851 2.61586 44.7119 2.63302 44.7345C2.65017 44.7571 2.67053 44.7749 2.69293 44.7871C2.71533 44.7992 2.73932 44.8054 2.76353 44.8052L5.92335 44.7888Z" fill="#C1D8ED"/>
<path d="M12.3587 44.7888C12.3974 44.7886 12.4358 44.7778 12.4712 44.7571C12.5067 44.7364 12.5386 44.7063 12.5648 44.6686C12.5911 44.6309 12.6112 44.5865 12.6239 44.5381C12.6365 44.4897 12.6415 44.4384 12.6385 44.3873C12.6344 44.3165 12.615 44.2487 12.5826 44.192C12.5503 44.1353 12.5064 44.0919 12.456 44.0671L10.7779 43.3248C10.7454 43.3106 10.7109 43.3058 10.6769 43.3108C10.6428 43.3157 10.61 43.3304 10.5807 43.3537C10.35 43.5651 10.074 43.6732 9.79333 43.662C9.57474 43.6415 9.36491 43.5403 9.18778 43.3699C9.17221 43.353 9.15333 43.3423 9.13334 43.3391C9.11335 43.3359 9.09308 43.3402 9.07489 43.3516C9.05669 43.363 9.04133 43.381 9.03059 43.4035C9.01985 43.426 9.01417 43.4521 9.01422 43.4787V44.5624C9.01422 44.5944 9.019 44.626 9.02829 44.6556C9.03758 44.6851 9.05119 44.7119 9.06834 44.7345C9.08549 44.757 9.10585 44.7749 9.12824 44.787C9.15064 44.7992 9.17463 44.8054 9.19884 44.8052L12.3587 44.7888Z" fill="#C1D8ED"/>
<path d="M1.6752 16.8764C1.6752 16.8764 0.895272 21.489 0.895272 25.3683C0.895272 29.2476 0 35.2556 0 35.2556C0 35.2556 2.538 34.7134 4.25968 35.2556C7.22623 36.1898 9.88644 34.1556 9.88644 34.1556L6.89854 17.3022L1.6752 16.8764Z" fill="#262626"/>
<path d="M15.1764 12.5575C15.1764 12.5575 15.74 12.1958 16.1633 12.3346C16.5865 12.4734 16.3882 12.714 16.0802 12.7996C15.7721 12.8851 15.0955 13.0243 15.0955 13.0243" fill="#E98862"/>
<path d="M15.5056 12.5402C15.5056 12.5402 16.5504 12.3951 16.5612 12.7271C16.5612 12.7271 16.607 13.7513 16.4651 13.9097C16.2509 14.1487 15.1896 13.9615 15.1896 13.9615L15.5056 12.5402Z" fill="#E98862"/>
<path d="M12.7436 14.2328H8.65999C8.53909 14.2328 8.42013 14.1926 8.31406 14.116C8.20799 14.0394 8.11822 13.9287 8.053 13.7943L5.47278 8.47468L6.68709 7.44763L9.05462 12.3287H12.7438L12.7436 14.2328Z" fill="#367CFF"/>
<path d="M7.22947 17.4779C6.9418 18.3511 1.28936 18.7138 1.21384 17.1778C1.16578 16.2003 1.81801 15.3471 1.81801 13.4421C1.81801 11.537 0.491032 9.10419 1.57222 7.67609C1.88598 7.2618 2.42768 6.99431 3.08815 6.99341C3.13758 7.50199 5.476 7.5039 5.49385 7.0052C5.5831 7.00701 5.65244 7.00873 5.69569 7.01154C7.9737 7.14121 6.97269 10.565 6.95072 13.0803C6.92409 16.0235 7.5262 16.5785 7.22947 17.4779Z" fill="#367CFF"/>
<path d="M5.49396 7.0052C5.47611 7.5039 5.27083 8.23735 4.63713 8.29275C3.79267 8.3662 3.13769 7.50199 3.08826 6.99341H3.09032C3.92174 6.99341 5.00925 6.99522 5.49396 7.0052Z" fill="#E98862"/>
<path d="M12.1439 18.7212C14.419 18.7212 16.2633 16.2854 16.2633 13.2808C16.2633 10.2761 14.419 7.84039 12.1439 7.84039C9.86889 7.84039 8.0246 10.2761 8.0246 13.2808C8.0246 16.2854 9.86889 18.7212 12.1439 18.7212Z" fill="#0CBC8B"/>
<g opacity="0.29">
<path d="M12.1439 16.8075C13.6188 16.8075 14.8144 15.2285 14.8144 13.2807C14.8144 11.3329 13.6188 9.75385 12.1439 9.75385C10.6691 9.75385 9.47351 11.3329 9.47351 13.2807C9.47351 15.2285 10.6691 16.8075 12.1439 16.8075Z" fill="white"/>
</g>
<path d="M11.2699 14.5405L11.519 14.0303C11.7164 14.2298 11.8891 14.3321 12.0728 14.3321C12.2929 14.3321 12.3898 14.2115 12.3898 13.978C12.3898 13.4502 11.3645 13.4597 11.3645 12.534C11.3645 11.9389 11.6766 11.5599 12.1688 11.5599C12.3086 11.5572 12.4471 11.5948 12.5748 11.67C12.7025 11.7451 12.8163 11.8561 12.9082 11.9951L12.6225 12.4274C12.4813 12.2578 12.3616 12.1685 12.1994 12.1685C12.0125 12.1685 11.9111 12.2682 11.9111 12.4985C11.9111 12.9881 12.9364 12.9449 12.9364 13.9255C12.9364 14.5149 12.6412 14.941 12.0727 14.941C11.7784 14.9322 11.4952 14.7909 11.2699 14.5405ZM11.953 11.0571H12.3319V11.7959H11.953L11.953 11.0571ZM11.953 14.6326H12.3319V15.4433H11.953L11.953 14.6326Z" fill="white"/>
<path d="M16.4648 13.9104C16.4455 13.9306 16.424 13.9468 16.401 13.9583C16.2778 13.9918 15.9674 13.8937 15.9176 13.78C15.8366 13.5949 15.8869 12.9263 15.9583 12.6837C16.0254 12.457 16.3595 12.5519 16.4034 12.5627C16.4047 12.5634 16.4061 12.5638 16.4076 12.5642C16.4987 12.5972 16.5586 12.6487 16.5611 12.7278C16.5611 12.7278 16.6071 13.7515 16.4648 13.9104Z" fill="#E98862"/>
<path d="M7.36926 14.5285C7.36926 14.5285 7.53465 13.3358 8.17357 13.5434C8.57664 13.6744 9.74812 13.4406 9.7659 14.1242C9.78135 14.7174 8.68114 14.8755 8.31726 14.8261C7.99067 14.7818 7.36926 14.5285 7.36926 14.5285Z" fill="#E98862"/>
<path d="M7.93958 13.5303C7.93958 13.5303 8.88998 13.3451 9.10226 13.4643C9.29024 13.5698 8.82764 13.8996 8.82764 13.8996L7.93958 13.5303Z" fill="#E98862"/>
<path d="M8.24358 15.1909L3.99515 15.0197C3.86255 15.0144 3.7334 14.9626 3.62094 14.8697C3.50848 14.7767 3.41675 14.646 3.35514 14.4908L1.25757 9.20865L2.58331 8.29041L4.4778 13.0612L8.28923 13.2148L8.24358 15.1909Z" fill="#367CFF"/>
<path d="M32.3328 44.019L33.7646 43.7942C33.7 43.0785 33.6273 42.2188 33.6223 42.0778C33.6223 42.0869 33.6223 42.0943 33.6223 42.1H32.1805C32.1808 42.1572 32.1808 42.3309 32.3328 44.019Z" fill="#E98862"/>
<path d="M38.0777 44.2467L39.5195 44.2405C39.5195 44.2405 39.5146 42.2743 39.5146 42.1001H38.0729C38.0729 42.2748 38.0777 44.2467 38.0777 44.2467Z" fill="#E98862"/>
<path d="M31.801 43.3606C31.9202 39.3703 31.9275 35.1791 31.9648 31.1782C32.4605 26.8627 32.7214 22.1296 33.3334 17.8446L33.3518 17.8517L33.4055 17.3685L38.6285 16.9423L38.8123 21.4488C39.0752 27.4858 39.5835 37.191 39.891 43.309L37.3598 43.5921C36.9077 37.5752 36.2392 27.9897 35.8307 22.0593C35.3823 25.081 34.891 28.484 34.4929 31.5417C34.4058 35.4477 34.3329 39.5181 34.3408 43.4179L31.801 43.3606Z" fill="#262626"/>
<path d="M36.3249 44.983C36.2862 44.9828 36.2479 44.972 36.2124 44.9513C36.1769 44.9306 36.145 44.9005 36.1188 44.8628C36.0925 44.8252 36.0724 44.7807 36.0597 44.7324C36.0471 44.684 36.0421 44.6326 36.0451 44.5816C36.0493 44.5108 36.0687 44.4431 36.101 44.3864C36.1334 44.3297 36.1773 44.2864 36.2277 44.2616L37.9057 43.5193C37.9383 43.505 37.9727 43.5003 38.0067 43.5053C38.0408 43.5103 38.0736 43.525 38.1029 43.5483C38.3336 43.7596 38.6096 43.8677 38.8903 43.8566C39.1089 43.836 39.3187 43.7348 39.4959 43.5644C39.5114 43.5475 39.5303 43.5369 39.5503 43.5336C39.5703 43.5304 39.5906 43.5347 39.6088 43.5461C39.627 43.5575 39.6423 43.5755 39.6531 43.598C39.6638 43.6206 39.6694 43.6466 39.6694 43.6732V44.7572C39.6694 44.7892 39.6646 44.8208 39.6553 44.8504C39.646 44.8799 39.6324 44.9067 39.6153 44.9293C39.5981 44.9518 39.5778 44.9697 39.5554 44.9818C39.533 44.994 39.509 45.0002 39.4848 45L36.3249 44.983Z" fill="#C1D8ED"/>
<path d="M30.5762 44.983C30.5375 44.9828 30.4991 44.972 30.4637 44.9513C30.4282 44.9306 30.3963 44.9005 30.37 44.8628C30.3438 44.8252 30.3237 44.7808 30.311 44.7324C30.2983 44.684 30.2933 44.6326 30.2963 44.5816C30.3005 44.5108 30.3199 44.4431 30.3523 44.3864C30.3846 44.3297 30.4285 44.2864 30.4789 44.2616L32.157 43.5193C32.1895 43.505 32.224 43.5003 32.258 43.5053C32.2921 43.5103 32.3249 43.525 32.3542 43.5483C32.5849 43.7596 32.8609 43.8677 33.1416 43.8566C33.3601 43.836 33.57 43.7348 33.7471 43.5644C33.7627 43.5475 33.7815 43.5369 33.8015 43.5336C33.8215 43.5304 33.8418 43.5347 33.86 43.5461C33.8782 43.5575 33.8935 43.5755 33.9043 43.598C33.915 43.6206 33.9207 43.6466 33.9206 43.6732V44.7572C33.9206 44.7892 33.9158 44.8208 33.9065 44.8504C33.8973 44.8799 33.8836 44.9067 33.8665 44.9292C33.8494 44.9518 33.829 44.9697 33.8066 44.9818C33.7842 44.994 33.7603 45.0002 33.736 45L30.5762 44.983Z" fill="#C1D8ED"/>
<path d="M36.6221 23.5239V29.4136C36.6221 29.6509 36.6935 29.8784 36.8205 30.0462C36.9475 30.214 37.1198 30.3083 37.2995 30.3083H44.3226C44.5023 30.3083 44.6746 30.214 44.8016 30.0462C44.9286 29.8784 45 29.6509 45 29.4136V23.5239C45 23.2866 44.9286 23.0591 44.8016 22.8913C44.6746 22.7235 44.5023 22.6293 44.3226 22.6293H42.4664V22.0077C42.4662 21.786 42.3994 21.5735 42.2807 21.4167C42.162 21.2599 42.0011 21.1717 41.8332 21.1714H39.7889C39.621 21.1717 39.4601 21.2599 39.3414 21.4167C39.2226 21.5735 39.1559 21.786 39.1557 22.0077V22.6293H37.2995C37.1198 22.6293 36.9476 22.7235 36.8205 22.8913C36.6935 23.0591 36.6221 23.2866 36.6221 23.5239ZM42.0545 22.6293H39.5676V22.0077C39.5677 21.9302 39.591 21.856 39.6325 21.8012C39.674 21.7464 39.7302 21.7156 39.7889 21.7155H41.8332C41.8918 21.7156 41.9481 21.7464 41.9896 21.8012C42.031 21.856 42.0544 21.9302 42.0545 22.0077V22.6293Z" fill="#0CBC8B"/>
<path d="M27.1465 15.008C26.9474 15.0696 26.2566 15.1368 26.2488 15.3749C26.2439 15.5177 26.7683 15.5223 26.7683 15.5223" fill="#E98862"/>
<path d="M26.7571 16.7598C27.5805 16.5051 28.1933 15.9898 28.1257 15.6089C28.0581 15.2279 27.3359 15.1256 26.5124 15.3803C25.689 15.6351 25.0763 16.1504 25.1438 16.5313C25.2114 16.9123 25.9337 17.0146 26.7571 16.7598Z" fill="#E98862"/>
<path d="M40.1623 20.0292C40.1623 20.2994 40.0542 21.2028 40.228 21.2673C40.3322 21.3059 40.4552 20.6326 40.4552 20.6326" fill="#E98862"/>
<path d="M40.9825 19.8873C40.9825 19.8873 41.5701 20.7235 41.1707 21.7155C41.1153 21.853 40.5753 21.9338 40.5753 21.7653C40.5753 21.058 40.5337 20.5033 40.181 20.6728V19.5336" fill="#E98862"/>
<path d="M30.7303 12.9987L33.2869 7.95299L33.302 7.96632C33.5217 7.52375 33.899 7.24094 34.5223 7.20576C34.5655 7.20304 34.6349 7.20122 34.7242 7.19941C34.742 7.69811 37.0804 7.6963 37.1299 7.18762C37.7903 7.18853 38.332 7.45601 38.6458 7.87039C38.7917 8.06117 38.9036 8.29244 38.9734 8.54745L38.9817 8.54255L40.6413 13.4773C40.6701 13.5631 40.6895 13.6538 40.699 13.7467L41.3438 20.0783L39.8602 20.3418L39.2299 14.1505L38.576 12.2059C38.4711 12.6708 38.4121 13.1515 38.4002 13.6363C38.4002 15.5413 39.0524 16.3946 39.0044 17.372C38.9289 18.908 33.2764 18.5453 32.9888 17.6721C32.6922 16.7727 33.2943 16.2177 33.2675 13.2745C33.2567 12.758 33.2257 12.2425 33.1745 11.7303L31.8376 14.3688C31.7486 14.5446 31.6192 14.6781 31.4686 14.7497L27.2835 16.7354L26.7775 14.8746L30.7303 12.9987Z" fill="#367CFF"/>
<path d="M34.7244 7.19979C34.7422 7.69849 34.9475 8.43203 35.5812 8.48734C36.4257 8.56079 37.0806 7.69668 37.1301 7.188H37.128C36.2966 7.18782 35.2091 7.18963 34.7244 7.19979Z" fill="#E98862"/>
<path d="M36.5477 6.0108C36.5451 5.80624 36.5506 5.60165 36.5641 5.39785C36.3799 5.35251 35.664 5.17769 35.4671 5.12946C35.5051 5.30727 35.4707 6.65186 35.2611 7.02543C35.2089 7.15948 35.1359 7.2775 35.0469 7.3718H36.772C36.6651 7.1288 36.5552 6.70989 36.5477 6.0108Z" fill="#E98862"/>
<path opacity="0.15" d="M35.2602 7.02674L36.1714 6.10604L35.4558 6.09625C35.435 6.4198 35.3687 6.73538 35.2602 7.02674Z" fill="black"/>
<path d="M37.1864 4.65763C37.0467 6.0199 36.0516 6.31141 35.1552 6.20968C33.9544 6.07965 34.192 2.47395 34.762 1.77341C35.3321 1.07287 37.0055 1.51653 37.2088 2.68803C37.314 3.29391 37.2587 4.10625 37.1864 4.65763Z" fill="#E98862"/>
<path d="M33.9221 1.43859C33.9214 0.958021 34.3762 0.175603 35.5787 1.25815C36.2382 1.27402 36.6207 1.32035 37.1059 1.79847C38.1721 2.76006 37.2455 5.77684 36.604 5.99001C36.5384 6.0416 36.5225 5.99962 36.4997 5.90324C36.4281 5.54706 36.3768 5.18429 36.3464 4.81797C36.3072 4.43714 36.0481 4.19505 36.0794 3.73896C36.0904 3.57956 36.2847 2.99544 35.6831 2.98883C34.3698 3.10461 33.775 2.83658 33.9221 1.43859Z" fill="#0F1011"/>
<path d="M35.9862 4.40154C35.9335 5.12085 36.7901 5.2137 36.8268 4.49221C36.8899 3.7496 35.973 3.69692 35.9862 4.40154Z" fill="#E98862"/>
<path d="M36.1715 2.6347L36.4821 2.78486C36.3873 3.12869 36.5545 6.30569 35.6795 6.34994C34.505 6.54199 34.2943 6.07357 34.3383 4.8493C36.1372 5.11878 36.0025 4.77858 36.1715 2.6347Z" fill="#0F1011"/>
<path d="M35.3696 4.0693C35.3683 4.1034 35.3771 4.13684 35.3941 4.16253C35.4112 4.18821 35.4351 4.20414 35.4609 4.20692C35.4866 4.2097 35.5122 4.19912 35.5322 4.17743C35.5521 4.15573 35.5649 4.12463 35.5678 4.0907C35.5691 4.05659 35.5603 4.02316 35.5433 3.99747C35.5263 3.97178 35.5023 3.95586 35.4766 3.95307C35.4508 3.95029 35.4252 3.96087 35.4053 3.98256C35.3853 4.00426 35.3725 4.03537 35.3696 4.0693Z" fill="#0F1011"/>
<path d="M34.5847 3.9842C34.5829 4.01864 34.5915 4.05262 34.6085 4.07879C34.6256 4.10496 34.6497 4.12121 34.6758 4.12403C34.7018 4.12686 34.7277 4.11602 34.7477 4.09388C34.7678 4.07173 34.7804 4.04005 34.7829 4.00569C34.7847 3.97125 34.7761 3.93727 34.7591 3.9111C34.742 3.88493 34.7179 3.86868 34.6918 3.86586C34.6658 3.86303 34.6399 3.87387 34.6199 3.89601C34.5998 3.91816 34.5872 3.94984 34.5847 3.9842Z" fill="#0F1011"/>
<path d="M34.5115 3.71504C34.5115 3.71504 34.7753 3.7106 34.7756 3.71069C34.7877 3.70991 34.7991 3.70296 34.8073 3.69132C34.8156 3.67967 34.8202 3.66423 34.82 3.64824C34.8199 3.63225 34.815 3.61696 34.8065 3.60559C34.798 3.59423 34.7865 3.58766 34.7744 3.58728L34.5109 3.59163C34.4988 3.59234 34.4874 3.59921 34.4791 3.61078C34.4707 3.62236 34.4661 3.63776 34.4662 3.65373C34.4663 3.6697 34.4711 3.68501 34.4795 3.69644C34.488 3.70788 34.4994 3.71454 34.5115 3.71504Z" fill="#0F1011"/>
<path d="M35.6834 3.84191C35.8726 3.72059 35.476 3.66193 35.4344 3.63763C35.4225 3.63421 35.41 3.63711 35.3997 3.64569C35.3893 3.65428 35.3819 3.66787 35.3791 3.68356C35.3762 3.69925 35.3781 3.71579 35.3844 3.72964C35.3907 3.74349 35.4008 3.75356 35.4126 3.75768C35.4256 3.75986 35.6699 3.84309 35.6834 3.84191Z" fill="#0F1011"/>
<g opacity="0.15">
<path d="M35.0271 4.80877C35.1683 4.7248 34.8623 4.66088 34.8349 4.63803L34.9764 4.22175C34.9503 3.93903 34.7735 4.63486 34.7567 4.64791C34.7243 4.73976 34.9963 4.78102 35.0271 4.80877Z" fill="black"/>
</g>
<path d="M35.4227 5.11482C35.4227 5.11482 35.0554 5.16596 34.7979 5.04718C34.7873 5.46409 35.3826 5.52702 35.4227 5.11482Z" fill="#F8FCFF"/>
<path d="M29.3664 7.84276C30.5835 7.84276 31.5701 6.53972 31.5701 4.93233C31.5701 3.32495 30.5835 2.02191 29.3664 2.02191C28.1493 2.02191 27.1627 3.32495 27.1627 4.93233C27.1627 6.53972 28.1493 7.84276 29.3664 7.84276Z" fill="#8DDBE0"/>
<path d="M29.0414 6.12576C29.0036 6.12576 28.9671 6.10665 28.9396 6.07236L28.2193 5.1747C28.2051 5.15702 28.1937 5.13584 28.1857 5.11235C28.1778 5.08886 28.1734 5.06352 28.1728 5.03779C28.1722 5.01205 28.1755 4.98642 28.1824 4.96236C28.1894 4.9383 28.1998 4.91628 28.2132 4.89755C28.2266 4.87883 28.2426 4.86377 28.2604 4.85323C28.2782 4.84269 28.2974 4.83689 28.3169 4.83614C28.3364 4.8354 28.3558 4.83973 28.374 4.84889C28.3922 4.85805 28.4089 4.87186 28.4231 4.88953L29.0333 5.65L30.3022 3.80327C30.3289 3.7663 30.3655 3.74461 30.4042 3.7428C30.4429 3.74099 30.4806 3.75922 30.5093 3.79359C30.5379 3.82796 30.5553 3.87576 30.5576 3.92679C30.56 3.97782 30.5472 4.02805 30.5219 4.06676L29.1512 6.06157C29.1379 6.08086 29.1219 6.09647 29.104 6.1075C29.0861 6.11852 29.0667 6.12473 29.047 6.12576H29.0414Z" fill="white"/>
</svg>
