<svg width="119" height="119" viewBox="0 0 119 119" fill="none" xmlns="http://www.w3.org/2000/svg">
<path d="M35.8929 12.5301C35.8929 6.62068 33.5922 1.89294 29.1702 1.89294C25.1802 1.89294 22.6523 6.69022 22.6523 12.5301" fill="#C1D8ED"/>
<path d="M29.1709 1.89453C33.5887 1.89453 35.8861 6.61412 35.8934 12.5149C35.8971 12.5575 35.8988 12.6004 35.8985 12.6434V69.1484C35.8934 70.5495 36.098 71.9381 36.5005 73.2345C36.903 74.5308 37.4955 75.7094 38.2439 76.7025C38.9922 77.6956 39.8818 78.4836 40.8614 79.0213C41.8411 79.559 42.8915 79.8358 43.9524 79.8358C45.0133 79.8358 46.0637 79.559 47.0434 79.0213C48.023 78.4836 48.9126 77.6956 49.661 76.7025C50.4094 75.7094 51.0018 74.5308 51.4043 73.2345C51.8068 71.9381 52.0114 70.5495 52.0064 69.1484H77.6585V13.7126C77.6585 7.38549 74.8928 2.17076 70.1023 1.89453H29.1709Z" fill="#D7E8F4"/>
<path d="M43.9531 79.7851H77.6587C78.7164 79.7851 79.7638 79.51 80.7409 78.9754C81.7181 78.4409 82.606 77.6574 83.3539 76.6697C84.1018 75.682 84.6951 74.5093 85.0999 73.2188C85.5046 71.9283 85.713 70.5451 85.713 69.1482H52.0072C52.0116 70.5467 51.8063 71.9325 51.4031 73.2256C50.9999 74.5188 50.4068 75.6937 49.658 76.6826C48.9093 77.6715 48.0196 78.4548 47.0405 78.9873C46.0613 79.5198 45.012 79.7909 43.9531 79.7851Z" fill="#C1D8ED"/>
<path d="M48.2142 24.7543L65.5042 24.7543C66.2839 24.7543 66.916 23.9195 66.916 22.8899C66.916 21.8602 66.2839 21.0255 65.5042 21.0255L48.2142 21.0255C47.4345 21.0255 46.8025 21.8602 46.8025 22.8899C46.8025 23.9195 47.4345 24.7543 48.2142 24.7543Z" fill="#FAFBFC"/>
<path d="M70.4432 33.8333H43.2743C42.9422 33.8333 42.6729 34.1889 42.6729 34.6276V34.6279C42.6729 35.0666 42.9422 35.4223 43.2743 35.4223H70.4432C70.7754 35.4223 71.0447 35.0666 71.0447 34.6279V34.6276C71.0447 34.1889 70.7754 33.8333 70.4432 33.8333Z" fill="#FAFBFC"/>
<path d="M70.4432 30.0179H43.2743C42.9422 30.0179 42.6729 30.3736 42.6729 30.8123V30.8126C42.6729 31.2513 42.9422 31.607 43.2743 31.607H70.4432C70.7754 31.607 71.0447 31.2513 71.0447 30.8126V30.8123C71.0447 30.3736 70.7754 30.0179 70.4432 30.0179Z" fill="#FAFBFC"/>
<path d="M70.4432 37.6492H43.2743C42.9422 37.6492 42.6729 38.0048 42.6729 38.4436V38.4438C42.6729 38.8825 42.9422 39.2382 43.2743 39.2382H70.4432C70.7754 39.2382 71.0447 38.8825 71.0447 38.4438V38.4436C71.0447 38.0048 70.7754 37.6492 70.4432 37.6492Z" fill="#FAFBFC"/>
<path d="M70.4432 41.4651H43.2743C42.9422 41.4651 42.6729 41.8207 42.6729 42.2595V42.2597C42.6729 42.6984 42.9422 43.0541 43.2743 43.0541H70.4432C70.7754 43.0541 71.0447 42.6984 71.0447 42.2597V42.2595C71.0447 41.8207 70.7754 41.4651 70.4432 41.4651Z" fill="#FAFBFC"/>
<path d="M70.4432 45.281H43.2743C42.9422 45.281 42.6729 45.6367 42.6729 46.0754V46.0756C42.6729 46.5144 42.9422 46.87 43.2743 46.87H70.4432C70.7754 46.87 71.0447 46.5144 71.0447 46.0756V46.0754C71.0447 45.6367 70.7754 45.281 70.4432 45.281Z" fill="#FAFBFC"/>
<path d="M70.4432 52.9124H43.2743C42.9422 52.9124 42.6729 53.268 42.6729 53.7067V53.707C42.6729 54.1457 42.9422 54.5014 43.2743 54.5014H70.4432C70.7754 54.5014 71.0447 54.1457 71.0447 53.707V53.7067C71.0447 53.268 70.7754 52.9124 70.4432 52.9124Z" fill="#FAFBFC"/>
<path d="M70.4432 49.0969H43.2743C42.9422 49.0969 42.6729 49.4526 42.6729 49.8913V49.8916C42.6729 50.3303 42.9422 50.6859 43.2743 50.6859H70.4432C70.7754 50.6859 71.0447 50.3303 71.0447 49.8916V49.8913C71.0447 49.4526 70.7754 49.0969 70.4432 49.0969Z" fill="#FAFBFC"/>
<path d="M62.2733 56.7283H51.4452C51.113 56.7283 50.8438 57.0839 50.8438 57.5227V57.5229C50.8438 57.9616 51.113 58.3173 51.4452 58.3173H62.2733C62.6055 58.3173 62.8748 57.9616 62.8748 57.5229V57.5227C62.8748 57.0839 62.6055 56.7283 62.2733 56.7283Z" fill="#FAFBFC"/>
<path d="M19.2621 9.43695C19.3166 10.3167 18.6223 11.1358 18.508 11.9649C18.3896 12.8229 18.8141 13.9124 18.537 14.6821C18.2561 15.4629 17.3455 15.7161 16.9244 16.3704C16.5034 17.0248 16.4607 18.2525 15.9226 18.7442C15.3921 19.2293 14.5094 18.8514 13.8875 19.144C13.2864 19.4267 12.7862 20.4627 12.1199 20.5347C11.4536 20.6066 10.8336 19.6895 10.2057 19.5384C9.55613 19.3821 8.73113 19.9427 8.14834 19.5768C7.55719 19.2058 7.36547 18.0031 6.87 17.447C6.37453 16.891 5.44496 16.8346 5.07259 16.1239C4.7053 15.4233 4.99143 14.2575 4.76993 13.4362C4.55588 12.6423 3.77137 11.9817 3.71691 11.1017C3.66244 10.2217 4.35689 9.4029 4.47127 8.57374C4.58965 7.71581 4.16517 6.62625 4.44222 5.85656C4.72309 5.07584 5.63378 4.82263 6.05481 4.16827C6.47584 3.51391 6.5185 2.28624 7.05664 1.79445C7.58715 1.30937 8.46988 1.68727 9.09171 1.39474C9.69284 1.11203 10.193 0.0759464 10.8593 0.00401244C11.5257 -0.0679215 12.1457 0.849236 12.7735 1.0003C13.4231 1.15663 14.2481 0.596029 14.8309 0.961933C15.422 1.33287 15.6145 2.53561 16.1092 3.09166C16.604 3.64771 17.5343 3.70405 17.9066 4.41476C18.2739 5.1154 17.9878 6.28121 18.2093 7.10245C18.4234 7.89637 19.2082 8.55696 19.2621 9.43695Z" fill="#0F1011"/>
<path d="M9.07617 18.9995C9.43565 18.1962 9.82055 16.64 9.64263 13.7507L12.5439 13.0433C12.5439 13.0433 12.2171 17.5512 13.6714 18.9995H9.07617Z" fill="#E98862"/>
<path opacity="0.15" d="M13.0886 18.0623L10.6807 15.6249L12.5732 15.601C12.6274 16.4566 12.8022 17.2914 13.0886 18.0623Z" fill="black"/>
<path d="M7.99877 11.7916C8.19849 13.3238 8.83067 14.7749 9.85338 15.271C10.9682 15.8568 12.1746 16.0736 13.3674 15.9024C16.543 15.5621 15.9214 6.02583 14.415 4.17258C12.9086 2.31932 8.48353 3.48633 7.94322 6.5838C7.6638 8.18481 7.80796 10.3332 7.99877 11.7916Z" fill="#E98862"/>
<path d="M12.5424 10.6168C12.6877 10.6168 12.8054 10.4612 12.8054 10.2693C12.8054 10.0774 12.6877 9.92188 12.5424 9.92188C12.3971 9.92188 12.2793 10.0774 12.2793 10.2693C12.2793 10.4612 12.3971 10.6168 12.5424 10.6168Z" fill="#0F1011"/>
<path d="M14.6185 10.3943C14.7638 10.3943 14.8816 10.2388 14.8816 10.0469C14.8816 9.85502 14.7638 9.69946 14.6185 9.69946C14.4733 9.69946 14.3555 9.85502 14.3555 10.0469C14.3555 10.2388 14.4733 10.3943 14.6185 10.3943Z" fill="#0F1011"/>
<path d="M15.0734 9.30744H15.0718L14.375 9.29497C14.343 9.2931 14.3129 9.27494 14.2909 9.24432C14.2688 9.2137 14.2566 9.173 14.2568 9.13076C14.2571 9.08852 14.2696 9.04803 14.292 9.0178C14.3143 8.98757 14.3447 8.96994 14.3766 8.96863H14.3783L15.0751 8.98086C15.1079 8.98114 15.1392 8.99862 15.1623 9.02945C15.1853 9.06027 15.1981 9.10192 15.1979 9.14523C15.1977 9.18853 15.1844 9.22995 15.1611 9.26037C15.1378 9.29079 15.1062 9.30772 15.0734 9.30744Z" fill="#0F1011"/>
<path d="M11.9747 9.63929C11.9445 9.63913 11.9154 9.62436 11.8928 9.59776C11.8703 9.57117 11.8559 9.5346 11.8524 9.49496C11.8489 9.45531 11.8565 9.41535 11.8738 9.38261C11.8911 9.34987 11.9168 9.32662 11.9462 9.31726L12.6334 9.09978C12.6494 9.09408 12.666 9.09266 12.6824 9.09562C12.6988 9.09858 12.7146 9.10585 12.7288 9.117C12.743 9.12815 12.7554 9.14296 12.7652 9.16055C12.775 9.17813 12.7821 9.19814 12.7859 9.21939C12.7898 9.24063 12.7904 9.26268 12.7876 9.28423C12.7849 9.30577 12.779 9.32638 12.7701 9.34483C12.7613 9.36328 12.7497 9.3792 12.7361 9.39164C12.7225 9.40408 12.7071 9.41279 12.6909 9.41725L12.0038 9.63473C11.9942 9.63778 11.9845 9.63931 11.9747 9.63929Z" fill="#0F1011"/>
<path d="M12.6621 13.0061C12.6621 13.0061 13.6331 13.1425 14.3143 12.8291C14.3143 12.8291 14.3083 13.6738 13.5399 13.7561C12.7716 13.8383 12.6621 13.0061 12.6621 13.0061Z" fill="#F8FCFF"/>
<path d="M10.1382 7.82511C10.3287 11.4156 10.0295 15.022 9.25471 18.4728C9.25471 18.4728 7.04099 13.4314 6.69857 9.23405C6.37758 5.29926 8.5746 2.97868 10.0581 2.5418C15.6956 0.88468 16.1014 6.32336 16.1014 6.32336C15.0743 9.14389 9.52795 9.13143 9.52795 9.13143" fill="#0F1011"/>
<path d="M11.2138 11.7652C11.2341 12.152 11.1382 12.5338 10.9468 12.8278C10.7554 13.1218 10.4839 13.3043 10.1913 13.3356C9.89867 13.367 9.60849 13.2446 9.38371 12.9952C9.15893 12.7458 9.01768 12.3894 8.9906 12.0033C8.97622 11.8099 8.99146 11.6146 9.03541 11.4291C9.07937 11.2436 9.15114 11.0717 9.24644 10.9236C9.34175 10.7755 9.45865 10.6543 9.59018 10.5671C9.72171 10.4799 9.86518 10.4286 10.012 10.4162C10.8069 10.3826 11.164 10.9545 11.2138 11.7652Z" fill="#E98862"/>
<g opacity="0.15">
<path d="M13.7088 12.1978C13.6871 12.1977 13.6661 12.1874 13.6496 12.1686C13.6332 12.1499 13.6224 12.124 13.6192 12.0956C13.616 12.0672 13.6206 12.0382 13.6321 12.0139C13.6437 11.9897 13.6615 11.9717 13.6823 11.9633L14.2174 11.7475L13.8441 10.6464C13.8342 10.6174 13.8335 10.5844 13.8421 10.5546C13.8507 10.5249 13.8678 10.5009 13.8898 10.4879C13.9118 10.4749 13.9368 10.474 13.9593 10.4853C13.9818 10.4966 14 10.5193 14.0098 10.5483L14.4254 11.7736C14.4307 11.7891 14.4334 11.8059 14.4333 11.8229C14.4333 11.8399 14.4305 11.8566 14.4252 11.8721C14.4199 11.8876 14.4121 11.9014 14.4025 11.9126C14.3928 11.9238 14.3814 11.9322 14.3691 11.9371L13.7357 12.1932C13.727 12.1965 13.7179 12.198 13.7088 12.1978Z" fill="black"/>
</g>
<path d="M18.7583 52.3621C22.3803 73.4358 25.6601 94.6511 28.2484 115.992L24.61 116.98C20.6102 96.0233 17.2828 74.8206 14.3125 53.5698L18.7583 52.3621Z" fill="#E98862"/>
<path d="M11.2714 53.6675C11.604 74.6031 11.58 95.586 10.859 116.508H7.14457C6.42397 95.5863 6.40019 74.6029 6.73244 53.6675H11.2714Z" fill="#E98862"/>
<path d="M15.6645 118.442C15.767 118.441 15.8683 118.413 15.9621 118.358C16.0559 118.303 16.1402 118.223 16.2096 118.124C16.2791 118.024 16.3322 117.907 16.3657 117.779C16.3993 117.651 16.4125 117.515 16.4045 117.38C16.3936 117.193 16.3423 117.014 16.2568 116.863C16.1712 116.713 16.055 116.599 15.9217 116.533L11.4841 114.57C11.3982 114.533 11.307 114.52 11.217 114.533C11.127 114.546 11.0402 114.585 10.9625 114.647C10.3525 115.206 9.62276 115.492 8.88062 115.462C8.30252 115.408 7.74759 115.14 7.27911 114.689C7.23795 114.645 7.18803 114.617 7.13517 114.608C7.08231 114.599 7.0287 114.611 6.9806 114.641C6.93249 114.671 6.89188 114.719 6.8635 114.778C6.83511 114.838 6.82014 114.907 6.82031 114.977V117.843C6.82029 117.928 6.83292 118.011 6.85747 118.089C6.88202 118.168 6.91801 118.238 6.96337 118.298C7.00874 118.358 7.06258 118.405 7.12181 118.437C7.18105 118.469 7.2445 118.486 7.30852 118.485L15.6645 118.442Z" fill="#C1D8ED"/>
<path d="M32.6821 118.442C32.7846 118.441 32.8859 118.413 32.9797 118.358C33.0736 118.303 33.1578 118.224 33.2273 118.124C33.2967 118.024 33.3499 117.907 33.3834 117.779C33.4169 117.651 33.4301 117.515 33.4221 117.38C33.4111 117.193 33.3599 117.014 33.2744 116.864C33.1889 116.714 33.0727 116.599 32.9395 116.533L28.5017 114.57C28.4158 114.533 28.3247 114.52 28.2347 114.533C28.1447 114.546 28.0579 114.585 27.9803 114.647C27.3702 115.206 26.6404 115.492 25.8982 115.462C25.3201 115.408 24.7653 115.14 24.2969 114.689C24.2557 114.645 24.2058 114.617 24.1529 114.608C24.1 114.6 24.0464 114.611 23.9983 114.641C23.9502 114.671 23.9096 114.719 23.8812 114.778C23.8528 114.838 23.8378 114.907 23.8379 114.977V117.843C23.8379 117.928 23.8505 118.011 23.8751 118.089C23.8997 118.167 23.9356 118.238 23.981 118.298C24.0264 118.358 24.0802 118.405 24.1394 118.437C24.1986 118.469 24.2621 118.486 24.3261 118.485L32.6821 118.442Z" fill="#C1D8ED"/>
<path d="M4.42998 44.6289C4.42998 44.6289 2.3675 56.8267 2.3675 67.0852C2.3675 77.3437 0 93.2318 0 93.2318C0 93.2318 6.7116 91.7979 11.2645 93.2318C19.1094 95.702 26.1441 90.3228 26.1441 90.3228L18.2428 45.7549L4.42998 44.6289Z" fill="#262626"/>
<path d="M40.133 33.2075C40.133 33.2075 41.6234 32.251 42.7427 32.6181C43.862 32.9852 43.3377 33.6213 42.523 33.8477C41.7084 34.074 39.9189 34.4421 39.9189 34.4421" fill="#E98862"/>
<path d="M41.0037 33.1616C41.0037 33.1616 43.7666 32.7779 43.7953 33.656C43.7953 33.656 43.9164 36.3643 43.5411 36.7832C42.9745 37.4153 40.168 36.9203 40.168 36.9203L41.0037 33.1616Z" fill="#E98862"/>
<path d="M33.6999 37.6378H22.9011C22.5813 37.6378 22.2668 37.5316 21.9863 37.3289C21.7058 37.1263 21.4684 36.8338 21.2959 36.4782L14.4727 22.4108L17.6838 19.6948L23.9446 32.6024H33.7006L33.6999 37.6378Z" fill="#367CFF"/>
<path d="M19.118 46.2194C18.3573 48.5285 3.40977 49.4876 3.21006 45.4257C3.08297 42.8407 4.80775 40.5846 4.80775 35.5468C4.80775 30.509 1.29863 24.0755 4.15778 20.299C4.9875 19.2034 6.41998 18.4961 8.16655 18.4937C8.29727 19.8386 14.4811 19.8436 14.5283 18.5248C14.7643 18.5296 14.9477 18.5342 15.0621 18.5416C21.0861 18.8845 18.439 27.9386 18.3809 34.5901C18.3105 42.3733 19.9027 43.8408 19.118 46.2194Z" fill="#367CFF"/>
<path d="M14.5297 18.5248C14.4825 19.8436 13.9397 21.7832 12.2639 21.9297C10.0307 22.1239 8.29869 19.8386 8.16797 18.4937H8.17342C10.3721 18.4937 13.2479 18.4984 14.5297 18.5248Z" fill="#E98862"/>
<path d="M32.1141 49.5072C38.1304 49.5072 43.0075 43.066 43.0075 35.1204C43.0075 27.1748 38.1304 20.7336 32.1141 20.7336C26.0978 20.7336 21.2207 27.1748 21.2207 35.1204C21.2207 43.066 26.0978 49.5072 32.1141 49.5072Z" fill="#0CBC8B"/>
<g opacity="0.29">
<path d="M32.1136 44.4467C36.0137 44.4467 39.1754 40.271 39.1754 35.1202C39.1754 29.9693 36.0137 25.7937 32.1136 25.7937C28.2134 25.7937 25.0518 29.9693 25.0518 35.1202C25.0518 40.271 28.2134 44.4467 32.1136 44.4467Z" fill="white"/>
</g>
<path d="M29.8018 38.4519L30.4604 37.1026C30.9826 37.6301 31.4392 37.9006 31.9251 37.9006C32.5071 37.9006 32.7633 37.5817 32.7633 36.9643C32.7633 35.5685 30.0519 35.5937 30.0519 33.1458C30.0519 31.5721 30.8773 30.5698 32.1789 30.5698C32.5485 30.5628 32.9149 30.6621 33.2526 30.8608C33.5902 31.0596 33.8911 31.353 34.1342 31.7208L33.3786 32.8638C33.0053 32.4154 32.6887 32.1792 32.2599 32.1792C31.7657 32.1792 31.4973 32.443 31.4973 33.0518C31.4973 34.3466 34.2087 34.2324 34.2087 36.8254C34.2087 38.384 33.428 39.511 31.9247 39.511C31.1464 39.4875 30.3974 39.1139 29.8018 38.4519ZM31.6082 29.2402H32.6103V31.194H31.6081L31.6082 29.2402ZM31.6082 38.6955H32.6103V40.8391H31.6081L31.6082 38.6955Z" fill="white"/>
<path d="M43.5402 36.7852C43.4893 36.8387 43.4324 36.8814 43.3716 36.9118C43.0458 37.0005 42.225 36.741 42.0934 36.4404C41.8792 35.951 42.0121 34.1828 42.2011 33.5412C42.3784 32.9417 43.2619 33.1928 43.3779 33.2213C43.3815 33.223 43.3852 33.2243 43.389 33.2251C43.6299 33.3124 43.7884 33.4486 43.7951 33.6579C43.7951 33.6579 43.9168 36.3651 43.5402 36.7852Z" fill="#E98862"/>
<path d="M19.4873 38.4196C19.4873 38.4196 19.9247 35.2655 21.6142 35.8144C22.6802 36.1609 25.7781 35.5427 25.8251 37.3504C25.8659 38.9191 22.9565 39.3372 21.9942 39.2065C21.1306 39.0893 19.4873 38.4196 19.4873 38.4196Z" fill="#E98862"/>
<path d="M20.9951 35.7799C20.9951 35.7799 23.5084 35.2903 24.0698 35.6056C24.5669 35.8845 23.3436 36.7565 23.3436 36.7565L20.9951 35.7799Z" fill="#E98862"/>
<path d="M21.7993 40.1714L10.5646 39.7187C10.2139 39.7046 9.87241 39.5677 9.57501 39.3219C9.27762 39.0762 9.03503 38.7304 8.87211 38.3201L3.3252 24.3517L6.83105 21.9235L11.8409 34.5395L21.92 34.9457L21.7993 40.1714Z" fill="#367CFF"/>
<path d="M85.5025 116.406L89.2887 115.811C89.118 113.919 88.9256 111.645 88.9123 111.272C88.9123 111.296 88.9123 111.316 88.9123 111.331H85.0996C85.1003 111.482 85.1003 111.942 85.5025 116.406Z" fill="#E98862"/>
<path d="M100.693 117.008L104.506 116.991C104.506 116.991 104.493 111.792 104.493 111.331H100.681C100.681 111.793 100.693 117.008 100.693 117.008Z" fill="#E98862"/>
<path d="M84.0947 114.665C84.4101 104.113 84.4293 93.0292 84.5281 82.4489C85.8388 71.0368 86.5287 58.5205 88.1473 47.189L88.1957 47.2077L88.3377 45.9299L102.15 44.803L102.636 56.72C103.331 72.6846 104.675 98.3494 105.488 114.528L98.7946 115.277C97.5991 99.3653 95.8313 74.017 94.751 58.3345C93.5654 66.3254 92.266 75.3243 91.2134 83.4102C90.983 93.7394 90.7903 104.503 90.8112 114.816L84.0947 114.665Z" fill="#262626"/>
<path d="M96.0577 118.955C95.9552 118.954 95.8538 118.926 95.76 118.871C95.6662 118.817 95.582 118.737 95.5125 118.637C95.4431 118.538 95.3899 118.42 95.3564 118.292C95.3229 118.164 95.3097 118.029 95.3177 117.894C95.3287 117.706 95.38 117.527 95.4656 117.377C95.5511 117.227 95.6673 117.113 95.8005 117.047L100.238 115.084C100.324 115.047 100.415 115.034 100.505 115.047C100.595 115.061 100.682 115.099 100.759 115.161C101.37 115.72 102.099 116.006 102.842 115.976C103.42 115.922 103.975 115.654 104.443 115.204C104.484 115.159 104.534 115.131 104.587 115.122C104.64 115.114 104.694 115.125 104.742 115.155C104.79 115.186 104.83 115.233 104.859 115.293C104.887 115.352 104.902 115.421 104.902 115.491V118.358C104.902 118.443 104.889 118.526 104.865 118.604C104.84 118.682 104.804 118.753 104.759 118.813C104.713 118.873 104.66 118.92 104.6 118.952C104.541 118.984 104.478 119 104.414 119L96.0577 118.955Z" fill="#C1D8ED"/>
<path d="M80.8567 118.955C80.7542 118.954 80.6528 118.926 80.559 118.871C80.4652 118.817 80.3809 118.737 80.3115 118.637C80.242 118.538 80.1888 118.42 80.1553 118.292C80.1217 118.164 80.1085 118.029 80.1165 117.894C80.1276 117.706 80.1789 117.527 80.2645 117.377C80.35 117.228 80.4661 117.113 80.5993 117.047L85.0371 115.084C85.123 115.047 85.2141 115.034 85.3041 115.047C85.3941 115.061 85.4809 115.099 85.5585 115.161C86.1686 115.72 86.8984 116.006 87.6406 115.976C88.2186 115.922 88.7735 115.654 89.2419 115.204C89.2831 115.159 89.333 115.131 89.3858 115.122C89.4387 115.114 89.4923 115.125 89.5404 115.155C89.5885 115.186 89.6291 115.233 89.6575 115.293C89.6859 115.352 89.7009 115.421 89.7007 115.491V118.358C89.7007 118.443 89.6881 118.526 89.6635 118.604C89.639 118.682 89.603 118.753 89.5577 118.813C89.5123 118.873 89.4585 118.92 89.3993 118.952C89.3401 118.984 89.2767 119 89.2127 119L80.8567 118.955Z" fill="#C1D8ED"/>
<path d="M96.8447 62.2072V77.7823C96.8447 78.4097 97.0334 79.0115 97.3694 79.4552C97.7053 79.8989 98.1609 80.1481 98.636 80.1482H117.208C117.683 80.1481 118.139 79.8989 118.475 79.4552C118.811 79.0115 119 78.4097 119 77.7823V62.2072C119 61.5798 118.811 60.978 118.475 60.5344C118.139 60.0907 117.683 59.8415 117.208 59.8415H112.3V58.1978C112.299 57.6115 112.122 57.0494 111.809 56.6348C111.495 56.2202 111.069 55.987 110.625 55.9863H105.219C104.775 55.987 104.349 56.2202 104.036 56.6348C103.722 57.0494 103.545 57.6115 103.545 58.1978V59.8415H98.636C98.1609 59.8415 97.7053 60.0907 97.3694 60.5344C97.0334 60.978 96.8447 61.5798 96.8447 62.2072ZM111.21 59.8415H104.634V58.1978C104.634 57.9929 104.696 57.7965 104.805 57.6516C104.915 57.5068 105.064 57.4253 105.219 57.425H110.625C110.78 57.4253 110.929 57.5068 111.039 57.6516C111.148 57.7965 111.21 57.9929 111.21 58.1978V59.8415Z" fill="#0CBC8B"/>
<path d="M71.7872 39.6877C71.2607 39.8506 69.4341 40.0282 69.4132 40.6579C69.4005 41.0355 70.7872 41.0478 70.7872 41.0478" fill="#E98862"/>
<path d="M70.7577 44.3202C72.9352 43.6466 74.5556 42.2839 74.3769 41.2765C74.1983 40.2691 72.2882 39.9985 70.1107 40.6722C67.9332 41.3458 66.3128 42.7085 66.4915 43.7159C66.6701 44.7233 68.5802 44.9938 70.7577 44.3202Z" fill="#E98862"/>
<path d="M106.207 52.9656C106.207 53.6801 105.921 56.069 106.381 56.2398C106.656 56.3419 106.982 54.5613 106.982 54.5613" fill="#E98862"/>
<path d="M108.375 52.5904C108.375 52.5904 109.929 54.8017 108.873 57.4249C108.726 57.7886 107.299 58.0022 107.299 57.5565C107.299 55.6862 107.189 54.2192 106.256 54.6676V51.655" fill="#E98862"/>
<path d="M81.2646 34.374L88.0255 21.0309L88.0654 21.0662C88.6464 19.8958 89.644 19.1479 91.2924 19.0549C91.4066 19.0477 91.59 19.0429 91.8262 19.0381C91.8732 20.3569 98.057 20.3521 98.1879 19.007C99.9343 19.0094 101.367 19.7167 102.197 20.8125C102.583 21.317 102.878 21.9286 103.063 22.6029L103.085 22.59L107.474 35.6398C107.55 35.8665 107.601 36.1063 107.626 36.3521L109.331 53.0957L105.408 53.7925L103.741 37.4199L102.012 32.2776C101.735 33.5068 101.579 34.7781 101.547 36.0601C101.547 41.0979 103.272 43.3542 103.145 45.939C102.945 50.0009 87.9977 49.0418 87.2371 46.7327C86.4526 44.3541 88.0449 42.8866 87.9741 35.1034C87.9456 33.7375 87.8635 32.3744 87.7282 31.0197L84.1928 37.9973C83.9573 38.462 83.6153 38.815 83.2169 39.0044L72.1498 44.2555L70.8115 39.3348L81.2646 34.374Z" fill="#367CFF"/>
<path d="M91.8271 19.0391C91.8742 20.3579 92.4172 22.2977 94.093 22.444C96.3261 22.6382 98.058 20.3531 98.1889 19.008H98.1833C95.9848 19.0075 93.1089 19.0123 91.8271 19.0391Z" fill="#E98862"/>
<path d="M96.6485 15.8951C96.6417 15.3542 96.6562 14.8131 96.6919 14.2742C96.2046 14.1543 94.3115 13.692 93.7908 13.5645C93.8914 14.0347 93.8003 17.5904 93.2461 18.5782C93.1082 18.9327 92.9151 19.2448 92.6797 19.4942H97.2417C96.9588 18.8516 96.6683 17.7438 96.6485 15.8951Z" fill="#E98862"/>
<path opacity="0.15" d="M93.2432 18.5817L95.6528 16.147L93.7602 16.1211C93.7055 16.9767 93.5301 17.8112 93.2432 18.5817Z" fill="black"/>
<path d="M98.3373 12.3167C97.9678 15.9192 95.3365 16.6901 92.9659 16.421C89.7905 16.0772 90.4187 6.54209 91.9261 4.68955C93.4336 2.83701 97.8589 4.01025 98.3965 7.10821C98.6748 8.71042 98.5285 10.8586 98.3373 12.3167Z" fill="#E98862"/>
<path d="M89.7054 3.80407C89.7034 2.53324 90.9062 0.46418 94.086 3.32691C95.83 3.36887 96.8415 3.4914 98.1245 4.75576C100.944 7.29862 98.4938 15.2763 96.7975 15.8401C96.624 15.9765 96.5818 15.8655 96.5216 15.6106C96.3322 14.6687 96.1967 13.7094 96.1162 12.7407C96.0125 11.7336 95.3273 11.0934 95.4101 9.88729C95.4391 9.46575 95.9531 7.92109 94.3621 7.90359C90.8893 8.20979 89.3163 7.501 89.7054 3.80407Z" fill="#0F1011"/>
<path d="M95.1634 11.6394C95.0241 13.5415 97.2894 13.7871 97.3864 11.8791C97.5532 9.91534 95.1285 9.77603 95.1634 11.6394Z" fill="#E98862"/>
<path d="M95.6528 6.96716L96.4741 7.36424C96.2236 8.27348 96.6657 16.6749 94.3517 16.7919C91.246 17.2998 90.6888 16.0611 90.805 12.8235C95.5622 13.5362 95.206 12.6365 95.6528 6.96716Z" fill="#0F1011"/>
<path d="M93.5326 10.761C93.5291 10.8512 93.5523 10.9396 93.5974 11.0076C93.6424 11.0755 93.7057 11.1176 93.7739 11.1249C93.842 11.1323 93.9097 11.1043 93.9625 11.047C94.0153 10.9896 94.0491 10.9073 94.0567 10.8176C94.0602 10.7274 94.037 10.639 93.9919 10.5711C93.9469 10.5031 93.8836 10.461 93.8154 10.4537C93.7473 10.4463 93.6796 10.4743 93.6268 10.5317C93.574 10.589 93.5402 10.6713 93.5326 10.761Z" fill="#0F1011"/>
<path d="M91.4567 10.5362C91.452 10.6272 91.4746 10.7171 91.5197 10.7863C91.5648 10.8555 91.6287 10.8985 91.6976 10.9059C91.7665 10.9134 91.8349 10.8848 91.8879 10.8262C91.9409 10.7676 91.9744 10.6839 91.981 10.593C91.9857 10.5019 91.963 10.412 91.9179 10.3429C91.8728 10.2737 91.8089 10.2307 91.74 10.2232C91.6711 10.2157 91.6028 10.2444 91.5498 10.303C91.4967 10.3615 91.4633 10.4453 91.4567 10.5362Z" fill="#0F1011"/>
<path d="M91.2633 9.82418C91.2633 9.82418 91.9609 9.81243 91.9616 9.81267C91.9936 9.81061 92.0237 9.79225 92.0457 9.76145C92.0676 9.73065 92.0796 9.68981 92.0792 9.64753C92.0788 9.60525 92.066 9.56483 92.0435 9.53476C92.021 9.50469 91.9905 9.48733 91.9585 9.48633L91.2617 9.49784C91.2298 9.49971 91.1996 9.51786 91.1776 9.54848C91.1555 9.5791 91.1433 9.61981 91.1436 9.66205C91.1438 9.70429 91.1564 9.74477 91.1787 9.77501C91.201 9.80524 91.2314 9.82286 91.2633 9.82418Z" fill="#0F1011"/>
<path d="M94.3628 10.1598C94.8632 9.83894 93.8145 9.6838 93.7045 9.61954C93.6729 9.61051 93.6399 9.61817 93.6125 9.64087C93.5852 9.66357 93.5657 9.69951 93.5581 9.741C93.5506 9.78249 93.5556 9.82623 93.5722 9.86286C93.5887 9.8995 93.6155 9.92611 93.6467 9.93701C93.6811 9.94276 94.3272 10.1629 94.3628 10.1598Z" fill="#0F1011"/>
<g opacity="0.15">
<path d="M92.6265 12.7163C92.9998 12.4943 92.1908 12.3253 92.1181 12.2648L92.4923 11.164C92.4233 10.4164 91.9558 12.2564 91.9113 12.291C91.8258 12.5339 92.5452 12.643 92.6265 12.7163Z" fill="black"/>
</g>
<path d="M93.673 13.5257C93.673 13.5257 92.7019 13.6609 92.0209 13.3468C91.9927 14.4493 93.5672 14.6157 93.673 13.5257Z" fill="#F8FCFF"/>
<path d="M77.6577 20.7396C80.8762 20.7396 83.4853 17.2938 83.4853 13.0431C83.4853 8.7925 80.8762 5.34668 77.6577 5.34668C74.4392 5.34668 71.8301 8.7925 71.8301 13.0431C71.8301 17.2938 74.4392 20.7396 77.6577 20.7396Z" fill="#8DDBE0"/>
<path d="M76.7992 16.1989C76.6991 16.1989 76.6027 16.1484 76.5298 16.0577L74.6251 13.6839C74.5876 13.6371 74.5574 13.5811 74.5363 13.519C74.5152 13.4569 74.5036 13.3899 74.5021 13.3218C74.5006 13.2538 74.5093 13.186 74.5276 13.1224C74.546 13.0587 74.5736 13.0005 74.609 12.951C74.6444 12.9015 74.6868 12.8616 74.7339 12.8338C74.7809 12.8059 74.8316 12.7906 74.8831 12.7886C74.9347 12.7866 74.986 12.7981 75.0342 12.8223C75.0824 12.8465 75.1265 12.883 75.1639 12.9298L76.7776 14.9408L80.1331 10.0572C80.2039 9.95946 80.3007 9.90208 80.403 9.8973C80.5053 9.89252 80.605 9.94071 80.6808 10.0316C80.7566 10.1225 80.8025 10.2489 80.8087 10.3838C80.8149 10.5188 80.781 10.6516 80.7141 10.754L77.0895 16.0292C77.0544 16.0802 77.012 16.1215 76.9646 16.1506C76.9173 16.1798 76.8661 16.1962 76.8139 16.1989H76.7992Z" fill="white"/>
</svg>
