<svg width="45" height="45" viewBox="0 0 45 45" fill="none" xmlns="http://www.w3.org/2000/svg">
<path d="M32.7447 31.3577L35.2478 25.3361L39.0585 23.4989L45 26.318L41.2309 35.384L32.7447 31.3577Z" fill="#F4F4F4"/>
<path opacity="0.05" d="M41.9473 30.3302L35.8723 27.4296C35.8131 27.4013 35.7437 27.4297 35.7173 27.4929L35.7173 27.493C35.6908 27.5562 35.7173 27.6303 35.7765 27.6586L41.8515 30.5592C41.9107 30.5875 41.9801 30.5591 42.0065 30.4959L42.0065 30.4959C42.033 30.4326 42.0065 30.3585 41.9473 30.3302Z" fill="#292A2E"/>
<path opacity="0.05" d="M41.4369 31.6321L35.3619 28.7315C35.3027 28.7032 35.2333 28.7316 35.2069 28.7948L35.2068 28.7948C35.1804 28.8581 35.2069 28.9322 35.2661 28.9605L41.3411 31.8611C41.4002 31.8894 41.4697 31.861 41.4961 31.7978L41.4961 31.7977C41.5226 31.7345 41.4961 31.6604 41.4369 31.6321Z" fill="#292A2E"/>
<path opacity="0.05" d="M38.3814 31.7418L34.8406 30.063C34.8122 30.0495 34.7799 30.0485 34.7508 30.0604C34.7217 30.0723 34.6982 30.096 34.6855 30.1263C34.6792 30.1414 34.6758 30.1576 34.6753 30.1741C34.6749 30.1905 34.6775 30.2069 34.683 30.2223C34.6885 30.2377 34.6968 30.2518 34.7074 30.2637C34.718 30.2757 34.7307 30.2853 34.7448 30.292L38.2856 31.9708C38.314 31.9844 38.3463 31.9853 38.3754 31.9734C38.4045 31.9615 38.428 31.9378 38.4407 31.9074C38.4534 31.8771 38.4543 31.8426 38.4431 31.8115C38.432 31.7804 38.4098 31.7553 38.3814 31.7418Z" fill="#292A2E"/>
<path opacity="0.4" d="M39.0585 23.4989L37.8274 26.5568L35.2478 25.3361L39.0585 23.4989Z" fill="white"/>
<path d="M2.46669 16.585L1.07745 10.1657L3.08817 6.24963L9.42221 4.68518L11.5134 14.3503L2.46669 16.585Z" fill="#F4F4F4"/>
<path opacity="0.05" d="M9.2413 9.85181L2.75477 11.4369C2.69158 11.4524 2.65207 11.5196 2.66652 11.5871L2.66653 11.5872C2.68099 11.6547 2.74393 11.6969 2.80712 11.6815L9.29365 10.0963C9.35684 10.0809 9.39635 10.0137 9.3819 9.94614L9.38189 9.94609C9.36743 9.87858 9.30449 9.83637 9.2413 9.85181Z" fill="#292A2E"/>
<path opacity="0.05" d="M9.56622 11.2201L3.07969 12.8052C3.0165 12.8207 2.97699 12.8879 2.99144 12.9554L2.99145 12.9555C3.00591 13.023 3.06885 13.0652 3.13204 13.0498L9.61857 11.4646C9.68177 11.4492 9.72127 11.3819 9.70682 11.3144L9.70681 11.3144C9.69235 11.2469 9.62941 11.2047 9.56622 11.2201Z" fill="#292A2E"/>
<path opacity="0.05" d="M7.18662 13.2708L3.41265 14.2043C3.38229 14.2117 3.35593 14.2317 3.33936 14.2599C3.32278 14.288 3.31737 14.3221 3.32429 14.3545C3.32771 14.3706 3.33407 14.3858 3.34299 14.3992C3.35192 14.4127 3.36323 14.4241 3.3763 14.4329C3.38936 14.4416 3.40391 14.4476 3.41912 14.4503C3.43433 14.4531 3.4499 14.4526 3.46493 14.4489L7.2389 13.5154C7.26926 13.508 7.29563 13.488 7.3122 13.4598C7.32877 13.4316 7.33419 13.3976 7.32726 13.3651C7.32031 13.3327 7.30159 13.3045 7.27522 13.2869C7.24885 13.2692 7.21698 13.2634 7.18662 13.2708Z" fill="#292A2E"/>
<path opacity="0.4" d="M3.08817 6.24957L3.82564 9.48382L1.07745 10.1657L3.08817 6.24957Z" fill="white"/>
<path d="M32.6258 36.2634H7.24578C6.90322 36.2634 6.57469 36.118 6.33246 35.8592C6.09023 35.6005 5.95415 35.2495 5.95413 34.8835L6.83775 4.2746H34.7521L33.9176 34.8835C33.9176 35.0647 33.8842 35.2442 33.8192 35.4116C33.7543 35.579 33.6592 35.7312 33.5392 35.8593C33.4193 35.9874 33.2769 36.0891 33.1202 36.1584C32.9634 36.2278 32.7955 36.2634 32.6258 36.2634Z" fill="#292A2E"/>
<path opacity="0.9" d="M32.6258 36.2634H7.24578C6.90322 36.2634 6.57469 36.118 6.33246 35.8592C6.09023 35.6005 5.95415 35.2495 5.95413 34.8835L6.83775 4.2746H34.7521L33.9176 34.8835C33.9176 35.0647 33.8842 35.2442 33.8192 35.4116C33.7543 35.579 33.6592 35.7312 33.5392 35.8593C33.4193 35.9874 33.2769 36.0891 33.1202 36.1584C32.9634 36.2278 32.7955 36.2634 32.6258 36.2634Z" fill="white"/>
<path d="M32.6258 36.3158H7.24579C6.89031 36.3154 6.54951 36.1643 6.29815 35.8958C6.04679 35.6272 5.9054 35.2632 5.905 34.8834L6.78861 4.22211H34.8011L33.9666 34.8834C33.9662 35.2632 33.8248 35.6272 33.5735 35.8958C33.3221 36.1643 32.9813 36.3154 32.6258 36.3158ZM6.88674 4.327L6.00313 34.8834C6.00351 35.2354 6.13455 35.5728 6.36752 35.8217C6.60048 36.0705 6.91634 36.2105 7.24579 36.2109H32.6258C32.9553 36.2105 33.2711 36.0705 33.504 35.8216C33.737 35.5728 33.868 35.2353 33.8684 34.8834L34.7029 4.327H6.88674Z" fill="#292A2E"/>
<path d="M33.5585 1.23962H8.17848C7.823 1.24004 7.48219 1.39109 7.23083 1.65964C6.97947 1.92818 6.83808 2.29229 6.83769 2.67206L6.7886 4.32708H34.8011L34.8993 2.67206C34.8989 2.29229 34.7575 1.92818 34.5062 1.65964C34.2548 1.39109 33.914 1.24004 33.5585 1.23962Z" fill="#0C0C0C"/>
<path d="M34.0494 1.23962H8.37484C8.01937 1.24004 7.67856 1.39109 7.4272 1.65964C7.17583 1.92818 7.03445 2.29229 7.03406 2.67206V4.32708H35.3902V2.67206C35.3898 2.29229 35.2484 1.92818 34.9971 1.65964C34.7457 1.39109 34.4049 1.24004 34.0494 1.23962Z" fill="#292A2E"/>
<path d="M7.0831 4.27441H35.3411V35.408C35.3411 35.774 35.205 36.125 34.9628 36.3838C34.7205 36.6426 34.392 36.788 34.0494 36.788H8.37484C8.03228 36.788 7.70374 36.6426 7.46151 36.3838C7.21928 36.125 7.0832 35.774 7.0832 35.408V4.27441H7.0831Z" fill="white"/>
<path d="M34.0494 36.8402H8.37484C8.01937 36.8398 7.67857 36.6888 7.42721 36.4202C7.17585 36.1517 7.03446 35.7876 7.03406 35.4078V4.22211H35.3902V35.4078C35.3898 35.7876 35.2484 36.1517 34.9971 36.4202C34.7457 36.6888 34.4049 36.8398 34.0494 36.8402ZM7.13219 4.327V35.4078C7.13257 35.7598 7.26361 36.0972 7.49658 36.3461C7.72954 36.595 8.0454 36.735 8.37484 36.7353H34.0494C34.3789 36.7349 34.6947 36.5949 34.9276 36.3461C35.1606 36.0972 35.2916 35.7598 35.292 35.4078V4.327H7.13219Z" fill="#292A2E"/>
<path d="M12.0886 10.74H9.26799C9.11078 10.7398 8.96005 10.673 8.84888 10.5542C8.73771 10.4355 8.67517 10.2744 8.67499 10.1065V7.09296C8.67517 6.925 8.73771 6.76397 8.84888 6.64521C8.96005 6.52645 9.11078 6.45965 9.26799 6.45947H12.0886C12.2458 6.45967 12.3966 6.52647 12.5077 6.64523C12.6189 6.76399 12.6814 6.92501 12.6816 7.09296V10.1065C12.6814 10.2744 12.6189 10.4354 12.5077 10.5542C12.3966 10.673 12.2458 10.7398 12.0886 10.74ZM9.26799 6.56436C9.13681 6.56452 9.01104 6.62025 8.91827 6.71935C8.82551 6.81845 8.77332 6.95281 8.77317 7.09296V10.1065C8.77332 10.2466 8.82551 10.381 8.91827 10.4801C9.01104 10.5792 9.13681 10.6349 9.26799 10.6351H12.0886C12.2198 10.6349 12.3456 10.5792 12.4383 10.4801C12.5311 10.381 12.5833 10.2466 12.5834 10.1065V7.09296C12.5833 6.95282 12.5311 6.81846 12.4383 6.71937C12.3456 6.62027 12.2198 6.56453 12.0886 6.56436H9.26799Z" fill="#292A2E"/>
<path d="M12.0886 16.7102H9.26799C9.11078 16.71 8.96005 16.6432 8.84888 16.5245C8.73771 16.4057 8.67517 16.2447 8.67499 16.0767V13.0633C8.67512 12.8953 8.73763 12.7342 8.84881 12.6154C8.95998 12.4965 9.11074 12.4297 9.26799 12.4295H12.0886C12.2458 12.4297 12.3966 12.4965 12.5077 12.6153C12.6189 12.7341 12.6814 12.8951 12.6816 13.063V16.0765C12.6815 16.2445 12.619 16.4056 12.5078 16.5244C12.3966 16.6432 12.2459 16.71 12.0886 16.7102ZM9.26799 12.5344C9.1368 12.5346 9.01103 12.5903 8.91827 12.6894C8.82551 12.7885 8.77332 12.9229 8.77317 13.063V16.0765C8.77332 16.2167 8.82551 16.351 8.91827 16.4501C9.01104 16.5492 9.13681 16.6049 9.26799 16.6051H12.0886C12.2198 16.6049 12.3456 16.5492 12.4383 16.4501C12.5311 16.351 12.5833 16.2166 12.5834 16.0765V13.0633C12.5833 12.9231 12.5312 12.7886 12.4384 12.6895C12.3456 12.5903 12.2199 12.5346 12.0886 12.5344H9.26799Z" fill="#292A2E"/>
<path d="M12.0886 22.6805H9.26799C9.11078 22.6803 8.96005 22.6135 8.84888 22.4948C8.73771 22.376 8.67517 22.215 8.67499 22.047V19.0336C8.67517 18.8656 8.73771 18.7046 8.84888 18.5858C8.96005 18.4671 9.11078 18.4003 9.26799 18.4001H12.0886C12.2458 18.4003 12.3966 18.4671 12.5077 18.5858C12.6189 18.7046 12.6814 18.8656 12.6816 19.0336V22.047C12.6814 22.215 12.6189 22.376 12.5077 22.4948C12.3966 22.6135 12.2458 22.6803 12.0886 22.6805ZM9.26799 18.505C9.13681 18.5051 9.01104 18.5609 8.91827 18.66C8.82551 18.7591 8.77332 18.8934 8.77317 19.0336V22.047C8.77332 22.1872 8.82551 22.3215 8.91827 22.4206C9.01104 22.5197 9.13681 22.5755 9.26799 22.5756H12.0886C12.2198 22.5755 12.3456 22.5197 12.4383 22.4206C12.5311 22.3215 12.5833 22.1872 12.5834 22.047V19.0336C12.5833 18.8934 12.5311 18.7591 12.4383 18.66C12.3456 18.5609 12.2198 18.5051 12.0886 18.505H9.26799Z" fill="#292A2E"/>
<path d="M12.0886 28.5687H9.26799C9.11078 28.5685 8.96005 28.5017 8.84888 28.383C8.73771 28.2642 8.67517 28.1032 8.67499 27.9352V24.922C8.67517 24.754 8.73771 24.593 8.84888 24.4742C8.96005 24.3555 9.11077 24.2886 9.26799 24.2885H12.0886C12.2458 24.2886 12.3966 24.3555 12.5077 24.4742C12.6189 24.593 12.6814 24.754 12.6816 24.922V27.9354C12.6814 28.1034 12.6188 28.2643 12.5076 28.383C12.3965 28.5018 12.2458 28.5685 12.0886 28.5687ZM9.26799 24.3931C9.1368 24.3933 9.01102 24.449 8.91826 24.5481C8.82549 24.6472 8.77331 24.7816 8.77317 24.9218V27.9352C8.77332 28.0754 8.82551 28.2098 8.91827 28.3088C9.01104 28.4079 9.13681 28.4637 9.26799 28.4638H12.0886C12.2198 28.4637 12.3456 28.4079 12.4383 28.3088C12.5311 28.2097 12.5833 28.0754 12.5834 27.9352V24.922C12.5833 24.7818 12.5311 24.6475 12.4384 24.5484C12.3456 24.4492 12.2198 24.3935 12.0886 24.3933L9.26799 24.3931Z" fill="#292A2E"/>
<path d="M12.0886 34.457H9.26799C9.11077 34.4568 8.96005 34.39 8.84888 34.2712C8.73771 34.1524 8.67517 33.9914 8.67499 33.8235V30.81C8.67517 30.642 8.73771 30.481 8.84888 30.3622C8.96005 30.2435 9.11077 30.1766 9.26799 30.1765H12.0886C12.2458 30.1766 12.3966 30.2435 12.5077 30.3622C12.6189 30.481 12.6814 30.642 12.6816 30.81V33.8235C12.6814 33.9914 12.6189 34.1524 12.5077 34.2712C12.3966 34.39 12.2458 34.4568 12.0886 34.457ZM9.26799 30.2813C9.1368 30.2815 9.01103 30.3373 8.91827 30.4364C8.82551 30.5355 8.77332 30.6698 8.77317 30.81V33.8235C8.77332 33.9636 8.82551 34.098 8.91827 34.1971C9.01103 34.2962 9.1368 34.3519 9.26799 34.3521H12.0886C12.2198 34.3519 12.3456 34.2962 12.4383 34.1971C12.5311 34.098 12.5833 33.9636 12.5834 33.8235V30.81C12.5833 30.6698 12.5311 30.5355 12.4383 30.4364C12.3456 30.3373 12.2198 30.2815 12.0886 30.2813H9.26799Z" fill="#292A2E"/>
<path d="M10.1764 9.80537C10.1257 9.80543 10.0769 9.78442 10.0404 9.74678L9.21824 8.90241C9.19937 8.8834 9.18421 8.86057 9.17364 8.83526C9.16308 8.80995 9.15731 8.78265 9.15667 8.75494C9.15604 8.72723 9.16055 8.69966 9.16995 8.67383C9.17934 8.64799 9.19344 8.6244 9.21142 8.60442C9.2294 8.58444 9.25091 8.56846 9.2747 8.55742C9.29849 8.54637 9.3241 8.54046 9.35004 8.54005C9.37598 8.53963 9.40174 8.54472 9.42583 8.555C9.44992 8.56528 9.47187 8.58057 9.4904 8.59996L10.1731 9.301L11.8847 7.45629C11.9028 7.43639 11.9244 7.42052 11.9483 7.4096C11.9721 7.39868 11.9978 7.39292 12.0237 7.39265C12.0497 7.39238 12.0754 7.39761 12.0995 7.40804C12.1235 7.41848 12.1454 7.4339 12.1638 7.45342C12.1823 7.47293 12.1969 7.49617 12.2069 7.52176C12.2169 7.54736 12.222 7.57482 12.222 7.60255C12.222 7.63028 12.2168 7.65773 12.2068 7.68332C12.1968 7.7089 12.1821 7.73211 12.1637 7.75161L10.3162 9.74322C10.298 9.76297 10.2762 9.77864 10.2522 9.78931C10.2282 9.79998 10.2024 9.80544 10.1764 9.80537Z" fill="#367CFF"/>
<path d="M10.1764 15.7755C10.1257 15.7755 10.0769 15.7545 10.0404 15.7169L9.21825 14.8725C9.1807 14.834 9.15903 14.781 9.158 14.7254C9.15697 14.6698 9.17666 14.616 9.21275 14.5759C9.24884 14.5358 9.29837 14.5126 9.35044 14.5115C9.40251 14.5104 9.45286 14.5315 9.4904 14.57L10.1731 15.271L11.8848 13.4264C11.9215 13.3876 11.9712 13.3658 12.0229 13.3658C12.0746 13.3659 12.1243 13.3877 12.161 13.4266C12.1978 13.4655 12.2187 13.5183 12.2191 13.5736C12.2196 13.6289 12.1997 13.6821 12.1637 13.7218L10.3162 15.7134C10.298 15.7331 10.2762 15.7488 10.2522 15.7594C10.2282 15.7701 10.2024 15.7755 10.1764 15.7755Z" fill="#367CFF"/>
<path d="M10.1764 21.7459C10.1257 21.746 10.0769 21.725 10.0404 21.6874L9.21825 20.843C9.1807 20.8045 9.15903 20.7515 9.158 20.6959C9.15697 20.6403 9.17666 20.5865 9.21275 20.5464C9.24884 20.5063 9.29837 20.4831 9.35044 20.482C9.40251 20.4809 9.45286 20.502 9.4904 20.5405L10.1731 21.2416L11.8848 19.3968C11.9215 19.358 11.9712 19.3362 12.0229 19.3362C12.0746 19.3363 12.1243 19.3581 12.161 19.397C12.1978 19.4359 12.2187 19.4887 12.2191 19.544C12.2196 19.5993 12.1997 19.6525 12.1637 19.6922L10.3162 21.6838C10.298 21.7035 10.2762 21.7192 10.2522 21.7299C10.2282 21.7405 10.2024 21.746 10.1764 21.7459Z" fill="#367CFF"/>
<path opacity="0.5" d="M33.2204 7.66663H14.2233C14.1476 7.66663 14.0862 7.73216 14.0862 7.813C14.0862 7.89384 14.1476 7.95938 14.2233 7.95938H33.2204C33.296 7.95938 33.3574 7.89384 33.3574 7.813C33.3574 7.73216 33.296 7.66663 33.2204 7.66663Z" fill="#262626"/>
<path opacity="0.5" d="M25.366 9.23999H14.2233C14.1476 9.23999 14.0862 9.30552 14.0862 9.38637C14.0862 9.46721 14.1476 9.53274 14.2233 9.53274H25.366C25.4417 9.53274 25.503 9.46721 25.503 9.38637C25.503 9.30552 25.4417 9.23999 25.366 9.23999Z" fill="#262626"/>
<path opacity="0.5" d="M33.2204 13.6368H14.2233C14.1476 13.6368 14.0862 13.7024 14.0862 13.7832C14.0862 13.8641 14.1476 13.9296 14.2233 13.9296H33.2204C33.296 13.9296 33.3574 13.8641 33.3574 13.7832C33.3574 13.7024 33.296 13.6368 33.2204 13.6368Z" fill="#262626"/>
<path opacity="0.5" d="M25.366 15.2104H14.2233C14.1476 15.2104 14.0862 15.2759 14.0862 15.3568C14.0862 15.4376 14.1476 15.5031 14.2233 15.5031H25.366C25.4417 15.5031 25.503 15.4376 25.503 15.3568C25.503 15.2759 25.4417 15.2104 25.366 15.2104Z" fill="#262626"/>
<path opacity="0.5" d="M33.2204 19.6072H14.2233C14.1476 19.6072 14.0862 19.6728 14.0862 19.7536C14.0862 19.8345 14.1476 19.9 14.2233 19.9H33.2204C33.296 19.9 33.3574 19.8345 33.3574 19.7536C33.3574 19.6728 33.296 19.6072 33.2204 19.6072Z" fill="#262626"/>
<path opacity="0.5" d="M25.366 21.1807H14.2233C14.1476 21.1807 14.0862 21.2462 14.0862 21.327C14.0862 21.4079 14.1476 21.4734 14.2233 21.4734H25.366C25.4417 21.4734 25.503 21.4079 25.503 21.327C25.503 21.2462 25.4417 21.1807 25.366 21.1807Z" fill="#262626"/>
<path opacity="0.5" d="M33.2204 25.4954H14.2233C14.1476 25.4954 14.0862 25.561 14.0862 25.6418C14.0862 25.7226 14.1476 25.7882 14.2233 25.7882H33.2204C33.296 25.7882 33.3574 25.7226 33.3574 25.6418C33.3574 25.561 33.296 25.4954 33.2204 25.4954Z" fill="#262626"/>
<path opacity="0.5" d="M25.366 27.0688H14.2233C14.1476 27.0688 14.0862 27.1343 14.0862 27.2152C14.0862 27.296 14.1476 27.3615 14.2233 27.3615H25.366C25.4417 27.3615 25.503 27.296 25.503 27.2152C25.503 27.1343 25.4417 27.0688 25.366 27.0688Z" fill="#262626"/>
<path opacity="0.5" d="M33.2204 31.3836H14.2233C14.1476 31.3836 14.0862 31.4491 14.0862 31.53C14.0862 31.6108 14.1476 31.6764 14.2233 31.6764H33.2204C33.296 31.6764 33.3574 31.6108 33.3574 31.53C33.3574 31.4491 33.296 31.3836 33.2204 31.3836Z" fill="#262626"/>
<path opacity="0.5" d="M25.366 32.957H14.2233C14.1476 32.957 14.0862 33.0225 14.0862 33.1033C14.0862 33.1842 14.1476 33.2497 14.2233 33.2497H25.366C25.4417 33.2497 25.503 33.1842 25.503 33.1033C25.503 33.0225 25.4417 32.957 25.366 32.957Z" fill="#262626"/>
<path d="M10.4787 3.12746e-08C10.171 0.000374811 9.87614 0.13109 9.65863 0.363468C9.44112 0.595847 9.31877 0.910913 9.31842 1.23955H9.4166C9.41658 1.0218 9.4752 0.808652 9.58546 0.62553C9.69573 0.442408 9.85299 0.29705 10.0385 0.206804C10.224 0.116557 10.4298 0.0852341 10.6315 0.116572C10.8332 0.147911 11.0222 0.240587 11.1759 0.38354C11.3297 0.526494 11.4416 0.713687 11.4985 0.922779C11.5554 1.13187 11.5548 1.35403 11.4967 1.56275C11.4386 1.77146 11.3255 1.95792 11.171 2.09986C11.0164 2.2418 10.8269 2.33323 10.625 2.36324C10.608 2.32579 10.579 2.29608 10.5433 2.27948C10.5076 2.26288 10.4675 2.26049 10.4302 2.27275C10.393 2.285 10.3611 2.31109 10.3403 2.34629C10.3195 2.38149 10.3112 2.42348 10.3169 2.46467C10.3226 2.50585 10.3418 2.5435 10.3712 2.57081C10.4006 2.59812 10.4382 2.61329 10.4772 2.61357C10.5161 2.61385 10.5539 2.59922 10.5836 2.57233C10.6134 2.54545 10.6331 2.50807 10.6393 2.46698C10.9303 2.42358 11.195 2.26385 11.3801 2.02005C11.5651 1.77625 11.6566 1.46653 11.6363 1.15341C11.6159 0.84029 11.485 0.547098 11.2702 0.333022C11.0553 0.118946 10.7724 -7.04368e-05 10.4787 3.12746e-08Z" fill="#F4F4F4"/>
<path d="M33.1058 1.23955C33.1058 0.910798 32.9836 0.595514 32.766 0.363055C32.5484 0.130595 32.2533 0 31.9456 0C31.6379 0 31.3428 0.130595 31.1252 0.363055C30.9076 0.595514 30.7853 0.910798 30.7853 1.23955H30.8835C30.8835 1.0218 30.9421 0.808652 31.0524 0.62553C31.1627 0.442408 31.3199 0.29705 31.5054 0.206804C31.6909 0.116557 31.8967 0.0852341 32.0984 0.116572C32.3001 0.147911 32.4891 0.240587 32.6428 0.38354C32.7966 0.526494 32.9086 0.713687 32.9654 0.922779C33.0223 1.13187 33.0217 1.35403 32.9636 1.56275C32.9055 1.77146 32.7925 1.95792 32.6379 2.09986C32.4833 2.2418 32.2938 2.33323 32.092 2.36324C32.075 2.32579 32.046 2.29608 32.0102 2.27948C31.9745 2.26288 31.9344 2.26049 31.8972 2.27275C31.8599 2.285 31.828 2.31109 31.8072 2.34629C31.7864 2.38149 31.7781 2.42348 31.7838 2.46467C31.7895 2.50585 31.8088 2.5435 31.8382 2.57081C31.8676 2.59812 31.9051 2.61329 31.9441 2.61357C31.9831 2.61385 32.0208 2.59922 32.0506 2.57233C32.0803 2.54545 32.1001 2.50807 32.1062 2.46698C32.3833 2.42523 32.6369 2.2781 32.8205 2.05261C33.0041 1.82713 33.1054 1.53843 33.1058 1.23955Z" fill="#F4F4F4"/>
<path d="M30.0391 1.23953C30.0372 0.912173 29.914 0.598948 29.6967 0.36822C29.4793 0.137491 29.1853 0.00799561 28.8789 0.00799561C28.5725 0.00799561 28.2785 0.137491 28.0611 0.36822C27.8437 0.598948 27.7206 0.912173 27.7186 1.23953H27.8168C27.8168 1.02177 27.8754 0.808604 27.9857 0.625465C28.0959 0.442325 28.2532 0.296951 28.4387 0.206693C28.6242 0.116435 28.8301 0.0851056 29.0318 0.116443C29.2335 0.147781 29.4225 0.240462 29.5762 0.383426C29.73 0.526389 29.8419 0.713596 29.8988 0.922704C29.9557 1.13181 29.9551 1.35399 29.897 1.56272C29.8389 1.77144 29.7258 1.95791 29.5712 2.09985C29.4167 2.24179 29.2271 2.33322 29.0252 2.36323C29.0082 2.32577 28.9793 2.29606 28.9435 2.27946C28.9078 2.26287 28.8677 2.26048 28.8305 2.27273C28.7932 2.28499 28.7613 2.31108 28.7405 2.34628C28.7197 2.38148 28.7114 2.42347 28.7171 2.46465C28.7228 2.50583 28.742 2.54348 28.7714 2.5708C28.8008 2.59811 28.8384 2.61328 28.8774 2.61356C28.9163 2.61384 28.9541 2.59921 28.9839 2.57232C29.0136 2.54543 29.0333 2.50806 29.0395 2.46696C29.3166 2.42523 29.5702 2.2781 29.7538 2.05261C29.9375 1.82713 30.0388 1.53842 30.0391 1.23953Z" fill="#F4F4F4"/>
<path d="M26.9724 1.23953C26.9704 0.912173 26.8473 0.598948 26.6299 0.36822C26.4126 0.137491 26.1186 0.00799561 25.8122 0.00799561C25.5058 0.00799561 25.2118 0.137491 24.9944 0.36822C24.777 0.598948 24.6539 0.912173 24.6519 1.23953H24.7501C24.7501 1.02179 24.8087 0.808631 24.9189 0.625502C25.0292 0.442373 25.1865 0.297006 25.3719 0.206746C25.5574 0.116487 25.7633 0.0851475 25.965 0.116469C26.1667 0.14779 26.3557 0.240449 26.5094 0.383387C26.6632 0.526326 26.7752 0.713508 26.8321 0.922595C26.889 1.13168 26.8884 1.35385 26.8303 1.56257C26.7723 1.7713 26.6592 1.95777 26.5047 2.09974C26.3502 2.24171 26.1606 2.33317 25.9588 2.36323C25.9418 2.32577 25.9128 2.29606 25.8771 2.27946C25.8413 2.26287 25.8012 2.26048 25.764 2.27273C25.7268 2.28499 25.6949 2.31108 25.6741 2.34628C25.6533 2.38148 25.645 2.42347 25.6506 2.46465C25.6563 2.50583 25.6756 2.54348 25.705 2.5708C25.7344 2.59811 25.772 2.61328 25.8109 2.61356C25.8499 2.61384 25.8876 2.59921 25.9174 2.57232C25.9471 2.54543 25.9669 2.50806 25.9731 2.46696C26.25 2.42517 26.5036 2.27802 26.6872 2.05254C26.8708 1.82705 26.9721 1.53838 26.9724 1.23953Z" fill="#F4F4F4"/>
<path d="M23.9057 1.23955C23.9057 0.910798 23.7835 0.595514 23.5659 0.363055C23.3483 0.130595 23.0532 0 22.7455 0C22.4378 0 22.1427 0.130595 21.9251 0.363055C21.7075 0.595514 21.5853 0.910798 21.5853 1.23955H21.6834C21.6834 1.0218 21.742 0.808652 21.8523 0.62553C21.9626 0.442408 22.1198 0.29705 22.3053 0.206804C22.4908 0.116557 22.6967 0.0852341 22.8984 0.116572C23.1 0.147911 23.289 0.240587 23.4428 0.38354C23.5965 0.526494 23.7085 0.713687 23.7654 0.922779C23.8222 1.13187 23.8216 1.35403 23.7635 1.56275C23.7054 1.77146 23.5924 1.95792 23.4378 2.09986C23.2833 2.2418 23.0938 2.33323 22.8919 2.36324C22.8749 2.32576 22.8459 2.29602 22.8102 2.2794C22.7744 2.26277 22.7343 2.26036 22.6971 2.2726C22.6598 2.28483 22.6279 2.31091 22.6071 2.34611C22.5863 2.38132 22.5779 2.42332 22.5836 2.46451C22.5892 2.50571 22.6085 2.54339 22.6379 2.57073C22.6673 2.59806 22.7049 2.61325 22.7439 2.61355C22.7828 2.61385 22.8206 2.59923 22.8504 2.57235C22.8801 2.54546 22.8999 2.50808 22.9061 2.46698C23.1831 2.42524 23.4368 2.27811 23.6204 2.05263C23.804 1.82714 23.9054 1.53843 23.9057 1.23955Z" fill="#F4F4F4"/>
<path d="M20.839 1.23953C20.837 0.912173 20.7139 0.598948 20.4966 0.36822C20.2792 0.137491 19.9852 0.00799561 19.6788 0.00799561C19.3724 0.00799561 19.0784 0.137491 18.861 0.36822C18.6436 0.598948 18.5205 0.912173 18.5185 1.23953H18.6167C18.6167 1.02177 18.6753 0.808604 18.7856 0.625465C18.8958 0.442325 19.0531 0.296951 19.2386 0.206693C19.4241 0.116435 19.63 0.0851056 19.8317 0.116443C20.0334 0.147781 20.2224 0.240462 20.3761 0.383426C20.5299 0.526389 20.6418 0.713596 20.6987 0.922704C20.7556 1.13181 20.755 1.35399 20.6969 1.56272C20.6388 1.77144 20.5257 1.95791 20.3711 2.09985C20.2166 2.24179 20.027 2.33322 19.8251 2.36323C19.8081 2.32577 19.7792 2.29606 19.7434 2.27946C19.7077 2.26287 19.6676 2.26048 19.6303 2.27273C19.5931 2.28499 19.5612 2.31108 19.5404 2.34628C19.5196 2.38148 19.5113 2.42347 19.517 2.46465C19.5227 2.50583 19.5419 2.54348 19.5713 2.5708C19.6007 2.59811 19.6383 2.61328 19.6773 2.61356C19.7162 2.61384 19.754 2.59921 19.7837 2.57232C19.8135 2.54543 19.8332 2.50806 19.8394 2.46696C20.1165 2.42523 20.3701 2.2781 20.5537 2.05261C20.7373 1.82713 20.8387 1.53842 20.839 1.23953Z" fill="#F4F4F4"/>
<path d="M17.7723 1.23955C17.7723 0.910798 17.65 0.595514 17.4325 0.363055C17.2149 0.130595 16.9198 0 16.612 0C16.3043 0 16.0092 0.130595 15.7916 0.363055C15.5741 0.595514 15.4518 0.910798 15.4518 1.23955H15.55C15.55 1.0218 15.6086 0.808652 15.7189 0.62553C15.8291 0.442408 15.9864 0.29705 16.1719 0.206804C16.3573 0.116557 16.5632 0.085234 16.7649 0.116572C16.9666 0.147911 17.1556 0.240587 17.3093 0.38354C17.463 0.526494 17.575 0.713687 17.6319 0.922779C17.6888 1.13187 17.6881 1.35403 17.6301 1.56275C17.572 1.77146 17.4589 1.95792 17.3044 2.09986C17.1498 2.2418 16.9603 2.33323 16.7584 2.36324C16.7414 2.32576 16.7125 2.29602 16.6767 2.2794C16.641 2.26277 16.6009 2.26036 16.5636 2.2726C16.5264 2.28483 16.4944 2.31091 16.4736 2.34611C16.4528 2.38132 16.4445 2.42332 16.4501 2.46451C16.4558 2.50571 16.4751 2.54339 16.5044 2.57073C16.5338 2.59806 16.5714 2.61325 16.6104 2.61355C16.6494 2.61385 16.6872 2.59923 16.7169 2.57235C16.7467 2.54546 16.7665 2.50808 16.7727 2.46698C17.0497 2.42524 17.3033 2.27811 17.487 2.05263C17.6706 1.82714 17.7719 1.53843 17.7723 1.23955Z" fill="#F4F4F4"/>
<path d="M14.7056 1.23953C14.7036 0.912173 14.5805 0.598948 14.3631 0.36822C14.1458 0.137491 13.8518 0.00799561 13.5454 0.00799561C13.2389 0.00799561 12.945 0.137491 12.7276 0.36822C12.5102 0.598948 12.3871 0.912173 12.3851 1.23953H12.4833C12.4832 1.02177 12.5419 0.808604 12.6521 0.625465C12.7624 0.442325 12.9197 0.296951 13.1052 0.206693C13.2906 0.116435 13.4965 0.0851056 13.6982 0.116443C13.8999 0.147781 14.0889 0.240462 14.2427 0.383426C14.3964 0.526389 14.5084 0.713596 14.5653 0.922704C14.6222 1.13181 14.6215 1.35399 14.5634 1.56272C14.5054 1.77144 14.3923 1.95791 14.2377 2.09985C14.0831 2.24179 13.8936 2.33322 13.6917 2.36323C13.6747 2.32577 13.6457 2.29606 13.61 2.27946C13.5743 2.26287 13.5342 2.26048 13.4969 2.27273C13.4597 2.28499 13.4278 2.31108 13.407 2.34628C13.3862 2.38148 13.3779 2.42347 13.3836 2.46465C13.3892 2.50583 13.4085 2.54348 13.4379 2.5708C13.4673 2.59811 13.5049 2.61328 13.5439 2.61356C13.5828 2.61384 13.6206 2.59921 13.6503 2.57232C13.6801 2.54543 13.6998 2.50806 13.706 2.46696C13.983 2.42523 14.2367 2.2781 14.4203 2.05261C14.6039 1.82713 14.7052 1.53842 14.7056 1.23953Z" fill="#F4F4F4"/>
<g opacity="0.6">
<path d="M10.4787 3.12746e-08C10.171 0.000374811 9.87614 0.13109 9.65863 0.363468C9.44112 0.595847 9.31877 0.910913 9.31842 1.23955H9.4166C9.41658 1.0218 9.4752 0.808652 9.58546 0.62553C9.69573 0.442408 9.85299 0.29705 10.0385 0.206804C10.224 0.116557 10.4298 0.0852341 10.6315 0.116572C10.8332 0.147911 11.0222 0.240587 11.1759 0.38354C11.3297 0.526494 11.4416 0.713687 11.4985 0.922779C11.5554 1.13187 11.5548 1.35403 11.4967 1.56275C11.4386 1.77146 11.3255 1.95792 11.171 2.09986C11.0164 2.2418 10.8269 2.33323 10.625 2.36324C10.608 2.32579 10.579 2.29608 10.5433 2.27948C10.5076 2.26288 10.4675 2.26049 10.4302 2.27275C10.393 2.285 10.3611 2.31109 10.3403 2.34629C10.3195 2.38149 10.3112 2.42348 10.3169 2.46467C10.3226 2.50585 10.3418 2.5435 10.3712 2.57081C10.4006 2.59812 10.4382 2.61329 10.4772 2.61357C10.5161 2.61385 10.5539 2.59922 10.5836 2.57233C10.6134 2.54545 10.6331 2.50807 10.6393 2.46698C10.9303 2.42358 11.195 2.26385 11.3801 2.02005C11.5651 1.77625 11.6566 1.46653 11.6363 1.15341C11.6159 0.84029 11.485 0.547098 11.2702 0.333022C11.0553 0.118946 10.7724 -7.04368e-05 10.4787 3.12746e-08Z" fill="#292A2E"/>
<path d="M33.1058 1.23955C33.1058 0.910798 32.9836 0.595514 32.766 0.363055C32.5484 0.130595 32.2533 0 31.9456 0C31.6379 0 31.3428 0.130595 31.1252 0.363055C30.9076 0.595514 30.7853 0.910798 30.7853 1.23955H30.8835C30.8835 1.0218 30.9421 0.808652 31.0524 0.62553C31.1627 0.442408 31.3199 0.29705 31.5054 0.206804C31.6909 0.116557 31.8967 0.0852341 32.0984 0.116572C32.3001 0.147911 32.4891 0.240587 32.6428 0.38354C32.7966 0.526494 32.9086 0.713687 32.9654 0.922779C33.0223 1.13187 33.0217 1.35403 32.9636 1.56275C32.9055 1.77146 32.7925 1.95792 32.6379 2.09986C32.4833 2.2418 32.2938 2.33323 32.092 2.36324C32.075 2.32579 32.046 2.29608 32.0102 2.27948C31.9745 2.26288 31.9344 2.26049 31.8972 2.27275C31.8599 2.285 31.828 2.31109 31.8072 2.34629C31.7864 2.38149 31.7781 2.42348 31.7838 2.46467C31.7895 2.50585 31.8088 2.5435 31.8382 2.57081C31.8676 2.59812 31.9051 2.61329 31.9441 2.61357C31.9831 2.61385 32.0208 2.59922 32.0506 2.57233C32.0803 2.54545 32.1001 2.50807 32.1062 2.46698C32.3833 2.42523 32.6369 2.2781 32.8205 2.05261C33.0041 1.82713 33.1054 1.53843 33.1058 1.23955Z" fill="#292A2E"/>
<path d="M30.0391 1.23953C30.0372 0.912173 29.914 0.598948 29.6967 0.36822C29.4793 0.137491 29.1853 0.00799561 28.8789 0.00799561C28.5725 0.00799561 28.2785 0.137491 28.0611 0.36822C27.8437 0.598948 27.7206 0.912173 27.7186 1.23953H27.8168C27.8168 1.02177 27.8754 0.808604 27.9857 0.625465C28.0959 0.442325 28.2532 0.296951 28.4387 0.206693C28.6242 0.116435 28.8301 0.0851056 29.0318 0.116443C29.2335 0.147781 29.4225 0.240462 29.5762 0.383426C29.73 0.526389 29.8419 0.713596 29.8988 0.922704C29.9557 1.13181 29.9551 1.35399 29.897 1.56272C29.8389 1.77144 29.7258 1.95791 29.5712 2.09985C29.4167 2.24179 29.2271 2.33322 29.0252 2.36323C29.0082 2.32577 28.9793 2.29606 28.9435 2.27946C28.9078 2.26287 28.8677 2.26048 28.8305 2.27273C28.7932 2.28499 28.7613 2.31108 28.7405 2.34628C28.7197 2.38148 28.7114 2.42347 28.7171 2.46465C28.7228 2.50583 28.742 2.54348 28.7714 2.5708C28.8008 2.59811 28.8384 2.61328 28.8774 2.61356C28.9163 2.61384 28.9541 2.59921 28.9839 2.57232C29.0136 2.54543 29.0333 2.50806 29.0395 2.46696C29.3166 2.42523 29.5702 2.2781 29.7538 2.05261C29.9375 1.82713 30.0388 1.53842 30.0391 1.23953Z" fill="#292A2E"/>
<path d="M26.9724 1.23953C26.9704 0.912173 26.8473 0.598948 26.6299 0.36822C26.4126 0.137491 26.1186 0.00799561 25.8122 0.00799561C25.5058 0.00799561 25.2118 0.137491 24.9944 0.36822C24.777 0.598948 24.6539 0.912173 24.6519 1.23953H24.7501C24.7501 1.02179 24.8087 0.808631 24.9189 0.625502C25.0292 0.442373 25.1865 0.297006 25.3719 0.206746C25.5574 0.116487 25.7633 0.0851475 25.965 0.116469C26.1667 0.14779 26.3557 0.240449 26.5094 0.383387C26.6632 0.526326 26.7752 0.713508 26.8321 0.922595C26.889 1.13168 26.8884 1.35385 26.8303 1.56257C26.7723 1.7713 26.6592 1.95777 26.5047 2.09974C26.3502 2.24171 26.1606 2.33317 25.9588 2.36323C25.9418 2.32577 25.9128 2.29606 25.8771 2.27946C25.8413 2.26287 25.8012 2.26048 25.764 2.27273C25.7268 2.28499 25.6949 2.31108 25.6741 2.34628C25.6533 2.38148 25.645 2.42347 25.6506 2.46465C25.6563 2.50583 25.6756 2.54348 25.705 2.5708C25.7344 2.59811 25.772 2.61328 25.8109 2.61356C25.8499 2.61384 25.8876 2.59921 25.9174 2.57232C25.9471 2.54543 25.9669 2.50806 25.9731 2.46696C26.25 2.42517 26.5036 2.27802 26.6872 2.05254C26.8708 1.82705 26.9721 1.53838 26.9724 1.23953Z" fill="#292A2E"/>
<path d="M23.9057 1.23955C23.9057 0.910798 23.7835 0.595514 23.5659 0.363055C23.3483 0.130595 23.0532 0 22.7455 0C22.4378 0 22.1427 0.130595 21.9251 0.363055C21.7075 0.595514 21.5853 0.910798 21.5853 1.23955H21.6834C21.6834 1.0218 21.742 0.808652 21.8523 0.62553C21.9626 0.442408 22.1198 0.29705 22.3053 0.206804C22.4908 0.116557 22.6967 0.0852341 22.8984 0.116572C23.1 0.147911 23.289 0.240587 23.4428 0.38354C23.5965 0.526494 23.7085 0.713687 23.7654 0.922779C23.8222 1.13187 23.8216 1.35403 23.7635 1.56275C23.7054 1.77146 23.5924 1.95792 23.4378 2.09986C23.2833 2.2418 23.0938 2.33323 22.8919 2.36324C22.8749 2.32576 22.8459 2.29602 22.8102 2.2794C22.7744 2.26277 22.7343 2.26036 22.6971 2.2726C22.6598 2.28483 22.6279 2.31091 22.6071 2.34611C22.5863 2.38132 22.5779 2.42332 22.5836 2.46451C22.5892 2.50571 22.6085 2.54339 22.6379 2.57073C22.6673 2.59806 22.7049 2.61325 22.7439 2.61355C22.7828 2.61385 22.8206 2.59923 22.8504 2.57235C22.8801 2.54546 22.8999 2.50808 22.9061 2.46698C23.1831 2.42524 23.4368 2.27811 23.6204 2.05263C23.804 1.82714 23.9054 1.53843 23.9057 1.23955Z" fill="#292A2E"/>
<path d="M20.839 1.23953C20.837 0.912173 20.7139 0.598948 20.4966 0.36822C20.2792 0.137491 19.9852 0.00799561 19.6788 0.00799561C19.3724 0.00799561 19.0784 0.137491 18.861 0.36822C18.6436 0.598948 18.5205 0.912173 18.5185 1.23953H18.6167C18.6167 1.02177 18.6753 0.808604 18.7856 0.625465C18.8958 0.442325 19.0531 0.296951 19.2386 0.206693C19.4241 0.116435 19.63 0.0851056 19.8317 0.116443C20.0334 0.147781 20.2224 0.240462 20.3761 0.383426C20.5299 0.526389 20.6418 0.713596 20.6987 0.922704C20.7556 1.13181 20.755 1.35399 20.6969 1.56272C20.6388 1.77144 20.5257 1.95791 20.3711 2.09985C20.2166 2.24179 20.027 2.33322 19.8251 2.36323C19.8081 2.32577 19.7792 2.29606 19.7434 2.27946C19.7077 2.26287 19.6676 2.26048 19.6303 2.27273C19.5931 2.28499 19.5612 2.31108 19.5404 2.34628C19.5196 2.38148 19.5113 2.42347 19.517 2.46465C19.5227 2.50583 19.5419 2.54348 19.5713 2.5708C19.6007 2.59811 19.6383 2.61328 19.6773 2.61356C19.7162 2.61384 19.754 2.59921 19.7837 2.57232C19.8135 2.54543 19.8332 2.50806 19.8394 2.46696C20.1165 2.42523 20.3701 2.2781 20.5537 2.05261C20.7373 1.82713 20.8387 1.53842 20.839 1.23953Z" fill="#292A2E"/>
<path d="M17.7723 1.23955C17.7723 0.910798 17.65 0.595514 17.4325 0.363055C17.2149 0.130595 16.9198 0 16.612 0C16.3043 0 16.0092 0.130595 15.7916 0.363055C15.5741 0.595514 15.4518 0.910798 15.4518 1.23955H15.55C15.55 1.0218 15.6086 0.808652 15.7189 0.62553C15.8291 0.442408 15.9864 0.29705 16.1719 0.206804C16.3573 0.116557 16.5632 0.085234 16.7649 0.116572C16.9666 0.147911 17.1556 0.240587 17.3093 0.38354C17.463 0.526494 17.575 0.713687 17.6319 0.922779C17.6888 1.13187 17.6881 1.35403 17.6301 1.56275C17.572 1.77146 17.4589 1.95792 17.3044 2.09986C17.1498 2.2418 16.9603 2.33323 16.7584 2.36324C16.7414 2.32576 16.7125 2.29602 16.6767 2.2794C16.641 2.26277 16.6009 2.26036 16.5636 2.2726C16.5264 2.28483 16.4944 2.31091 16.4736 2.34611C16.4528 2.38132 16.4445 2.42332 16.4501 2.46451C16.4558 2.50571 16.4751 2.54339 16.5044 2.57073C16.5338 2.59806 16.5714 2.61325 16.6104 2.61355C16.6494 2.61385 16.6872 2.59923 16.7169 2.57235C16.7467 2.54546 16.7665 2.50808 16.7727 2.46698C17.0497 2.42524 17.3033 2.27811 17.487 2.05263C17.6706 1.82714 17.7719 1.53843 17.7723 1.23955Z" fill="#292A2E"/>
<path d="M14.7056 1.23953C14.7036 0.912173 14.5805 0.598948 14.3631 0.36822C14.1458 0.137491 13.8518 0.00799561 13.5454 0.00799561C13.2389 0.00799561 12.945 0.137491 12.7276 0.36822C12.5102 0.598948 12.3871 0.912173 12.3851 1.23953H12.4833C12.4832 1.02177 12.5419 0.808604 12.6521 0.625465C12.7624 0.442325 12.9197 0.296951 13.1052 0.206693C13.2906 0.116435 13.4965 0.0851056 13.6982 0.116443C13.8999 0.147781 14.0889 0.240462 14.2427 0.383426C14.3964 0.526389 14.5084 0.713596 14.5653 0.922704C14.6222 1.13181 14.6215 1.35399 14.5634 1.56272C14.5054 1.77144 14.3923 1.95791 14.2377 2.09985C14.0831 2.24179 13.8936 2.33322 13.6917 2.36323C13.6747 2.32577 13.6457 2.29606 13.61 2.27946C13.5743 2.26287 13.5342 2.26048 13.4969 2.27273C13.4597 2.28499 13.4278 2.31108 13.407 2.34628C13.3862 2.38148 13.3779 2.42347 13.3836 2.46465C13.3892 2.50583 13.4085 2.54348 13.4379 2.5708C13.4673 2.59811 13.5049 2.61328 13.5439 2.61356C13.5828 2.61384 13.6206 2.59921 13.6503 2.57232C13.6801 2.54543 13.6998 2.50806 13.706 2.46696C13.983 2.42523 14.2367 2.2781 14.4203 2.05261C14.6039 1.82713 14.7052 1.53842 14.7056 1.23953Z" fill="#292A2E"/>
</g>
<path d="M4.19239 38.0123C4.18594 38.0123 4.17955 38.011 4.17359 38.0084C4.16764 38.0057 4.16223 38.0018 4.15768 37.997C4.08852 37.9231 3.97576 36.5674 3.67209 32.5309C3.54784 30.8793 3.43047 29.3193 3.34481 28.3712C3.33872 28.3035 3.31413 28.2957 3.30607 28.2931C3.1888 28.2553 2.83226 28.5556 2.6332 28.8187C2.62915 28.8241 2.62414 28.8285 2.61848 28.8318C2.61281 28.8351 2.6066 28.8372 2.60018 28.8379C2.59377 28.8386 2.58728 28.838 2.5811 28.836C2.57491 28.8341 2.56915 28.8309 2.56413 28.8265C2.55912 28.8222 2.55495 28.8168 2.55187 28.8108C2.54879 28.8047 2.54685 28.7981 2.54617 28.7912C2.54549 28.7844 2.54608 28.7775 2.54791 28.7709C2.54974 28.7642 2.55276 28.7581 2.55682 28.7527C2.68848 28.5788 3.11752 28.1229 3.3343 28.1926C3.37799 28.2067 3.43224 28.2473 3.4423 28.3612C3.52801 29.3101 3.64543 30.8705 3.76973 32.5226C3.95425 34.9754 4.16328 37.7543 4.232 37.9293C4.23725 37.9371 4.24039 37.9463 4.24107 37.9559C4.24175 37.9655 4.23995 37.9751 4.23585 37.9837C4.23176 37.9923 4.22555 37.9995 4.21788 38.0045C4.21021 38.0096 4.20139 38.0123 4.19239 38.0123Z" fill="#494949"/>
<path d="M3.21874 30.1108C4.03333 29.4132 4.30331 28.3274 3.82177 27.6856C3.34024 27.0438 2.28952 27.089 1.47494 27.7866C0.660351 28.4842 0.390365 29.57 0.871904 30.2118C1.35344 30.8536 2.40416 30.8083 3.21874 30.1108Z" fill="#0CBC8B"/>
<path opacity="0.2" d="M3.21874 30.1108C4.03333 29.4132 4.30331 28.3274 3.82177 27.6856C3.34024 27.0438 2.28952 27.089 1.47494 27.7866C0.660351 28.4842 0.390365 29.57 0.871904 30.2118C1.35344 30.8536 2.40416 30.8083 3.21874 30.1108Z" fill="white"/>
<path d="M1.10025 30.375C1.09453 30.375 1.08898 30.3729 1.08459 30.3689C1.07964 30.3645 1.07652 30.3582 1.07591 30.3513C1.07531 30.3444 1.07726 30.3376 1.08135 30.3322L3.40285 27.3413C3.40491 27.3387 3.40744 27.3365 3.41029 27.3349C3.41315 27.3333 3.41627 27.3323 3.41948 27.332C3.42269 27.3316 3.42593 27.332 3.42901 27.333C3.43209 27.334 3.43496 27.3357 3.43744 27.3379C3.43992 27.3401 3.44197 27.3428 3.44348 27.3458C3.44498 27.3489 3.44591 27.3522 3.44621 27.3557C3.44651 27.3591 3.44617 27.3625 3.44522 27.3658C3.44426 27.3691 3.44271 27.3722 3.44065 27.3748L1.1194 30.3655C1.11706 30.3685 1.11414 30.3709 1.11082 30.3726C1.10751 30.3742 1.1039 30.375 1.10025 30.375Z" fill="white"/>
<path d="M4.6987 37.3709C4.69087 37.3709 4.68315 37.3689 4.67619 37.3651C4.66923 37.3612 4.66323 37.3557 4.6587 37.3488C4.65416 37.342 4.65122 37.3341 4.65012 37.3258C4.64901 37.3176 4.64978 37.3091 4.65236 37.3012L5.52439 34.6219C5.55007 34.5432 5.59382 34.4726 5.65164 34.4167C5.70946 34.3607 5.7795 34.3211 5.85535 34.3016C5.93119 34.282 6.01042 34.2831 6.08577 34.3047C6.16113 34.3264 6.23019 34.3678 6.28665 34.4254L6.7477 34.8959C6.75712 34.9055 6.76258 34.9187 6.76288 34.9326C6.76318 34.9465 6.7583 34.96 6.7493 34.97C6.7403 34.9801 6.72793 34.9859 6.71491 34.9863C6.70189 34.9866 6.68928 34.9814 6.67986 34.9717L6.21886 34.5012C6.17429 34.4558 6.11976 34.423 6.06027 34.406C6.00078 34.3889 5.93823 34.388 5.87835 34.4035C5.81847 34.4189 5.76318 34.4502 5.71753 34.4943C5.67188 34.5385 5.63734 34.5942 5.61707 34.6564L4.74509 37.3358C4.74173 37.3461 4.73546 37.355 4.72714 37.3612C4.71883 37.3675 4.70889 37.3709 4.6987 37.3709Z" fill="#494949"/>
<path d="M8.03559 36.3792C8.63927 35.8687 8.6034 34.7459 7.95546 33.8713C7.30752 32.9968 6.29288 32.7017 5.6892 33.2122C5.08551 33.7227 5.12139 34.8455 5.76933 35.72C6.41727 36.5946 7.4319 36.8897 8.03559 36.3792Z" fill="#0CBC8B"/>
<path d="M3.79623 37.8413C3.7852 37.8413 3.77449 37.8373 3.76583 37.83C3.75717 37.8227 3.75107 37.8125 3.74851 37.8011L2.2851 31.264C2.27509 31.2195 2.25378 31.1787 2.2235 31.1463C2.19323 31.1138 2.15517 31.0909 2.11351 31.0801C2.07185 31.0692 2.02819 31.0709 1.98735 31.0848C1.9465 31.0988 1.91004 31.1245 1.88198 31.1591L1.43084 31.7161C1.42664 31.7214 1.42151 31.7257 1.41573 31.7289C1.40995 31.732 1.40365 31.7339 1.39718 31.7344C1.39071 31.735 1.38421 31.7341 1.37805 31.732C1.37189 31.7298 1.36619 31.7263 1.36129 31.7218C1.35638 31.7173 1.35237 31.7117 1.34948 31.7055C1.34659 31.6993 1.34487 31.6926 1.34444 31.6857C1.34401 31.6787 1.34486 31.6718 1.34695 31.6652C1.34904 31.6587 1.35233 31.6526 1.35662 31.6474L1.8077 31.0905C1.8476 31.0413 1.89943 31.0047 1.95751 30.9849C2.01558 30.9651 2.07765 30.9628 2.13687 30.9782C2.1961 30.9937 2.25019 31.0263 2.2932 31.0724C2.3362 31.1186 2.36646 31.1765 2.38063 31.2399L3.84385 37.7767C3.84687 37.7902 3.84474 37.8045 3.83793 37.8163C3.83112 37.8282 3.82018 37.8366 3.80752 37.8399C3.80382 37.8408 3.80003 37.8413 3.79623 37.8413Z" fill="#494949"/>
<path d="M3.25632 33.1683C3.43421 32.0692 2.96341 31.0647 2.20476 30.9245C1.44611 30.7844 0.686887 31.5617 0.508994 32.6607C0.331101 33.7598 0.801899 34.7643 1.56055 34.9045C2.3192 35.0446 3.07842 34.2673 3.25632 33.1683Z" fill="#0CBC8B"/>
<path d="M4.19241 38.0123C4.1904 38.0123 4.18838 38.0122 4.18638 38.012C4.17997 38.0111 4.17379 38.0089 4.16817 38.0055C4.16256 38.0022 4.15762 37.9976 4.15365 37.9922C4.14968 37.9868 4.14675 37.9805 4.14503 37.9739C4.14331 37.9673 4.14283 37.9603 4.14362 37.9535L5.07814 29.8474C5.08832 29.7591 5.12216 29.6758 5.17558 29.6076C5.22901 29.5393 5.29974 29.489 5.37929 29.4627C5.45883 29.4364 5.5438 29.4352 5.62399 29.4592C5.70417 29.4832 5.77615 29.5315 5.83127 29.5981L6.89937 30.8906C6.90363 30.8957 6.90691 30.9017 6.909 30.9083C6.91109 30.9148 6.91196 30.9217 6.91156 30.9285C6.91116 30.9354 6.90949 30.9421 6.90666 30.9483C6.90383 30.9545 6.89988 30.9601 6.89505 30.9646C6.89021 30.9692 6.88458 30.9727 6.87848 30.9749C6.87238 30.9771 6.86593 30.9781 6.85949 30.9776C6.85306 30.9772 6.84676 30.9754 6.84097 30.9724C6.83518 30.9694 6.83 30.9652 6.82573 30.96L5.75764 29.6676C5.71504 29.616 5.65941 29.5787 5.59744 29.5602C5.53547 29.5416 5.4698 29.5425 5.40832 29.5629C5.34684 29.5832 5.29217 29.6221 5.25088 29.6749C5.20959 29.7276 5.18345 29.792 5.17558 29.8602L4.24111 37.966C4.2397 37.9788 4.23397 37.9905 4.225 37.999C4.21602 38.0076 4.20443 38.0123 4.19241 38.0123Z" fill="#494949"/>
<path d="M7.99481 31.6089C8.36747 30.8891 7.92901 29.868 7.01547 29.3282C6.10193 28.7883 5.05926 28.9341 4.6866 29.6539C4.31394 30.3737 4.75241 31.3948 5.66594 31.9347C6.57948 32.4745 7.62215 32.3287 7.99481 31.6089Z" fill="#0CBC8B"/>
<path opacity="0.2" d="M8.03559 36.3792C8.63927 35.8687 8.6034 34.7459 7.95546 33.8713C7.30752 32.9968 6.29288 32.7017 5.6892 33.2122C5.08551 33.7227 5.12139 34.8455 5.76933 35.72C6.41727 36.5946 7.4319 36.8897 8.03559 36.3792Z" fill="white"/>
<path opacity="0.5" d="M3.25632 33.1683C3.43421 32.0692 2.96341 31.0647 2.20476 30.9245C1.44611 30.7844 0.686887 31.5617 0.508994 32.6607C0.331101 33.7598 0.801899 34.7643 1.56055 34.9045C2.3192 35.0446 3.07842 34.2673 3.25632 33.1683Z" fill="white"/>
<path opacity="0.5" d="M7.99481 31.6089C8.36747 30.8891 7.92901 29.868 7.01547 29.3282C6.10193 28.7883 5.05926 28.9341 4.6866 29.6539C4.31394 30.3737 4.75241 31.3948 5.66594 31.9347C6.57948 32.4745 7.62215 32.3287 7.99481 31.6089Z" fill="white"/>
<path d="M5.38764 44.8898H2.99712L2.60101 36.7186H5.78374L5.38764 44.8898Z" fill="#292A2E"/>
<path opacity="0.3" d="M5.38764 44.8898H2.99712L2.60101 36.7186H5.78374L5.38764 44.8898Z" fill="white"/>
<path d="M8.03577 36.4053C8.03207 36.4053 8.02841 36.4044 8.02508 36.4027C8.02174 36.4009 8.01882 36.3984 8.01653 36.3953L5.67004 33.2284C5.66804 33.2257 5.66655 33.2226 5.66567 33.2193C5.66479 33.2159 5.66453 33.2125 5.6649 33.2091C5.66527 33.2056 5.66627 33.2023 5.66784 33.1993C5.6694 33.1963 5.67151 33.1937 5.67404 33.1915C5.67657 33.1894 5.67946 33.1878 5.68256 33.1869C5.68567 33.1859 5.68891 33.1856 5.69211 33.186C5.69531 33.1864 5.69841 33.1875 5.70123 33.1892C5.70404 33.1908 5.70652 33.1931 5.70853 33.1958L8.05501 36.3628C8.05788 36.3666 8.05968 36.3713 8.06019 36.3762C8.0607 36.3811 8.0599 36.386 8.05789 36.3905C8.05588 36.3949 8.05274 36.3987 8.04883 36.4013C8.04491 36.4039 8.04039 36.4053 8.03577 36.4053Z" fill="white"/>
<path d="M7.83879 31.8626C7.83348 31.8626 7.82831 31.8608 7.82406 31.8574L4.82169 29.5153C4.81909 29.5132 4.81688 29.5107 4.8152 29.5077C4.81352 29.5048 4.81241 29.5015 4.81191 29.4981C4.81141 29.4947 4.81155 29.4912 4.81231 29.4879C4.81307 29.4845 4.81444 29.4814 4.81634 29.4786C4.81824 29.4758 4.82064 29.4735 4.82339 29.4717C4.82614 29.4699 4.8292 29.4687 4.83239 29.4681C4.83557 29.4676 4.83883 29.4678 4.84196 29.4686C4.8451 29.4694 4.84805 29.4709 4.85065 29.4729L7.85327 31.8152C7.85738 31.8185 7.86041 31.8231 7.86196 31.8283C7.8635 31.8336 7.86347 31.8392 7.86187 31.8444C7.86027 31.8496 7.85719 31.8541 7.85305 31.8574C7.84891 31.8606 7.84392 31.8624 7.83879 31.8624V31.8626Z" fill="white"/>
<path d="M1.43848 34.8702C1.43634 34.8702 1.43422 34.8699 1.43215 34.8693C1.42586 34.8675 1.4205 34.8632 1.41724 34.8571C1.41398 34.8511 1.41309 34.844 1.41477 34.8372L2.3706 31.0112C2.37241 31.0047 2.37655 30.9991 2.38212 30.9958C2.38769 30.9924 2.39426 30.9916 2.40044 30.9933C2.40661 30.9951 2.4119 30.9993 2.41519 31.0052C2.41847 31.011 2.41948 31.018 2.41802 31.0247L1.46244 34.8508C1.46103 34.8564 1.45791 34.8614 1.45358 34.8649C1.44924 34.8684 1.44393 34.8703 1.43848 34.8702Z" fill="white"/>
<path d="M41.8213 15.5664L41.9594 15.4449C42.0028 15.4051 42.0304 15.3492 42.0367 15.2884C42.043 15.2277 42.0275 15.1667 41.9933 15.1177C41.9749 15.0931 41.9519 15.0727 41.9258 15.0579C41.8997 15.0431 41.8711 15.0341 41.8417 15.0314C41.8122 15.0288 41.7826 15.0326 41.7546 15.0427C41.7266 15.0527 41.7008 15.0687 41.6788 15.0897L40.0406 16.6433L40.4935 17.2168C40.6342 17.3949 40.8214 17.5241 41.0312 17.5878C41.241 17.6514 41.4638 17.6467 41.6711 17.5742L42.6095 17.2441C42.6586 17.2279 42.7009 17.1942 42.7294 17.1485C42.7579 17.1028 42.7707 17.0481 42.7657 16.9934C42.7528 16.8859 41.8213 15.5664 41.8213 15.5664Z" fill="#E98862"/>
<path d="M40.8422 15.5783L36.3233 17.0743L33.5677 12.0871L31.2134 13.5578L34.6873 19.5558L34.7094 19.5858C34.8915 19.8272 35.1396 20.0019 35.419 20.0855C35.6984 20.1692 35.9953 20.1577 36.2683 20.0526L41.6548 17.9681L40.8422 15.5783Z" fill="#367CFF"/>
<path d="M43.6001 41.823L39.8325 42.0122L38.3793 15.5843L42.147 15.3952L43.6001 41.823Z" fill="#367CFF"/>
<path opacity="0.5" d="M43.6001 41.823L39.8325 42.0122L38.3793 15.5843L42.147 15.3952L43.6001 41.823Z" fill="white"/>
<path d="M42.019 12.4832L38.2513 12.6724L38.3794 15.5841L42.1471 15.3949L42.019 12.4832Z" fill="#262626"/>
<path d="M43.6003 41.8229C43.6003 41.8229 43.0833 42.782 42.6174 43.6395C42.2479 44.3196 41.9105 44.9359 41.8888 44.959C41.8664 44.9828 41.4452 44.3846 40.9899 43.7212C40.4365 42.9152 39.8324 42.0123 39.8324 42.0123L43.6003 41.8229Z" fill="#367CFF"/>
<path opacity="0.9" d="M43.6003 41.8229C43.6003 41.8229 43.0833 42.782 42.6174 43.6395C42.2479 44.3196 41.9105 44.9359 41.8888 44.959C41.8664 44.9828 41.4452 44.3846 40.9899 43.7212C40.4365 42.9152 39.8324 42.0123 39.8324 42.0123L43.6003 41.8229Z" fill="white"/>
<path d="M42.6174 43.6397C42.2479 44.3198 41.9105 44.9362 41.8888 44.9592C41.8664 44.983 41.4452 44.3848 40.9899 43.7215L42.6174 43.6397Z" fill="#262626"/>
<path d="M42.4267 41.8742L40.9072 15.4627L41.0791 15.4534L42.5986 41.8649L42.4267 41.8742Z" fill="white"/>
<path d="M40.9526 41.949L39.4331 15.5374L39.605 15.5282L41.1245 41.9397L40.9526 41.949Z" fill="white"/>
<path d="M41.5803 16.7988C41.5803 16.7481 41.5957 16.6987 41.6243 16.6582C41.653 16.6177 41.6932 16.5883 41.7389 16.5745C41.7372 16.5708 41.7309 16.563 41.737 16.5603L41.5581 16.5265C41.5051 16.5177 41.457 16.4888 41.4224 16.445C41.3879 16.4013 41.3694 16.3456 41.3703 16.2884C41.3729 16.2319 41.395 16.1785 41.4324 16.1385C41.4698 16.0985 41.5197 16.0747 41.5726 16.0718C41.5713 16.0699 41.5718 16.0674 41.5711 16.0652L41.4974 16.0512C41.4476 16.0427 41.402 16.0161 41.3684 15.9759C41.3348 15.9356 41.3153 15.8842 41.3131 15.8304C41.3124 15.7965 41.3187 15.763 41.3316 15.7321C41.3445 15.7012 41.3636 15.6738 41.3877 15.6518C41.4117 15.6297 41.44 15.6137 41.4705 15.6047C41.501 15.5958 41.533 15.5942 41.5642 15.6001L41.7339 15.6322C41.7339 15.6312 41.7332 15.6305 41.7334 15.6295C41.7335 15.6285 41.7347 15.6275 41.7351 15.6263C41.6905 15.6063 41.6535 15.5707 41.6303 15.5252C41.6072 15.4798 41.5991 15.4273 41.6075 15.3764C41.6212 15.2434 41.7683 15.1939 41.878 15.2146L42.219 15.309C42.2716 15.3236 42.32 15.3518 42.3599 15.3911C42.3999 15.4305 42.4301 15.4797 42.4479 15.5346C42.6022 16.0092 42.9775 17.259 42.6273 17.1927L41.765 17.0295C41.7146 17.0184 41.6691 16.9897 41.6357 16.948C41.6022 16.9062 41.5828 16.8537 41.5803 16.7988Z" fill="#E98862"/>
<path d="M27.2518 7.18998C27.2518 7.18998 26.7437 6.72017 26.6734 5.71736C26.619 4.94117 27.2518 5.4866 27.2518 5.4866C27.2518 5.4866 27.2177 4.92712 27.5922 5.00935C27.9668 5.09158 28.142 5.68915 28.142 5.68915" fill="#0C0C0C"/>
<path d="M29.5429 5.21417C29.5429 5.21417 31.4059 5.56341 30.5571 8.2313H30.0518" fill="#0C0C0C"/>
<path d="M30.8733 41.7116C30.8733 41.7116 31.4694 42.7873 30.7068 43.6007C29.9443 44.4142 30.6872 44.934 30.6872 44.934L33.7636 42.0211L32.4014 40.379L30.8733 41.7116Z" fill="#367CFF"/>
<path d="M25.6388 20.5085C25.6388 20.5085 25.2924 31.1796 25.3364 31.7003C25.503 33.6703 30.9296 42.5971 30.9296 42.5971L32.9502 40.7538L30.3699 35.1699L28.7386 31.2784C28.7386 31.2784 29.0194 27.9316 29.7763 24.8238C30.1636 23.2288 30.3966 21.5955 30.4719 19.9496L25.6388 20.5085Z" fill="#262626"/>
<path d="M30.7737 42.6565C30.7737 42.6565 30.5521 43.8837 29.4764 43.9524C28.4007 44.021 28.6341 44.9363 28.6341 44.9363H32.7448V42.7421L30.7737 42.6565Z" fill="#367CFF"/>
<path d="M33.0235 20.2659C33.0235 20.2659 33.0106 19.8969 33.0133 20.7339C33.0235 23.8559 32.9261 43.4397 32.9261 43.4397L30.2249 43.4155L28.5886 20.1389L33.0235 20.2659Z" fill="#262626"/>
<path d="M29.1434 28.0737L28.9218 24.4545C28.9218 24.4545 28.6943 25.9591 28.6943 27.256C28.6943 27.8899 28.8165 30.3997 28.8165 30.3997L29.1434 28.0737Z" fill="#0A0A0A"/>
<path d="M29.5037 33.1034L30.0656 41.1486L29.5396 40.2446L29.002 31.9068L29.5037 33.1034Z" fill="#0A0A0A"/>
<path d="M27.4449 11.0049C27.4531 11.0037 27.5448 12.6302 29.3135 12.4884C30.5379 12.3904 30.9744 11.0025 31.0025 11.0025C30.8705 10.9726 30.7074 10.9271 30.6425 10.9115C30.5012 10.8765 30.3732 10.7963 30.2756 10.6816C30.178 10.567 30.1154 10.4233 30.0961 10.2697C30.0603 10.039 30.121 8.85968 30.1023 8.6264L28.2229 9.0746C28.2491 9.56722 28.4329 10.7093 27.7887 10.9115C27.6815 10.9449 27.5661 10.9756 27.4449 11.0049Z" fill="#E98862"/>
<path opacity="0.52" d="M28.1965 10.4448C28.226 10.3434 28.2449 10.2389 28.253 10.1331C28.2737 9.89176 28.2696 9.64869 28.2408 9.40828C28.6228 9.35318 28.9827 9.18473 29.2795 8.92206C29.3145 9.05978 29.5063 9.66154 29.4532 9.79228C29.3528 10.0397 28.8807 10.4448 28.1965 10.4448Z" fill="#0C0C0C"/>
<path d="M28.5301 10.0518C29.2744 10.0339 30.1911 9.59793 30.2712 8.52594L30.3435 7.5587C30.4235 6.48671 29.9614 5.5728 29.0167 5.49235C28.0719 5.41179 27.3009 6.2206 27.2209 7.29259L27.1889 7.7208C27.1803 7.86803 27.1811 8.01571 27.1913 8.16281C27.2158 8.55185 27.254 9.14354 27.4741 9.55749C27.6818 9.94832 28.0546 10.0633 28.5301 10.0518Z" fill="#E98862"/>
<path opacity="0.52" d="M28.2484 9.04686C28.0952 9.04332 27.945 9.00137 27.8098 8.9244C27.8069 8.92294 27.8044 8.92088 27.8022 8.91833C27.8001 8.91578 27.7985 8.91281 27.7974 8.90958C27.7964 8.90634 27.796 8.90292 27.7962 8.89952C27.7964 8.89611 27.7973 8.89278 27.7987 8.88974C27.8002 8.8867 27.8022 8.88399 27.8046 8.88179C27.8071 8.87959 27.8099 8.87793 27.813 8.87692C27.816 8.8759 27.8192 8.87556 27.8224 8.87589C27.8256 8.87623 27.8287 8.87724 27.8315 8.87888C28.1232 9.03716 28.3971 9.03669 28.6236 8.87741C28.6282 8.87402 28.6329 8.87091 28.6378 8.86807C28.6435 8.8651 28.6501 8.86466 28.6561 8.86687C28.6621 8.86907 28.667 8.87373 28.6698 8.87982C28.6726 8.88591 28.673 8.89294 28.6709 8.89935C28.6689 8.90576 28.6645 8.91104 28.6588 8.91402C28.657 8.91506 28.6539 8.91721 28.6499 8.9201C28.5308 9.0041 28.391 9.04824 28.2484 9.04686Z" fill="#0C0C0C"/>
<path opacity="0.52" d="M28.2403 9.28885C28.2127 9.28869 28.1851 9.28601 28.158 9.28083C28.1517 9.27967 28.1462 9.2759 28.1425 9.27036C28.1389 9.26482 28.1374 9.25795 28.1385 9.25128C28.1396 9.2446 28.1431 9.23866 28.1483 9.23476C28.1535 9.23086 28.1599 9.22932 28.1662 9.23048C28.3302 9.26111 28.4142 9.18585 28.4177 9.1826C28.4225 9.17814 28.4287 9.17588 28.435 9.17633C28.4414 9.17677 28.4473 9.17989 28.4515 9.18499C28.4556 9.19008 28.4577 9.19675 28.4573 9.20351C28.4569 9.21027 28.454 9.21658 28.4492 9.22104C28.389 9.26879 28.3152 9.29276 28.2403 9.28885Z" fill="#0C0C0C"/>
<path d="M27.5011 7.7927C27.5655 7.7927 27.6178 7.73687 27.6178 7.66799C27.6178 7.59911 27.5655 7.54327 27.5011 7.54327C27.4366 7.54327 27.3843 7.59911 27.3843 7.66799C27.3843 7.73687 27.4366 7.7927 27.5011 7.7927Z" fill="#0C0C0C"/>
<path d="M28.5829 7.80052C28.6474 7.80052 28.6996 7.74468 28.6996 7.6758C28.6996 7.60692 28.6474 7.55109 28.5829 7.55109C28.5184 7.55109 28.4662 7.60692 28.4662 7.6758C28.4662 7.74468 28.5184 7.80052 28.5829 7.80052Z" fill="#0C0C0C"/>
<path d="M30.1881 8.84749C30.4752 8.87193 30.7325 8.56365 30.7554 8.2569C30.7783 7.95015 30.5582 7.76119 30.2711 7.73669L30.1078 7.92969L29.9413 8.82651L30.1881 8.84749Z" fill="#E98862"/>
<path d="M25.2474 14.5857C25.3031 15.2849 25.5741 19.6472 25.6277 20.5085H33.0094C33.0511 19.7317 33.2384 16.3351 33.3965 14.8161C33.5474 13.3666 33.8436 12.5885 33.6265 12.16C33.2718 11.4596 32.3025 11.1073 31.6415 11.0117C31.2379 10.9534 30.6309 10.9116 30.6309 10.9116C30.6309 10.9116 30.5795 12.0224 29.354 12.0842C27.6856 12.1681 27.797 10.9116 27.7887 10.9116C27.1831 10.9116 26.0367 11.0664 25.5968 11.386C24.6075 12.1046 25.1291 13.104 25.2474 14.5857Z" fill="#367CFF"/>
<path d="M29.9332 8.33365C29.9332 8.33365 29.9314 6.80859 29.5061 6.68398C29.2231 6.60101 28.4998 6.98606 27.8635 6.80859C27.5852 6.73092 27.3128 6.78635 27.2766 6.9267C27.2623 6.98229 27.1374 6.15994 27.6176 5.57701C27.9998 5.11293 29.159 5.05712 29.6725 5.25505C31.0941 5.80305 30.3259 7.80778 30.3259 7.80778L30.2284 8.32657L29.9332 8.33365Z" fill="#0C0C0C"/>
<g opacity="0.52">
<path d="M28.0971 8.67577H28.0953C28.0027 8.66816 27.8483 8.6443 27.8536 8.57035C27.8581 8.5091 28.0628 7.86056 28.0862 7.78682C28.0872 7.78368 28.0887 7.78078 28.0908 7.77828C28.0928 7.77579 28.0953 7.77374 28.0981 7.77227C28.1009 7.7708 28.1039 7.76993 28.107 7.76971C28.1101 7.76949 28.1132 7.76992 28.1161 7.77098C28.1191 7.77204 28.1218 7.77371 28.1241 7.77589C28.1265 7.77807 28.1284 7.78073 28.1297 7.7837C28.1311 7.78667 28.1319 7.7899 28.1321 7.79321C28.1324 7.79651 28.132 7.79983 28.131 7.80297C28.04 8.09022 27.9038 8.53264 27.9007 8.57423C27.9085 8.59248 28.0031 8.6175 28.0989 8.62542C28.1049 8.626 28.1105 8.62904 28.1145 8.6339C28.1185 8.63876 28.1206 8.64507 28.1204 8.65154C28.1201 8.65801 28.1176 8.66414 28.1133 8.66867C28.1089 8.6732 28.1031 8.67578 28.0971 8.67587V8.67577Z" fill="#0C0C0C"/>
</g>
<path d="M27.829 7.28509C27.7926 7.26876 27.7543 7.25773 27.7152 7.25231C27.6746 7.24631 27.6334 7.24631 27.5928 7.25231C27.552 7.25777 27.5122 7.26981 27.4748 7.28803C27.4366 7.30639 27.4007 7.32978 27.3679 7.35768L27.3653 7.35978C27.3569 7.36645 27.3463 7.36938 27.3359 7.36796C27.3255 7.36655 27.3159 7.36089 27.3093 7.35216C27.3027 7.34344 27.2995 7.33232 27.3003 7.32112C27.3011 7.30992 27.306 7.29949 27.3139 7.29202C27.3501 7.256 27.3905 7.22502 27.4341 7.19982C27.4783 7.174 27.5258 7.15542 27.5752 7.1447C27.6759 7.12205 27.7805 7.12899 27.8778 7.16478C27.8854 7.16765 27.8924 7.17209 27.8984 7.17785C27.9044 7.18361 27.9093 7.19057 27.9128 7.19835C27.9163 7.20613 27.9183 7.21456 27.9188 7.22318C27.9192 7.23179 27.918 7.2404 27.9153 7.24854C27.9127 7.25667 27.9085 7.26416 27.9031 7.27058C27.8977 7.277 27.8912 7.28222 27.8839 7.28595C27.8766 7.28967 27.8688 7.29183 27.8607 7.29229C27.8526 7.29276 27.8446 7.29152 27.837 7.28866C27.8355 7.28808 27.8341 7.28751 27.8326 7.28682L27.829 7.28509Z" fill="#0C0C0C"/>
<path d="M28.5143 7.17521C28.5634 7.15682 28.6146 7.14601 28.6665 7.14311C28.7169 7.13975 28.7676 7.1438 28.817 7.15512C28.8663 7.16586 28.9138 7.18444 28.958 7.21024C29.0015 7.23549 29.0419 7.2665 29.0782 7.30255C29.0862 7.30995 29.0913 7.3204 29.0922 7.33168C29.0931 7.34296 29.0899 7.3542 29.0833 7.363C29.0766 7.37181 29.067 7.3775 29.0565 7.37887C29.0459 7.38024 29.0353 7.37719 29.0269 7.37036L29.0241 7.36815C28.9914 7.34026 28.9555 7.31686 28.9173 7.29851C28.88 7.28029 28.8402 7.26823 28.7995 7.26274C28.7589 7.25673 28.7178 7.25673 28.6772 7.26274C28.638 7.26816 28.5997 7.27918 28.5633 7.29552L28.5598 7.29714C28.5525 7.30063 28.5445 7.30253 28.5364 7.30274C28.5284 7.30294 28.5203 7.30145 28.5128 7.29834C28.5053 7.29523 28.4984 7.29057 28.4926 7.28461C28.4867 7.27866 28.482 7.27154 28.4788 7.26366C28.4755 7.25577 28.4737 7.24728 28.4735 7.23865C28.4733 7.23003 28.4747 7.22146 28.4776 7.21341C28.4806 7.20537 28.4849 7.19802 28.4905 7.19178C28.4961 7.18554 28.5027 7.18053 28.5101 7.17704C28.5114 7.17641 28.5129 7.17573 28.5143 7.17521Z" fill="#0C0C0C"/>
<path d="M28.6141 5.65545C28.7005 5.32567 28.6005 5.0075 28.3908 4.9448C28.1811 4.88211 27.9411 5.09862 27.8547 5.42839C27.7683 5.75817 27.8683 6.07634 28.078 6.13904C28.2877 6.20174 28.5277 5.98523 28.6141 5.65545Z" fill="#0C0C0C"/>
<path d="M24.9598 21.6481C24.9903 21.6369 25.0181 21.6187 25.0411 21.5947C25.0642 21.5707 25.082 21.5415 25.0932 21.5092C25.1045 21.477 25.1089 21.4425 25.1061 21.4082C25.1033 21.3739 25.0935 21.3407 25.0773 21.311L25.2196 21.5712C25.2475 21.6246 25.2932 21.6646 25.3477 21.6834C25.4021 21.7021 25.4612 21.698 25.5129 21.672C25.5392 21.6576 25.5625 21.6376 25.5813 21.6133C25.6001 21.5889 25.614 21.5608 25.6223 21.5305C25.6305 21.5002 25.633 21.4684 25.6293 21.4371C25.6257 21.4058 25.6162 21.3755 25.6013 21.3483L25.6657 21.4661C25.6908 21.5139 25.7306 21.551 25.7784 21.5711C25.8262 21.5911 25.879 21.593 25.9278 21.5762C25.9583 21.5651 25.9861 21.5468 26.0091 21.5228C26.0322 21.4988 26.05 21.4696 26.0612 21.4374C26.0725 21.4051 26.0769 21.3706 26.0741 21.3363C26.0713 21.302 26.0615 21.2688 26.0453 21.2391L25.9324 21.0328C25.9614 21.086 26.0091 21.1247 26.0649 21.1404C26.1206 21.156 26.1799 21.1473 26.2297 21.1163C26.3438 21.0555 26.3363 20.8881 26.2791 20.7835L26.0669 20.3613L26.2071 20.4799C26.2527 20.5168 26.3096 20.5339 26.3665 20.5277C26.4234 20.5215 26.476 20.4925 26.5137 20.4465C26.5323 20.422 26.5461 20.3937 26.5542 20.3634C26.5623 20.333 26.5645 20.3012 26.5607 20.27C26.5569 20.2387 26.5472 20.2085 26.5321 20.1814C26.517 20.1542 26.497 20.1306 26.4731 20.1121L25.1976 19.2527L24.2772 19.3219C24.1439 19.5062 24.0651 19.729 24.051 19.9615C24.0369 20.194 24.0881 20.4258 24.198 20.627L24.6977 21.5377C24.7227 21.5855 24.7626 21.6227 24.8103 21.6428C24.8581 21.6629 24.9109 21.6648 24.9598 21.6481Z" fill="#E98862"/>
<path d="M25.7887 20.7749C25.7882 20.7698 25.7893 20.7648 25.792 20.7605C25.7946 20.7563 25.7985 20.7531 25.8031 20.7516C25.8076 20.7501 25.8125 20.7504 25.8169 20.7524C25.8213 20.7543 25.8249 20.7579 25.8271 20.7624L25.9677 21.0484C25.9689 21.0509 25.9697 21.0537 25.9699 21.0565C25.9702 21.0594 25.9699 21.0623 25.9691 21.065C25.9683 21.0677 25.967 21.0703 25.9653 21.0725C25.9636 21.0747 25.9614 21.0765 25.9591 21.0778C25.9567 21.0792 25.9541 21.08 25.9514 21.0802C25.9488 21.0805 25.9461 21.0802 25.9435 21.0793C25.9409 21.0785 25.9386 21.0771 25.9365 21.0753C25.9344 21.0734 25.9327 21.0712 25.9315 21.0687L25.7909 20.7827C25.7898 20.7802 25.789 20.7776 25.7887 20.7749Z" fill="#E98862"/>
<path d="M25.4102 20.9878C25.4097 20.9828 25.4109 20.9778 25.4135 20.9736C25.4161 20.9693 25.42 20.9662 25.4245 20.9647C25.429 20.9632 25.4339 20.9635 25.4383 20.9654C25.4426 20.9673 25.4463 20.9707 25.4485 20.9752L25.6442 21.3659C25.6455 21.3684 25.6463 21.3712 25.6465 21.3741C25.6468 21.3769 25.6465 21.3798 25.6458 21.3825C25.645 21.3853 25.6437 21.3878 25.642 21.3901C25.6403 21.3923 25.6382 21.3941 25.6358 21.3955C25.6335 21.3968 25.6309 21.3977 25.6282 21.398C25.6255 21.3982 25.6228 21.398 25.6203 21.3971C25.6177 21.3963 25.6153 21.3949 25.6132 21.3931C25.6112 21.3913 25.6094 21.3891 25.6082 21.3865L25.4125 20.9958C25.4113 20.9933 25.4105 20.9906 25.4102 20.9878Z" fill="#E98862"/>
<path d="M24.999 21.2159C24.9985 21.2108 24.9997 21.2057 25.0023 21.2014C25.005 21.1971 25.0089 21.194 25.0135 21.1926C25.0181 21.1911 25.023 21.1914 25.0274 21.1934C25.0318 21.1955 25.0354 21.1991 25.0376 21.2037L25.1259 21.3905C25.1284 21.3957 25.1288 21.4017 25.1271 21.4072C25.1254 21.4127 25.1218 21.4172 25.1169 21.4199C25.1121 21.4225 25.1065 21.4229 25.1013 21.4211C25.0962 21.4193 25.0919 21.4154 25.0894 21.4102L25.0011 21.2233C25 21.221 24.9993 21.2185 24.999 21.2159Z" fill="#E98862"/>
<path opacity="0.2" d="M25.7887 20.7749C25.7882 20.7698 25.7893 20.7648 25.792 20.7605C25.7946 20.7563 25.7985 20.7531 25.8031 20.7516C25.8076 20.7501 25.8125 20.7504 25.8169 20.7524C25.8213 20.7543 25.8249 20.7579 25.8271 20.7624L25.9677 21.0484C25.9689 21.0509 25.9697 21.0537 25.9699 21.0565C25.9702 21.0594 25.9699 21.0623 25.9691 21.065C25.9683 21.0677 25.967 21.0703 25.9653 21.0725C25.9636 21.0747 25.9614 21.0765 25.9591 21.0778C25.9567 21.0792 25.9541 21.08 25.9514 21.0802C25.9488 21.0805 25.9461 21.0802 25.9435 21.0793C25.9409 21.0785 25.9386 21.0771 25.9365 21.0753C25.9344 21.0734 25.9327 21.0712 25.9315 21.0687L25.7909 20.7827C25.7898 20.7802 25.789 20.7776 25.7887 20.7749Z" fill="#0C0C0C"/>
<path opacity="0.2" d="M25.4102 20.9878C25.4097 20.9828 25.4109 20.9778 25.4135 20.9736C25.4161 20.9693 25.42 20.9662 25.4245 20.9647C25.429 20.9632 25.4339 20.9635 25.4383 20.9654C25.4426 20.9673 25.4463 20.9707 25.4485 20.9752L25.6442 21.3659C25.6455 21.3684 25.6463 21.3712 25.6465 21.3741C25.6468 21.3769 25.6465 21.3798 25.6458 21.3825C25.645 21.3853 25.6437 21.3878 25.642 21.3901C25.6403 21.3923 25.6382 21.3941 25.6358 21.3955C25.6335 21.3968 25.6309 21.3977 25.6282 21.398C25.6255 21.3982 25.6228 21.398 25.6203 21.3971C25.6177 21.3963 25.6153 21.3949 25.6132 21.3931C25.6112 21.3913 25.6094 21.3891 25.6082 21.3865L25.4125 20.9958C25.4113 20.9933 25.4105 20.9906 25.4102 20.9878Z" fill="#0C0C0C"/>
<path opacity="0.2" d="M24.999 21.2159C24.9985 21.2108 24.9997 21.2057 25.0023 21.2014C25.005 21.1971 25.0089 21.194 25.0135 21.1926C25.0181 21.1911 25.023 21.1914 25.0274 21.1934C25.0318 21.1955 25.0354 21.1991 25.0376 21.2037L25.1259 21.3905C25.1284 21.3957 25.1288 21.4017 25.1271 21.4072C25.1254 21.4127 25.1218 21.4172 25.1169 21.4199C25.1121 21.4225 25.1065 21.4229 25.1013 21.4211C25.0962 21.4193 25.0919 21.4154 25.0894 21.4102L25.0011 21.2233C25 21.221 24.9993 21.2185 24.999 21.2159Z" fill="#0C0C0C"/>
<path d="M26.903 14.0787C26.903 14.0787 26.3106 11.1112 25.6384 11.3583C25.1051 11.5543 21.0983 15.0819 20.9767 15.2098C20.7088 15.4915 20.5567 15.8753 20.5537 16.2768C20.5507 16.6783 20.6971 17.0646 20.9608 17.3508L24.0794 21.1631L25.8793 19.3606L23.5125 16.6282L26.903 14.0787Z" fill="#367CFF"/>
<path d="M25.2882 15.364C25.2834 15.364 25.2788 15.3621 25.2753 15.3586C25.2718 15.3551 25.2697 15.3504 25.2693 15.3453L25.1901 14.172C25.1899 14.1694 25.1902 14.1667 25.1909 14.1642C25.1917 14.1616 25.193 14.1593 25.1946 14.1573C25.1962 14.1553 25.1982 14.1536 25.2004 14.1524C25.2026 14.1512 25.2051 14.1505 25.2075 14.1503C25.21 14.15 25.2125 14.1503 25.2149 14.1512C25.2173 14.152 25.2195 14.1533 25.2214 14.155C25.2233 14.1568 25.2249 14.1589 25.226 14.1613C25.2271 14.1637 25.2278 14.1663 25.228 14.169L25.3071 15.3422C25.3073 15.3449 25.307 15.3475 25.3063 15.3501C25.3055 15.3526 25.3042 15.3549 25.3026 15.357C25.301 15.359 25.299 15.3606 25.2968 15.3618C25.2946 15.363 25.2921 15.3637 25.2897 15.3639L25.2882 15.364Z" fill="#0C0C0C"/>
<path d="M33.2293 17.153H33.2279C33.2229 17.1527 33.2182 17.1503 33.2149 17.1464C33.2115 17.1425 33.2097 17.1373 33.2099 17.132L33.3409 14.3221C33.3413 14.3168 33.3436 14.3118 33.3473 14.3083C33.351 14.3047 33.3559 14.3028 33.3608 14.3029C33.3633 14.303 33.3658 14.3036 33.368 14.3048C33.3703 14.3059 33.3723 14.3075 33.374 14.3095C33.3756 14.3115 33.3769 14.3138 33.3778 14.3163C33.3786 14.3188 33.379 14.3214 33.3789 14.3241L33.2478 17.1339C33.2475 17.139 33.2455 17.1437 33.242 17.1473C33.2386 17.1508 33.234 17.1528 33.2293 17.153Z" fill="#0C0C0C"/>
<path d="M43.8294 45H1.5402C1.53014 45 1.52049 44.9958 1.51337 44.9882C1.50626 44.9805 1.50226 44.9702 1.50226 44.9595C1.50226 44.9487 1.50626 44.9384 1.51337 44.9308C1.52049 44.9232 1.53014 44.9189 1.5402 44.9189H43.8294C43.8395 44.9189 43.8492 44.9232 43.8563 44.9308C43.8634 44.9384 43.8674 44.9487 43.8674 44.9595C43.8674 44.9702 43.8634 44.9805 43.8563 44.9882C43.8492 44.9958 43.8395 45 43.8294 45Z" fill="#3F3F3F"/>
</svg>
