<svg width="45" height="45" viewBox="0 0 45 45" fill="none" xmlns="http://www.w3.org/2000/svg">
<g clip-path="url(#clip0_307_1268)">
<path d="M29.622 34.4484H40.2632L41.8761 35.5923V30.749C41.8761 30.5057 41.774 30.2723 41.5923 30.1003C41.4106 29.9282 41.1642 29.8315 40.9073 29.8315H29.622C29.3651 29.8315 29.1187 29.9282 28.937 30.1003C28.7553 30.2723 28.6532 30.5057 28.6532 30.749V33.5307C28.6532 33.6512 28.6782 33.7705 28.7269 33.8819C28.7756 33.9932 28.8469 34.0944 28.9369 34.1796C29.0269 34.2648 29.1337 34.3324 29.2512 34.3785C29.3688 34.4246 29.4948 34.4484 29.622 34.4484Z" fill="#F4F4F4"/>
<path d="M40.7375 31.1173H29.7917C29.7812 31.1169 29.7713 31.1127 29.764 31.1056C29.7568 31.0985 29.7527 31.0889 29.7527 31.079C29.7527 31.0691 29.7568 31.0596 29.764 31.0525C29.7713 31.0453 29.7812 31.0411 29.7917 31.0408H40.7375C40.7479 31.0411 40.7578 31.0453 40.7651 31.0525C40.7724 31.0596 40.7764 31.0691 40.7764 31.079C40.7764 31.0889 40.7724 31.0985 40.7651 31.1056C40.7578 31.1127 40.7479 31.1169 40.7375 31.1173Z" fill="white"/>
<path d="M40.7375 32.2653H29.7917C29.7812 32.2649 29.7713 32.2608 29.764 32.2536C29.7568 32.2465 29.7527 32.237 29.7527 32.227C29.7527 32.2171 29.7568 32.2076 29.764 32.2005C29.7713 32.1933 29.7812 32.1891 29.7917 32.1888H40.7375C40.7479 32.1891 40.7578 32.1933 40.7651 32.2005C40.7724 32.2076 40.7764 32.2171 40.7764 32.227C40.7764 32.237 40.7724 32.2465 40.7651 32.2536C40.7578 32.2608 40.7479 32.2649 40.7375 32.2653Z" fill="white"/>
<path d="M40.7375 33.4134H34.2367C34.226 33.4134 34.2157 33.4093 34.2082 33.4021C34.2006 33.395 34.1963 33.3852 34.1963 33.3751C34.1963 33.3649 34.2006 33.3552 34.2082 33.348C34.2157 33.3408 34.226 33.3368 34.2367 33.3368H40.7375C40.7482 33.3368 40.7585 33.3408 40.7661 33.348C40.7736 33.3552 40.7779 33.3649 40.7779 33.3751C40.7779 33.3852 40.7736 33.395 40.7661 33.4021C40.7585 33.4093 40.7482 33.4134 40.7375 33.4134Z" fill="white"/>
<path d="M35.3798 32.2515L35.2644 32.2634L36.6886 44.588L36.804 44.5761L35.3798 32.2515Z" fill="#292A2E"/>
<path d="M39.0685 37.6318L38.3679 44.1957L38.4833 44.2067L39.1839 37.6429L39.0685 37.6318Z" fill="#292A2E"/>
<path d="M40.2732 43.4023H35.0745V45H40.2732V43.4023Z" fill="#292A2E"/>
<path opacity="0.2" d="M40.2732 43.4023H35.0745V45H40.2732V43.4023Z" fill="white"/>
<path d="M43.4073 40.4604C44.3921 39.2209 43.9226 37.3127 42.3586 36.1984C40.7946 35.084 38.7284 35.1855 37.7436 36.425C36.7587 37.6645 37.2282 39.5727 38.7922 40.687C40.3562 41.8014 42.4224 41.6999 43.4073 40.4604Z" fill="#0CBC8B"/>
<path opacity="0.2" d="M43.4073 40.4604C44.3921 39.2209 43.9226 37.3127 42.3586 36.1984C40.7946 35.084 38.7284 35.1855 37.7436 36.425C36.7587 37.6645 37.2282 39.5727 38.7922 40.687C40.3562 41.8014 42.4224 41.6999 43.4073 40.4604Z" fill="white"/>
<path opacity="0.5" d="M43.4071 40.4606C43.341 40.5443 43.2688 40.6234 43.1912 40.6976C42.107 41.3535 40.5069 41.2503 39.2374 40.3456C37.6736 39.2315 37.2042 37.3233 38.1892 36.0838C38.2554 36.0004 38.3274 35.9212 38.4046 35.8468C39.4893 35.1904 41.0889 35.2941 42.3589 36.1985C43.9227 37.3129 44.392 39.2211 43.4071 40.4606Z" fill="white"/>
<path d="M36.1521 35.7578C37.7014 34.6253 38.1225 32.6829 37.0926 31.4194C36.0627 30.1559 33.9718 30.0498 32.4225 31.1824C30.8731 32.3149 30.4521 34.2573 31.4819 35.5208C32.5118 36.7842 34.6027 36.8904 36.1521 35.7578Z" fill="#0CBC8B"/>
<path opacity="0.2" d="M35.6612 35.4328C34.4613 36.3104 32.9364 36.4442 31.831 35.8729C31.7031 35.7661 31.5863 35.6481 31.4821 35.5203C30.452 34.2572 30.8731 32.3146 32.4224 31.1823C33.6223 30.3051 35.1472 30.1709 36.252 30.7418C36.3802 30.8485 36.4973 30.9667 36.6014 31.0948C37.6317 32.3579 37.2105 34.3005 35.6612 35.4328Z" fill="white"/>
<path d="M44.0312 17.2158H30.3427L28.6083 18.446V11.9343C28.6083 11.6909 28.7104 11.4576 28.8921 11.2855C29.0738 11.1134 29.3202 11.0168 29.5772 11.0168H44.0312C44.2881 11.0168 44.5345 11.1134 44.7162 11.2855C44.8979 11.4576 45 11.6909 45 11.9343V16.2985C45 16.5418 44.8979 16.7751 44.7162 16.9471C44.5345 17.1192 44.2881 17.2158 44.0312 17.2158Z" fill="#F4F4F4"/>
<path d="M43.7758 12.3964H29.8327C29.8272 12.3966 29.8218 12.3957 29.8167 12.3939C29.8117 12.392 29.807 12.3892 29.8031 12.3857C29.7992 12.3821 29.7961 12.3778 29.794 12.3731C29.7919 12.3683 29.7908 12.3633 29.7908 12.3581C29.7908 12.353 29.7919 12.3479 29.794 12.3431C29.7961 12.3384 29.7992 12.3341 29.8031 12.3306C29.807 12.327 29.8117 12.3242 29.8167 12.3224C29.8218 12.3205 29.8272 12.3197 29.8327 12.3198H43.7758C43.7862 12.3202 43.7961 12.3244 43.8034 12.3315C43.8107 12.3387 43.8147 12.3482 43.8147 12.3581C43.8147 12.368 43.8107 12.3775 43.8034 12.3847C43.7961 12.3918 43.7862 12.396 43.7758 12.3964Z" fill="white"/>
<path d="M43.7758 13.6309H29.8327C29.8272 13.6311 29.8218 13.6302 29.8167 13.6284C29.8117 13.6265 29.807 13.6237 29.8031 13.6202C29.7992 13.6166 29.7961 13.6123 29.794 13.6076C29.7919 13.6028 29.7908 13.5977 29.7908 13.5926C29.7908 13.5875 29.7919 13.5824 29.794 13.5776C29.7961 13.5729 29.7992 13.5686 29.8031 13.565C29.807 13.5615 29.8117 13.5587 29.8167 13.5569C29.8218 13.555 29.8272 13.5542 29.8327 13.5543H43.7758C43.7862 13.5547 43.7961 13.5589 43.8034 13.566C43.8107 13.5732 43.8147 13.5827 43.8147 13.5926C43.8147 13.6025 43.8107 13.612 43.8034 13.6192C43.7961 13.6263 43.7862 13.6305 43.7758 13.6309Z" fill="white"/>
<path d="M43.7758 14.8654H29.8327C29.8219 14.8654 29.8117 14.8614 29.8041 14.8542C29.7965 14.847 29.7922 14.8373 29.7922 14.8271C29.7922 14.8169 29.7965 14.8072 29.8041 14.8C29.8117 14.7929 29.8219 14.7888 29.8327 14.7888H43.7758C43.7865 14.7888 43.7968 14.7929 43.8043 14.8C43.8119 14.8072 43.8162 14.8169 43.8162 14.8271C43.8162 14.8373 43.8119 14.847 43.8043 14.8542C43.7968 14.8614 43.7865 14.8654 43.7758 14.8654Z" fill="white"/>
<path d="M41.3513 16.0999H29.8327C29.8272 16.1001 29.8218 16.0993 29.8167 16.0974C29.8117 16.0956 29.807 16.0928 29.8031 16.0892C29.7992 16.0856 29.7961 16.0814 29.794 16.0766C29.7919 16.0719 29.7908 16.0668 29.7908 16.0617C29.7908 16.0565 29.7919 16.0514 29.794 16.0467C29.7961 16.042 29.7992 16.0377 29.8031 16.0341C29.807 16.0305 29.8117 16.0277 29.8167 16.0259C29.8218 16.0241 29.8272 16.0232 29.8327 16.0234H41.3514C41.3568 16.0232 41.3622 16.0241 41.3673 16.0259C41.3724 16.0277 41.377 16.0305 41.3809 16.0341C41.3848 16.0377 41.3879 16.042 41.39 16.0467C41.3922 16.0514 41.3933 16.0565 41.3933 16.0617C41.3933 16.0668 41.3922 16.0719 41.39 16.0766C41.3879 16.0814 41.3848 16.0856 41.3809 16.0892C41.377 16.0928 41.3724 16.0956 41.3673 16.0974C41.3622 16.0993 41.3568 16.1001 41.3514 16.0999H41.3513Z" fill="white"/>
<path d="M1.66273 29.963H12.3038L13.9166 31.107V26.2637C13.9166 26.0204 13.8145 25.787 13.6329 25.6149C13.4512 25.4429 13.2047 25.3462 12.9478 25.3462H1.66273C1.40577 25.3462 1.15933 25.4429 0.977627 25.6149C0.795926 25.787 0.693848 26.0204 0.693848 26.2637V29.0454C0.693834 29.1659 0.718884 29.2852 0.767569 29.3965C0.816254 29.5079 0.887619 29.609 0.97759 29.6942C1.06756 29.7795 1.17437 29.8471 1.29193 29.8932C1.40949 29.9393 1.53549 29.963 1.66273 29.963Z" fill="#F4F4F4"/>
<path d="M12.7781 26.632H1.83235C1.82163 26.632 1.81135 26.628 1.80376 26.6208C1.79618 26.6136 1.79192 26.6039 1.79192 26.5937C1.79192 26.5835 1.79618 26.5738 1.80376 26.5666C1.81135 26.5595 1.82163 26.5554 1.83235 26.5554H12.7781C12.7888 26.5554 12.7991 26.5595 12.8067 26.5666C12.8143 26.5738 12.8185 26.5835 12.8185 26.5937C12.8185 26.6039 12.8143 26.6136 12.8067 26.6208C12.7991 26.628 12.7888 26.632 12.7781 26.632Z" fill="white"/>
<path d="M12.7781 27.78H1.83235C1.82189 27.7796 1.81198 27.7754 1.80472 27.7683C1.79745 27.7612 1.79339 27.7516 1.79339 27.7417C1.79339 27.7318 1.79745 27.7223 1.80472 27.7151C1.81198 27.708 1.82189 27.7038 1.83235 27.7035H12.7781C12.7836 27.7033 12.789 27.7041 12.794 27.706C12.7991 27.7078 12.8037 27.7106 12.8077 27.7142C12.8116 27.7177 12.8147 27.722 12.8168 27.7267C12.8189 27.7315 12.82 27.7366 12.82 27.7417C12.82 27.7469 12.8189 27.7519 12.8168 27.7567C12.8147 27.7614 12.8116 27.7657 12.8077 27.7693C12.8037 27.7728 12.7991 27.7756 12.794 27.7775C12.789 27.7793 12.7836 27.7802 12.7781 27.78Z" fill="white"/>
<path d="M12.7781 28.928H6.27743C6.27201 28.9282 6.26659 28.9273 6.26152 28.9255C6.25645 28.9236 6.25182 28.9209 6.24791 28.9173C6.244 28.9137 6.24089 28.9094 6.23876 28.9047C6.23664 28.9 6.23554 28.8949 6.23554 28.8897C6.23554 28.8846 6.23664 28.8795 6.23876 28.8748C6.24089 28.87 6.244 28.8657 6.24791 28.8622C6.25182 28.8586 6.25645 28.8558 6.26152 28.854C6.26659 28.8521 6.27201 28.8513 6.27743 28.8515H12.7781C12.7836 28.8513 12.789 28.8521 12.794 28.854C12.7991 28.8558 12.8037 28.8586 12.8077 28.8622C12.8116 28.8657 12.8147 28.87 12.8168 28.8748C12.8189 28.8795 12.82 28.8846 12.82 28.8897C12.82 28.8949 12.8189 28.9 12.8168 28.9047C12.8147 28.9094 12.8116 28.9137 12.8077 28.9173C12.8037 28.9209 12.7991 28.9236 12.794 28.9255C12.789 28.9273 12.7836 28.9282 12.7781 28.928Z" fill="white"/>
<path d="M19.1397 7.60466H2.12749L0 9.11388V0.917467C0 0.67414 0.102073 0.440778 0.283764 0.26872C0.465456 0.0966614 0.711882 0 0.968832 0L19.1397 0C19.3966 0 19.6431 0.0966614 19.8248 0.26872C20.0065 0.440778 20.1085 0.67414 20.1085 0.917467V6.6872C20.1085 6.93052 20.0064 7.16387 19.8248 7.33593C19.6431 7.50798 19.3966 7.60465 19.1397 7.60466Z" fill="#F4F4F4"/>
<path d="M18.6067 1.68375H1.50188C1.49115 1.68375 1.48087 1.67971 1.47329 1.67253C1.46571 1.66535 1.46145 1.65562 1.46145 1.64546C1.46145 1.63531 1.46571 1.62557 1.47329 1.61839C1.48087 1.61121 1.49115 1.60718 1.50188 1.60718H18.6067C18.6174 1.60718 18.6277 1.61121 18.6353 1.61839C18.6429 1.62557 18.6471 1.63531 18.6471 1.64546C18.6471 1.65562 18.6429 1.66535 18.6353 1.67253C18.6277 1.67971 18.6174 1.68375 18.6067 1.68375H18.6067Z" fill="white"/>
<path d="M18.6067 3.19813H1.50188C1.49645 3.19831 1.49103 3.19746 1.48596 3.19562C1.48089 3.19378 1.47626 3.19099 1.47235 3.18742C1.46844 3.18385 1.46533 3.17957 1.4632 3.17484C1.46108 3.1701 1.45998 3.16501 1.45998 3.15987C1.45998 3.15472 1.46108 3.14963 1.4632 3.1449C1.46533 3.14016 1.46844 3.13588 1.47235 3.13231C1.47626 3.12874 1.48089 3.12595 1.48596 3.12411C1.49103 3.12227 1.49645 3.12142 1.50188 3.12161H18.6067C18.6121 3.12142 18.6176 3.12227 18.6226 3.12411C18.6277 3.12595 18.6323 3.12874 18.6362 3.13231C18.6402 3.13588 18.6433 3.14016 18.6454 3.1449C18.6475 3.14963 18.6486 3.15472 18.6486 3.15987C18.6486 3.16501 18.6475 3.1701 18.6454 3.17484C18.6433 3.17957 18.6402 3.18385 18.6362 3.18742C18.6323 3.19099 18.6277 3.19378 18.6226 3.19562C18.6176 3.19746 18.6121 3.19831 18.6067 3.19813H18.6067Z" fill="white"/>
<path d="M18.6067 4.71271H1.50188C1.49645 4.7129 1.49103 4.71205 1.48596 4.71021C1.48089 4.70837 1.47626 4.70558 1.47235 4.70201C1.46844 4.69844 1.46533 4.69416 1.4632 4.68942C1.46108 4.68469 1.45998 4.6796 1.45998 4.67445C1.45998 4.66931 1.46108 4.66422 1.4632 4.65948C1.46533 4.65475 1.46844 4.65047 1.47235 4.6469C1.47626 4.64333 1.48089 4.64054 1.48596 4.6387C1.49103 4.63686 1.49645 4.63601 1.50188 4.63619H18.6067C18.6121 4.63601 18.6176 4.63686 18.6226 4.6387C18.6277 4.64054 18.6323 4.64333 18.6362 4.6469C18.6402 4.65047 18.6433 4.65475 18.6454 4.65948C18.6475 4.66422 18.6486 4.66931 18.6486 4.67445C18.6486 4.6796 18.6475 4.68469 18.6454 4.68942C18.6433 4.69416 18.6402 4.69844 18.6362 4.70201C18.6323 4.70558 18.6277 4.70837 18.6226 4.71021C18.6176 4.71205 18.6121 4.7129 18.6067 4.71271H18.6067Z" fill="white"/>
<path d="M10.0775 6.22706H1.50188C1.49645 6.22724 1.49103 6.22639 1.48596 6.22455C1.48089 6.22271 1.47626 6.21993 1.47235 6.21635C1.46844 6.21278 1.46533 6.2085 1.4632 6.20377C1.46108 6.19903 1.45998 6.19394 1.45998 6.1888C1.45998 6.18365 1.46108 6.17856 1.4632 6.17383C1.46533 6.16909 1.46844 6.16481 1.47235 6.16124C1.47626 6.15767 1.48089 6.15488 1.48596 6.15304C1.49103 6.1512 1.49645 6.15035 1.50188 6.15054H10.0775C10.0879 6.1509 10.0978 6.15509 10.1051 6.16222C10.1124 6.16936 10.1164 6.17888 10.1164 6.1888C10.1164 6.19871 10.1124 6.20824 10.1051 6.21537C10.0978 6.22251 10.0879 6.2267 10.0775 6.22706Z" fill="white"/>
<path d="M8.41713 6.06545C8.41713 6.06545 7.82679 5.58152 7.74508 4.54865C7.68184 3.7489 8.41713 4.31105 8.41713 4.31105C8.41713 4.31105 8.37755 3.73483 8.81281 3.81939C9.24807 3.90394 9.45185 4.51956 9.45185 4.51956" fill="#0C0C0C"/>
<path d="M11.0795 4.0304C11.0795 4.0304 13.2442 4.39013 12.2581 7.13811H11.6709" fill="#0C0C0C"/>
<path d="M8.64149 9.9949C8.6511 9.99374 8.75774 11.6691 10.8129 11.523C12.2357 11.4221 12.743 9.99254 12.7759 9.99254C12.6225 9.96169 12.4329 9.91481 12.3576 9.89874C12.1934 9.86265 12.0447 9.78007 11.9313 9.66199C11.8178 9.54391 11.745 9.39592 11.7226 9.2377C11.681 9.00026 11.7516 7.78536 11.7299 7.5451L9.54587 8.00673C9.57637 8.51417 9.78992 9.69053 9.04137 9.89874C8.91653 9.93315 8.78236 9.96486 8.64149 9.9949Z" fill="#E98862"/>
<path opacity="0.52" d="M9.51499 9.41801C9.5492 9.31361 9.57122 9.20596 9.58067 9.09702C9.60468 8.8484 9.59989 8.59805 9.5664 8.35042C10.0103 8.29369 10.4285 8.12018 10.7734 7.84961C10.814 7.99144 11.037 8.61118 10.9753 8.74598C10.8585 9.0008 10.3101 9.41801 9.51499 9.41801Z" fill="#0C0C0C"/>
<path d="M9.90261 9.0134C10.7674 8.99491 11.8328 8.54585 11.9258 7.44169L12.0098 6.44539C12.1028 5.34112 11.5659 4.39974 10.4681 4.31679C9.37026 4.23384 8.47427 5.0669 8.38121 6.17107L8.34407 6.61214C8.33411 6.76379 8.33507 6.91591 8.34694 7.06743C8.37521 7.46811 8.41983 8.0773 8.67556 8.50395C8.91696 8.90664 9.35009 9.02501 9.90261 9.0134Z" fill="#E98862"/>
<path opacity="0.52" d="M9.5752 7.97781C9.39725 7.97413 9.2227 7.93092 9.06561 7.85165C9.05917 7.84842 9.05433 7.84292 9.05213 7.83634C9.04993 7.82975 9.05055 7.82262 9.05386 7.81646C9.05716 7.81031 9.06289 7.80563 9.0698 7.80344C9.07671 7.80124 9.08426 7.8017 9.09081 7.80473C9.42978 7.96781 9.74806 7.96731 10.0113 7.80322C10.0166 7.79974 10.0221 7.79654 10.0278 7.79362C10.031 7.79211 10.0346 7.79122 10.0383 7.791C10.0419 7.79079 10.0456 7.79126 10.049 7.79239C10.0525 7.79351 10.0556 7.79527 10.0584 7.79756C10.0611 7.79985 10.0633 7.80263 10.065 7.80573C10.0666 7.80884 10.0675 7.81222 10.0677 7.81567C10.0679 7.81912 10.0674 7.82258 10.0663 7.82585C10.0651 7.82912 10.0632 7.83214 10.0608 7.83473C10.0584 7.83732 10.0554 7.83944 10.0522 7.84095C10.05 7.84206 10.0469 7.84422 10.0419 7.84723C9.90351 7.93378 9.74102 7.97924 9.5752 7.97781Z" fill="#0C0C0C"/>
<path opacity="0.52" d="M9.56576 8.22729C9.53358 8.22715 9.50147 8.22439 9.46978 8.21905C9.46611 8.21854 9.46257 8.21734 9.45939 8.21552C9.45621 8.2137 9.45345 8.21129 9.45127 8.20844C9.44909 8.20559 9.44753 8.20235 9.4467 8.19892C9.44586 8.19549 9.44576 8.19194 9.4464 8.18847C9.44704 8.185 9.4484 8.18169 9.45042 8.17873C9.45243 8.17578 9.45505 8.17323 9.45812 8.17125C9.46119 8.16926 9.46465 8.16788 9.46829 8.16719C9.47194 8.16649 9.47569 8.1665 9.47933 8.1672C9.67001 8.1987 9.76753 8.12118 9.77161 8.11786C9.77716 8.11326 9.78441 8.11093 9.79176 8.11138C9.79912 8.11184 9.80599 8.11505 9.81085 8.1203C9.81571 8.12555 9.81817 8.13241 9.81769 8.13938C9.8172 8.14635 9.81382 8.15285 9.80827 8.15745C9.73838 8.20656 9.65269 8.23124 9.56576 8.22729Z" fill="#0C0C0C"/>
<path d="M8.70686 6.68622C8.78175 6.68622 8.84247 6.62872 8.84247 6.5578C8.84247 6.48688 8.78175 6.42938 8.70686 6.42938C8.63196 6.42938 8.57125 6.48688 8.57125 6.5578C8.57125 6.62872 8.63196 6.68622 8.70686 6.68622Z" fill="#0C0C0C"/>
<path d="M9.96399 6.69428C10.0389 6.69428 10.0996 6.63678 10.0996 6.56586C10.0996 6.49493 10.0389 6.43744 9.96399 6.43744C9.8891 6.43744 9.82838 6.49493 9.82838 6.56586C9.82838 6.63678 9.8891 6.69428 9.96399 6.69428Z" fill="#0C0C0C"/>
<path d="M11.8293 7.77277C12.1629 7.79789 12.4619 7.48041 12.4885 7.16449C12.5151 6.84857 12.2593 6.65388 11.9257 6.62866L11.736 6.82737L11.5425 7.75107L11.8293 7.77277Z" fill="#E98862"/>
<path d="M11.5331 7.24357C11.5331 7.24357 11.531 5.67271 11.0371 5.54439C10.7082 5.45898 9.8678 5.85554 9.12832 5.67271C8.80469 5.59272 8.48833 5.6498 8.44631 5.7944C8.42965 5.85162 8.28454 5.00464 8.84247 4.4042C9.28669 3.92615 10.6339 3.86867 11.2305 4.07261C12.8824 4.63707 11.9897 6.70197 11.9897 6.70197L11.8765 7.23629L11.5331 7.24357Z" fill="#0C0C0C"/>
<g opacity="0.52">
<path d="M9.39949 7.59598H9.39736C9.28982 7.58814 9.11039 7.56362 9.11649 7.4874C9.1218 7.4243 9.35964 6.75629 9.38675 6.68032C9.38922 6.67395 9.39423 6.66875 9.40069 6.66582C9.40715 6.66289 9.41457 6.66247 9.42136 6.66464C9.42815 6.66682 9.43377 6.67142 9.43703 6.67746C9.44029 6.68351 9.44092 6.69052 9.4388 6.697C9.33317 6.99282 9.1748 7.44852 9.17124 7.49142C9.18037 7.51016 9.29019 7.53599 9.4015 7.54413C9.40853 7.54471 9.41505 7.54782 9.41971 7.55282C9.42438 7.55783 9.42684 7.56434 9.42658 7.57101C9.42632 7.57768 9.42337 7.58401 9.41832 7.58867C9.41328 7.59334 9.40654 7.59599 9.39949 7.59608V7.59598Z" fill="#0C0C0C"/>
</g>
<path d="M9.08827 6.16345C9.00147 6.12955 8.90678 6.11788 8.81371 6.12963C8.76629 6.13525 8.72005 6.14765 8.67656 6.16641C8.63216 6.18533 8.59043 6.20945 8.55236 6.23821L8.54939 6.24032C8.53951 6.24636 8.52762 6.24873 8.516 6.24698C8.50438 6.24523 8.49385 6.23948 8.48643 6.23083C8.47902 6.22218 8.47523 6.21124 8.47581 6.20012C8.47638 6.18899 8.48127 6.17845 8.48955 6.17053C8.53173 6.13343 8.57868 6.10151 8.62929 6.07552C8.68062 6.04896 8.73586 6.02982 8.79318 6.01875C8.85058 6.0071 8.9094 6.00296 8.96799 6.00644C9.02832 6.00943 9.08788 6.02057 9.14488 6.0395C9.16252 6.04562 9.17691 6.05807 9.18492 6.07416C9.19293 6.09025 9.19393 6.10868 9.18769 6.12546C9.18145 6.14224 9.16848 6.15602 9.15159 6.16381C9.1347 6.17159 9.11524 6.17276 9.09745 6.16706C9.0957 6.16651 9.09405 6.16586 9.09241 6.1652L9.08827 6.16345Z" fill="#0C0C0C"/>
<path d="M9.88409 6.05018C9.9972 6.01337 10.1187 6.00623 10.2358 6.02953C10.2931 6.04061 10.3483 6.05974 10.3997 6.08631C10.4503 6.11229 10.4972 6.14423 10.5394 6.18136C10.5485 6.18904 10.5542 6.19977 10.5552 6.21131C10.5562 6.22285 10.5525 6.23431 10.5448 6.24331C10.5371 6.25231 10.526 6.25815 10.5139 6.25962C10.5018 6.26109 10.4895 6.25808 10.4797 6.2512L10.4765 6.24899C10.4385 6.22023 10.3968 6.19611 10.3524 6.17719C10.3089 6.15842 10.2626 6.14601 10.2152 6.14037C10.1681 6.13416 10.1202 6.13416 10.0731 6.14037C10.0275 6.1459 9.98284 6.15724 9.94043 6.17408L9.93645 6.17574C9.92788 6.17933 9.91863 6.18129 9.90926 6.18151C9.89988 6.18172 9.89055 6.18019 9.8818 6.17698C9.87305 6.17378 9.86505 6.16898 9.85826 6.16286C9.85147 6.15673 9.84602 6.14939 9.84223 6.14127C9.83843 6.13315 9.83636 6.1244 9.83613 6.11552C9.83591 6.10664 9.83753 6.0978 9.84091 6.08952C9.84429 6.08123 9.84936 6.07366 9.85583 6.06723C9.8623 6.0608 9.87005 6.05564 9.87862 6.05204C9.88075 6.05144 9.88255 6.05079 9.88409 6.05018Z" fill="#0C0C0C"/>
<path d="M10.0003 4.48492C10.1006 4.14524 9.98448 3.81752 9.7408 3.75294C9.49712 3.68836 9.21819 3.91137 9.11781 4.25105C9.01742 4.59072 9.13359 4.91844 9.37727 4.98303C9.62095 5.04761 9.89988 4.8246 10.0003 4.48492Z" fill="#0C0C0C"/>
<path d="M12.12 38.2974C12.12 38.2974 13.5312 39.0372 13.2478 40.1923C12.9644 41.3475 13.9963 41.3688 13.9963 41.3688L15.3516 37.0312L13.0631 36.3899L12.12 38.2974Z" fill="#367CFF"/>
<path d="M6.70198 19.7837C6.70198 19.7837 4.08033 29.6261 4.80156 31.0831C5.51058 32.5154 12.8529 38.8793 12.8529 38.8793L14.1756 36.5514L8.55332 30.1236C8.55332 30.1236 10.1509 26.6418 11.0718 23.9647C11.627 22.351 12.2295 20.9035 12.3182 19.2084L6.70198 19.7837Z" fill="#262626"/>
<path d="M10.5686 32.3787L9.81173 31.5624L10.0087 36.3539L10.8523 37.1133L10.5686 32.3787Z" fill="#0A0A0A"/>
<path d="M10.4585 25.6607C10.4585 25.6607 10.5965 22.9859 10.3338 23.4991C9.8599 24.4254 9.73607 27.4119 9.73607 27.4119L10.4585 25.6607Z" fill="#0A0A0A"/>
<path d="M11.4488 42.5967C11.4488 42.5967 11.1912 43.8612 9.94118 43.9315C8.69116 44.0018 8.96227 44.9449 8.96227 44.9449H13.7391V42.6849L11.4488 42.5967Z" fill="#367CFF"/>
<path d="M15.2302 19.5341C15.2302 19.5341 15.2514 19.4409 15.2639 19.9856C15.338 23.2006 13.9499 43.4034 13.9499 43.4034L10.811 43.3783L9.97068 19.4034L15.2302 19.5341Z" fill="#262626"/>
<path d="M6.08803 13.6833C6.15276 14.4035 6.62685 18.8967 6.68909 19.7838H15.2669C15.3154 18.9837 15.3738 15.4852 15.5576 13.9206C15.733 12.4276 16.0771 11.6261 15.8248 11.1847C15.4126 10.4633 14.2863 10.1005 13.5182 10.002C13.0492 9.9417 12.3438 9.89874 12.3438 9.89874C12.3438 9.89874 12.2841 11.0429 10.8599 11.1066C8.92131 11.1932 9.05076 9.89874 9.04116 9.89874C8.33728 9.89874 7.00519 10.0582 6.49395 10.3874C5.34447 11.1277 5.95062 12.1571 6.08803 13.6833Z" fill="#367CFF"/>
<path d="M6.59613 10.8763L4.59868 12.8333L2.77964 12.1371L0.851634 16.6545L0.839696 16.6815C0.707354 16.9935 0.6953 17.3397 0.80565 17.6593C0.916001 17.9789 1.1417 18.2514 1.44314 18.4291C1.74457 18.6068 2.10246 18.6782 2.45399 18.6309C2.80552 18.5836 3.12821 18.4206 3.36542 18.1704L8.60192 12.6458L6.59613 10.8763Z" fill="#367CFF"/>
<path d="M8.35485 10.2806C8.33927 10.2572 8.31881 10.2371 8.29474 10.2214C8.27066 10.2057 8.24347 10.1949 8.21481 10.1895C8.18616 10.1841 8.15664 10.1843 8.12807 10.19C8.09949 10.1958 8.07246 10.207 8.04861 10.223C8.0036 10.2555 7.97329 10.3029 7.96379 10.3558C7.9543 10.4086 7.96634 10.4628 7.99747 10.5076L8.09679 10.6443L7.00492 9.99311C6.98238 9.97967 6.95727 9.97056 6.93101 9.96631C6.90476 9.96206 6.87787 9.96275 6.8519 9.96833C6.82592 9.97392 6.80136 9.9843 6.77962 9.99887C6.75788 10.0134 6.73939 10.0319 6.72519 10.0533C6.71099 10.0746 6.70138 10.0984 6.69689 10.1233C6.6924 10.1481 6.69312 10.1736 6.69902 10.1982C6.70492 10.2228 6.71588 10.246 6.73127 10.2666C6.74666 10.2872 6.76618 10.3047 6.78872 10.3182L7.2434 10.5895C7.24224 10.5904 7.24119 10.5915 7.24027 10.5926C7.1882 10.5741 7.13057 10.5754 7.07949 10.5963C7.02841 10.6171 6.98784 10.6559 6.9663 10.7045C6.94761 10.7492 6.94581 10.7987 6.96121 10.8445C6.97661 10.8903 7.00827 10.9297 7.05081 10.956L7.11135 10.9948C7.1109 10.9971 7.1109 10.9995 7.11135 11.0018C7.06424 10.9847 7.01225 10.9837 6.9645 10.9993C6.91675 11.0148 6.87629 11.0457 6.85021 11.0866C6.82273 11.1335 6.81506 11.1884 6.82875 11.2404C6.84244 11.2924 6.87647 11.3375 6.92396 11.3667L7.0732 11.4624C7.06991 11.4625 7.0667 11.4634 7.06385 11.465C7.06101 11.4666 7.05863 11.4688 7.05691 11.4715C7.05509 11.4745 7.05424 11.478 7.05447 11.4815C7.0089 11.4773 6.96309 11.4869 6.92374 11.5091C6.88438 11.5313 6.85354 11.5648 6.83573 11.6047C6.81704 11.6494 6.81524 11.6989 6.83064 11.7447C6.84605 11.7906 6.8777 11.83 6.92025 11.8562L7.72832 12.3766C7.90693 12.4912 8.11759 12.5527 8.33332 12.5531C8.54904 12.5536 8.75999 12.493 8.93914 12.3792L9.51595 12.0127L8.35485 10.2806Z" fill="#E98862"/>
<g opacity="0.2">
<path d="M7.69702 10.8812C7.69469 10.8808 7.69247 10.88 7.69044 10.8788L7.24553 10.6202C7.24326 10.6189 7.2413 10.6172 7.23974 10.6151C7.23819 10.6131 7.23707 10.6108 7.23646 10.6084C7.23522 10.6034 7.23611 10.5982 7.23892 10.5939C7.24173 10.5896 7.24625 10.5865 7.25147 10.5853C7.25668 10.5841 7.26218 10.585 7.26675 10.5876L7.71161 10.8462C7.71572 10.8485 7.71883 10.8521 7.72038 10.8564C7.72193 10.8607 7.72183 10.8654 7.72008 10.8696C7.71834 10.8738 7.71507 10.8773 7.71085 10.8795C7.70664 10.8816 7.70176 10.8823 7.69707 10.8813L7.69702 10.8812Z" fill="#0C0C0C"/>
<path d="M7.47541 11.2225C7.47302 11.222 7.47074 11.2211 7.46867 11.2199L7.12069 11.0139C7.11657 11.0111 7.11374 11.0069 7.11276 11.0021C7.11178 10.9974 7.11273 10.9925 7.11541 10.9884C7.1181 10.9843 7.12232 10.9813 7.12723 10.98C7.13214 10.9787 7.13738 10.9792 7.14191 10.9815L7.48989 11.1875C7.49405 11.1898 7.49719 11.1934 7.49875 11.1977C7.50032 11.202 7.50021 11.2067 7.49843 11.211C7.49666 11.2152 7.49334 11.2187 7.48908 11.2209C7.48482 11.223 7.4799 11.2236 7.4752 11.2226L7.47541 11.2225Z" fill="#0C0C0C"/>
<path d="M7.2373 11.5934C7.23507 11.5929 7.23294 11.5922 7.23099 11.5911L7.06424 11.4975C7.06183 11.4963 7.05971 11.4946 7.05801 11.4926C7.0563 11.4906 7.05504 11.4883 7.05431 11.4858C7.05358 11.4833 7.05338 11.4807 7.05374 11.4781C7.0541 11.4756 7.055 11.4731 7.05639 11.4709C7.05778 11.4687 7.05963 11.4667 7.06183 11.4652C7.06403 11.4637 7.06653 11.4626 7.06919 11.462C7.07185 11.4614 7.0746 11.4613 7.07729 11.4618C7.07997 11.4622 7.08254 11.4632 7.08482 11.4646L7.25152 11.5581C7.25556 11.5605 7.25861 11.5641 7.26014 11.5683C7.26167 11.5725 7.26158 11.5772 7.25989 11.5813C7.2582 11.5855 7.25501 11.589 7.25088 11.5912C7.24676 11.5934 7.24195 11.5941 7.2373 11.5933V11.5934Z" fill="#0C0C0C"/>
</g>
<path d="M4.79927 12.8307H6.4948C6.53857 12.8307 6.58179 12.8215 6.62136 12.8038C6.66093 12.7861 6.69586 12.7603 6.72362 12.7282C6.75139 12.6962 6.77131 12.6587 6.78194 12.6185C6.79257 12.5783 6.79366 12.5364 6.78511 12.4957L6.11429 9.30329C6.10083 9.2393 6.06422 9.18176 6.01077 9.14058C5.95732 9.0994 5.89038 9.07716 5.82148 9.07771L4.16914 9.09087C4.1259 9.09123 4.08327 9.10056 4.04424 9.11819C4.00521 9.13583 3.97074 9.16135 3.94324 9.19296C3.91575 9.22456 3.8959 9.26149 3.88509 9.30114C3.87428 9.34079 3.87278 9.38221 3.88068 9.42247L4.50832 12.6017C4.52095 12.666 4.55695 12.7241 4.61009 12.766C4.66324 12.8078 4.73017 12.8307 4.79927 12.8307Z" fill="#262626"/>
<path d="M6.10527 11.0529C6.07931 11.016 6.04152 10.9879 5.99746 10.9729C5.95341 10.9579 5.90542 10.9567 5.86058 10.9694C5.86054 10.9668 5.85983 10.9643 5.85851 10.962C5.85719 10.9597 5.85531 10.9578 5.85302 10.9564C5.85073 10.955 5.84811 10.9541 5.84539 10.9539C5.84267 10.9536 5.83992 10.954 5.83739 10.955L5.96902 10.8307C6.01064 10.7929 6.03557 10.7416 6.03878 10.6871C6.04199 10.6327 6.02324 10.5791 5.98632 10.5372C5.95195 10.5009 5.90519 10.4773 5.85424 10.4704C5.80329 10.4635 5.75141 10.4739 5.70773 10.4997C5.70773 10.4976 5.70603 10.4959 5.70534 10.4939L5.75956 10.4427C5.79681 10.4087 5.82052 10.3636 5.82668 10.315C5.83283 10.2664 5.82106 10.2172 5.79336 10.1758C5.77542 10.1503 5.75171 10.1288 5.72393 10.1129C5.69615 10.097 5.66501 10.0872 5.63273 10.0841C5.60046 10.081 5.56787 10.0848 5.5373 10.095C5.50674 10.1053 5.47896 10.1219 5.45598 10.1436L5.33093 10.2617C5.3304 10.261 5.33062 10.26 5.32998 10.2594C5.32934 10.2587 5.3277 10.2586 5.32674 10.258C5.35328 10.2183 5.36479 10.1712 5.35938 10.1245C5.35398 10.0778 5.33197 10.0343 5.29698 10.001C5.21246 9.90942 5.06168 9.95418 4.98083 10.0305L4.21785 10.7382L4.24114 10.7051L4.3491 10.4444C4.37123 10.3941 4.37234 10.3376 4.3522 10.2865C4.33206 10.2354 4.29217 10.1934 4.24061 10.1691C4.21353 10.1574 4.18423 10.1511 4.15448 10.1505C4.12474 10.1499 4.09518 10.155 4.0676 10.1656C4.04002 10.1761 4.01501 10.1919 3.99408 10.212C3.97316 10.232 3.95676 10.2558 3.94589 10.2821L3.31454 11.7611C3.31454 11.7611 4.64144 12.6705 4.95966 12.3699L6.07158 11.3198C6.10884 11.2858 6.13255 11.2407 6.13869 11.192C6.14483 11.1434 6.13302 11.0942 6.10527 11.0529Z" fill="#E98862"/>
<g opacity="0.2">
<path d="M4.59873 10.9287C4.6025 10.9322 4.60757 10.9341 4.61284 10.9341C4.61811 10.9341 4.62318 10.9322 4.62695 10.9287L5.32945 10.2863C5.33145 10.2846 5.33307 10.2825 5.3342 10.2802C5.33533 10.2778 5.33596 10.2753 5.33605 10.2728C5.33614 10.2702 5.33568 10.2676 5.33471 10.2653C5.33373 10.2629 5.33227 10.2607 5.33039 10.2588C5.32851 10.257 5.32626 10.2555 5.32377 10.2545C5.32128 10.2535 5.31861 10.253 5.3159 10.253C5.3132 10.253 5.31052 10.2535 5.30803 10.2545C5.30553 10.2555 5.30328 10.2569 5.30139 10.2588L4.59889 10.9013C4.59698 10.903 4.59545 10.9051 4.59439 10.9074C4.59333 10.9097 4.59277 10.9122 4.59272 10.9147C4.59268 10.9173 4.59316 10.9198 4.59413 10.9221C4.59511 10.9244 4.59656 10.9266 4.59841 10.9284L4.59873 10.9287Z" fill="#0C0C0C"/>
<path d="M4.88936 11.2299C4.89314 11.2333 4.8982 11.2353 4.90348 11.2353C4.90875 11.2353 4.91381 11.2333 4.91759 11.2299L5.70158 10.513C5.70349 10.5112 5.70502 10.5091 5.70609 10.5068C5.70715 10.5045 5.70772 10.502 5.70777 10.4995C5.70782 10.497 5.70735 10.4945 5.70637 10.4922C5.7054 10.4898 5.70395 10.4877 5.70211 10.4859C5.6983 10.4824 5.69322 10.4804 5.68791 10.4803C5.68259 10.4802 5.67745 10.482 5.67351 10.4854L4.88952 11.2025C4.88568 11.206 4.88347 11.2108 4.88338 11.2159C4.88329 11.221 4.88533 11.2259 4.88905 11.2296L4.88936 11.2299Z" fill="#0C0C0C"/>
<path d="M5.20217 11.5579C5.20595 11.5614 5.21101 11.5633 5.21629 11.5633C5.22156 11.5633 5.22662 11.5614 5.2304 11.5579L5.85581 10.986C5.85781 10.9843 5.85942 10.9822 5.86055 10.9798C5.86168 10.9775 5.86231 10.975 5.86239 10.9724C5.86248 10.9699 5.86202 10.9673 5.86104 10.9649C5.86006 10.9625 5.85859 10.9604 5.85671 10.9585C5.85482 10.9567 5.85257 10.9552 5.85008 10.9542C5.84759 10.9532 5.84491 10.9527 5.8422 10.9527C5.8395 10.9527 5.83682 10.9532 5.83432 10.9542C5.83183 10.9552 5.82957 10.9567 5.82769 10.9585L5.20233 11.5306C5.19848 11.5341 5.19626 11.539 5.19616 11.544C5.19606 11.5491 5.19809 11.554 5.2018 11.5577L5.20217 11.5579Z" fill="#0C0C0C"/>
</g>
<path d="M3.09802 11.3673L5.52904 12.2657L3.67971 17.322L0.833488 16.6182L3.09802 11.3673Z" fill="#367CFF"/>
<path d="M11.3132 18.218C11.0455 18.218 10.7825 18.1508 10.5511 18.0233C10.3197 17.8958 10.1281 17.7125 9.99583 17.4921L7.24823 12.6433L9.53653 11.2583L11.2853 14.0623L13.1754 10.9694L15.6299 12.6747L12.6438 17.4696C12.5146 17.6941 12.3244 17.8818 12.0928 18.0134C11.8613 18.1449 11.5969 18.2154 11.3269 18.2177L11.3132 18.218Z" fill="#367CFF"/>
<path d="M11.3132 18.2371C11.042 18.2368 10.7756 18.1686 10.5412 18.0394C10.3068 17.9103 10.1126 17.7247 9.97826 17.5016L7.2304 12.6523C7.228 12.6481 7.22738 12.6431 7.22867 12.6385C7.22996 12.6338 7.23306 12.6298 7.23735 12.6272L9.52565 11.2422C9.52793 11.2408 9.5305 11.2398 9.53318 11.2394C9.53587 11.239 9.53861 11.2391 9.54125 11.2397C9.54388 11.2403 9.54636 11.2414 9.54854 11.2429C9.55072 11.2444 9.55255 11.2463 9.55393 11.2485L11.2852 14.0246L12.5818 11.925C12.5845 11.9206 12.5889 11.9174 12.5941 11.9161C12.5993 11.9149 12.6048 11.9156 12.6094 11.9181C12.6141 11.9207 12.6174 11.9249 12.6188 11.9298C12.6201 11.9347 12.6194 11.94 12.6167 11.9443L11.3027 14.072C11.3009 14.0749 11.2983 14.0772 11.2953 14.0789C11.2922 14.0806 11.2888 14.0814 11.2853 14.0814C11.2818 14.0814 11.2783 14.0806 11.2752 14.0789C11.2722 14.0773 11.2696 14.0749 11.2679 14.072L9.52979 11.2851L7.27497 12.6498L10.0138 17.4831C10.1445 17.7003 10.3336 17.8809 10.5618 18.0066C10.79 18.1323 11.0493 18.1986 11.3133 18.1989H11.3268C11.5932 18.1965 11.8541 18.1268 12.0825 17.997C12.3109 17.8672 12.4986 17.682 12.6262 17.4606L15.3004 13.1429C15.3031 13.1385 15.3075 13.1353 15.3127 13.1341C15.3179 13.1328 15.3234 13.1335 15.3281 13.1361C15.3327 13.1386 15.3361 13.1428 15.3374 13.1477C15.3388 13.1527 15.338 13.1579 15.3353 13.1623L12.6613 17.4793C12.5303 17.7067 12.3376 17.8967 12.103 18.0299C11.8685 18.1631 11.6007 18.2346 11.3272 18.237L11.3132 18.2371Z" fill="#0C0C0C"/>
<path d="M11.9338 15.168C11.9302 15.168 11.9267 15.1671 11.9236 15.1654C11.9205 15.1637 11.9179 15.1612 11.9162 15.1583L11.2677 14.0715C11.2652 14.0671 11.2646 14.0619 11.2661 14.0572C11.2676 14.0524 11.271 14.0483 11.2756 14.0459C11.2801 14.0434 11.2856 14.0428 11.2907 14.044C11.2957 14.0453 11.3001 14.0484 11.3028 14.0527L11.9514 15.1394C11.954 15.1439 11.9547 15.1491 11.9533 15.154C11.9518 15.1589 11.9484 15.1631 11.9437 15.1656C11.9407 15.1672 11.9372 15.168 11.9338 15.168Z" fill="#0C0C0C"/>
<path d="M4.19551 16.0609C4.19231 16.0609 4.18916 16.0602 4.1863 16.0588C4.18345 16.0574 4.18099 16.0554 4.17912 16.053C4.17725 16.0505 4.17603 16.0477 4.17556 16.0447C4.17509 16.0417 4.17538 16.0386 4.17641 16.0357L5.55212 12.2743C5.55299 12.272 5.55435 12.2698 5.55611 12.2679C5.55788 12.266 5.56001 12.2645 5.5624 12.2634C5.56479 12.2623 5.56739 12.2617 5.57004 12.2615C5.57269 12.2614 5.57534 12.2617 5.57785 12.2625C5.58036 12.2634 5.58267 12.2646 5.58466 12.2663C5.58664 12.268 5.58826 12.27 5.58942 12.2723C5.59057 12.2745 5.59125 12.277 5.5914 12.2795C5.59156 12.282 5.59119 12.2845 5.59032 12.2869L4.21461 16.0483C4.21319 16.052 4.21059 16.0552 4.20717 16.0574C4.20375 16.0597 4.19968 16.0609 4.19551 16.0609Z" fill="#0C0C0C"/>
<path d="M6.1875 15.2183C6.18241 15.2183 6.1775 15.2164 6.17378 15.2131C6.17005 15.2098 6.16777 15.2053 6.16739 15.2005L6.08781 14.1689C6.08743 14.1639 6.08918 14.1589 6.09269 14.155C6.09619 14.1512 6.10115 14.1488 6.10649 14.1485C6.11181 14.1482 6.11704 14.1499 6.12108 14.1532C6.12512 14.1565 6.12765 14.1611 6.12813 14.1662L6.20772 15.1977C6.20809 15.2028 6.20634 15.2078 6.20283 15.2116C6.19932 15.2155 6.19434 15.2178 6.18899 15.2182L6.1875 15.2183Z" fill="#0C0C0C"/>
<path d="M43.8493 44.9984H3.37571C3.37028 44.9986 3.36487 44.9978 3.35979 44.9959C3.35472 44.9941 3.35009 44.9913 3.34618 44.9877C3.34227 44.9841 3.33916 44.9799 3.33704 44.9751C3.33491 44.9704 3.33382 44.9653 3.33382 44.9602C3.33382 44.955 3.33491 44.9499 3.33704 44.9452C3.33916 44.9405 3.34227 44.9362 3.34618 44.9326C3.35009 44.929 3.35472 44.9262 3.35979 44.9244C3.36487 44.9226 3.37028 44.9217 3.37571 44.9219H43.8493C43.8548 44.9217 43.8602 44.9226 43.8653 44.9244C43.8703 44.9262 43.875 44.929 43.8789 44.9326C43.8828 44.9362 43.8859 44.9405 43.888 44.9452C43.8901 44.9499 43.8912 44.955 43.8912 44.9602C43.8912 44.9653 43.8901 44.9704 43.888 44.9751C43.8859 44.9799 43.8828 44.9841 43.8789 44.9877C43.875 44.9913 43.8703 44.9941 43.8653 44.9959C43.8602 44.9978 43.8548 44.9986 43.8493 44.9984Z" fill="#292A2E"/>
<path d="M33.1893 3.10852H17.63C16.3429 3.10852 15.2994 4.09664 15.2994 5.31555V39.9527C15.2994 41.1716 16.3429 42.1597 17.63 42.1597H33.1893C34.4765 42.1597 35.5199 41.1716 35.5199 39.9527V5.31555C35.5199 4.09664 34.4765 3.10852 33.1893 3.10852Z" fill="#292A2E"/>
<path d="M33.1821 3.79773H17.6374C16.7536 3.79773 16.0371 4.47624 16.0371 5.31323V39.9036C16.0371 40.7406 16.7536 41.4191 17.6374 41.4191H33.1821C34.0659 41.4191 34.7824 40.7406 34.7824 39.9036V5.31323C34.7824 4.47624 34.0659 3.79773 33.1821 3.79773Z" fill="white"/>
<path d="M21.5706 3.51276H29.2491V4.26513C29.2491 4.372 29.2268 4.47782 29.1836 4.57656C29.1404 4.67529 29.0771 4.76499 28.9973 4.84055C28.9175 4.9161 28.8227 4.97603 28.7185 5.0169C28.6142 5.05777 28.5024 5.07879 28.3896 5.07875H22.4297C22.2019 5.07875 21.9833 4.99303 21.8222 4.84044C21.6611 4.68786 21.5706 4.48091 21.5706 4.26513V3.51276Z" fill="#292A2E"/>
<path d="M30.1388 12.2138H18.4185L16.9302 13.2694V7.70601C16.9302 7.59941 16.9524 7.49386 16.9955 7.39539C17.0386 7.29691 17.1017 7.20743 17.1813 7.13206C17.2609 7.05669 17.3554 6.9969 17.4594 6.95612C17.5634 6.91533 17.6748 6.89434 17.7874 6.89435H30.1388C30.2514 6.89434 30.3629 6.91533 30.4669 6.95612C30.5708 6.9969 30.6653 7.05669 30.7449 7.13206C30.8245 7.20743 30.8877 7.29691 30.9307 7.39539C30.9738 7.49386 30.996 7.59941 30.996 7.70601V11.4021C30.996 11.5087 30.9738 11.6142 30.9308 11.7127C30.8877 11.8112 30.8246 11.9007 30.745 11.9761C30.6654 12.0514 30.5709 12.1112 30.4669 12.152C30.3629 12.1928 30.2514 12.2138 30.1388 12.2138Z" fill="#367CFF"/>
<path opacity="0.49" d="M30.996 12.2137H18.4185L16.9302 13.2693V6.89435H30.996V12.2137Z" fill="white"/>
<path d="M29.9455 8.0806H17.9808C17.9709 8.0806 17.9614 8.07688 17.9544 8.07026C17.9474 8.06364 17.9435 8.05467 17.9435 8.0453C17.9435 8.03594 17.9474 8.02697 17.9544 8.02035C17.9614 8.01373 17.9709 8.01001 17.9808 8.01001H29.9455C29.9553 8.01001 29.9648 8.01373 29.9718 8.02035C29.9788 8.02697 29.9827 8.03594 29.9827 8.0453C29.9827 8.05467 29.9788 8.06364 29.9718 8.07026C29.9648 8.07688 29.9553 8.0806 29.9455 8.0806Z" fill="white"/>
<path d="M29.9455 9.13999H17.9808C17.9709 9.13999 17.9614 9.13627 17.9544 9.12965C17.9474 9.12303 17.9435 9.11405 17.9435 9.10469C17.9435 9.09533 17.9474 9.08635 17.9544 9.07973C17.9614 9.07312 17.9709 9.0694 17.9808 9.0694H29.9455C29.9553 9.0694 29.9648 9.07312 29.9718 9.07973C29.9788 9.08635 29.9827 9.09533 29.9827 9.10469C29.9827 9.11405 29.9788 9.12303 29.9718 9.12965C29.9648 9.13627 29.9553 9.13999 29.9455 9.13999Z" fill="white"/>
<path d="M29.9455 10.1991H17.9808C17.9709 10.1991 17.9614 10.1954 17.9544 10.1888C17.9474 10.1822 17.9435 10.1732 17.9435 10.1638C17.9435 10.1544 17.9474 10.1454 17.9544 10.1388C17.9614 10.1322 17.9709 10.1285 17.9808 10.1285H29.9455C29.9553 10.1285 29.9648 10.1322 29.9718 10.1388C29.9788 10.1454 29.9828 10.1544 29.9828 10.1638C29.9828 10.1732 29.9788 10.1822 29.9718 10.1888C29.9648 10.1954 29.9553 10.1991 29.9455 10.1991Z" fill="white"/>
<path d="M23.9793 11.2587H17.9808C17.9709 11.2587 17.9614 11.255 17.9544 11.2483C17.9474 11.2417 17.9435 11.2327 17.9435 11.2234C17.9435 11.214 17.9474 11.205 17.9544 11.1984C17.9614 11.1918 17.9709 11.188 17.9808 11.188H23.9793C23.9892 11.188 23.9987 11.1918 24.0057 11.1984C24.0127 11.205 24.0166 11.214 24.0166 11.2234C24.0166 11.2327 24.0127 11.2417 24.0057 11.2483C23.9987 11.255 23.9892 11.2587 23.9793 11.2587Z" fill="white"/>
<path d="M22.39 34.8724H32.246L33.7343 35.928V31.424C33.7342 31.2088 33.6439 31.0023 33.4832 30.8501C33.3224 30.6979 33.1044 30.6124 32.8771 30.6124H22.39C22.1627 30.6124 21.9447 30.6979 21.7839 30.8501C21.6232 31.0023 21.5329 31.2088 21.5329 31.4241V34.0607C21.5329 34.276 21.6232 34.4824 21.784 34.6347C21.9447 34.7869 22.1627 34.8724 22.39 34.8724Z" fill="#367CFF"/>
<path opacity="0.11" d="M22.39 34.8724H32.246L33.7343 35.928V31.424C33.7342 31.2088 33.6439 31.0023 33.4832 30.8501C33.3224 30.6979 33.1044 30.6124 32.8771 30.6124H22.39C22.1627 30.6124 21.9447 30.6979 21.7839 30.8501C21.6232 31.0023 21.5329 31.2088 21.5329 31.4241V34.0607C21.5329 34.276 21.6232 34.4824 21.784 34.6347C21.9447 34.7869 22.1627 34.8724 22.39 34.8724Z" fill="white"/>
<path d="M32.6837 31.7986H22.5834C22.5736 31.7986 22.5641 31.7949 22.5572 31.7883C22.5502 31.7817 22.5463 31.7728 22.5463 31.7634C22.5463 31.7541 22.5502 31.7452 22.5572 31.7386C22.5641 31.732 22.5736 31.7283 22.5834 31.7283H32.6837C32.6936 31.7283 32.703 31.732 32.71 31.7386C32.7169 31.7452 32.7209 31.7541 32.7209 31.7634C32.7209 31.7728 32.7169 31.7817 32.71 31.7883C32.703 31.7949 32.6936 31.7986 32.6837 31.7986Z" fill="white"/>
<path d="M32.6837 32.8582H22.5834C22.5735 32.8582 22.564 32.8545 22.5571 32.8478C22.5501 32.8412 22.5461 32.8322 22.5461 32.8229C22.5461 32.8135 22.5501 32.8045 22.5571 32.7979C22.564 32.7913 22.5735 32.7875 22.5834 32.7875H32.6837C32.6936 32.7875 32.7031 32.7913 32.7101 32.7979C32.7171 32.8045 32.721 32.8135 32.721 32.8229C32.721 32.8322 32.7171 32.8412 32.7101 32.8478C32.7031 32.8545 32.6936 32.8582 32.6837 32.8582Z" fill="white"/>
<path d="M32.6837 33.9173H26.6851C26.6752 33.9173 26.6658 33.9136 26.6588 33.907C26.6518 33.9004 26.6478 33.8914 26.6478 33.882C26.6478 33.8726 26.6518 33.8636 26.6588 33.857C26.6658 33.8504 26.6752 33.8467 26.6851 33.8467H32.6837C32.6936 33.8467 32.7031 33.8504 32.7101 33.857C32.7171 33.8636 32.721 33.8726 32.721 33.882C32.721 33.8914 32.7171 33.9004 32.7101 33.907C32.7031 33.9136 32.6936 33.9173 32.6837 33.9173Z" fill="white"/>
<path d="M22.39 20.3463H32.246L33.7343 21.4019V15.8931C33.7343 15.6778 33.6439 15.4713 33.4832 15.3191C33.3225 15.1669 33.1044 15.0814 32.8771 15.0814H22.39C22.1627 15.0814 21.9447 15.1669 21.7839 15.3191C21.6232 15.4713 21.5329 15.6778 21.5329 15.8931V19.5345C21.5329 19.7498 21.6232 19.9563 21.7839 20.1085C21.9447 20.2607 22.1627 20.3463 22.39 20.3463Z" fill="#367CFF"/>
<path opacity="0.11" d="M22.39 20.3463H32.246L33.7343 21.4019V15.8931C33.7343 15.6778 33.6439 15.4713 33.4832 15.3191C33.3225 15.1669 33.1044 15.0814 32.8771 15.0814H22.39C22.1627 15.0814 21.9447 15.1669 21.7839 15.3191C21.6232 15.4713 21.5329 15.6778 21.5329 15.8931V19.5345C21.5329 19.7498 21.6232 19.9563 21.7839 20.1085C21.9447 20.2607 22.1627 20.3463 22.39 20.3463Z" fill="white"/>
<path d="M32.6837 17.2725H22.5834C22.5736 17.2725 22.5641 17.2688 22.5572 17.2622C22.5502 17.2556 22.5463 17.2466 22.5463 17.2373C22.5463 17.228 22.5502 17.219 22.5572 17.2124C22.5641 17.2059 22.5736 17.2021 22.5834 17.2021H32.6837C32.6886 17.2021 32.6934 17.2031 32.6979 17.2048C32.7024 17.2066 32.7065 17.2092 32.71 17.2124C32.7134 17.2157 32.7162 17.2196 32.718 17.2239C32.7199 17.2281 32.7209 17.2327 32.7209 17.2373C32.7209 17.2419 32.7199 17.2465 32.718 17.2508C32.7162 17.255 32.7134 17.2589 32.71 17.2622C32.7065 17.2655 32.7024 17.268 32.6979 17.2698C32.6934 17.2716 32.6886 17.2725 32.6837 17.2725Z" fill="white"/>
<path d="M32.6837 16.2677H22.5834C22.5736 16.2677 22.5641 16.264 22.5572 16.2574C22.5502 16.2508 22.5463 16.2418 22.5463 16.2325C22.5463 16.2232 22.5502 16.2142 22.5572 16.2076C22.5641 16.201 22.5736 16.1973 22.5834 16.1973H32.6837C32.6936 16.1973 32.703 16.201 32.71 16.2076C32.7169 16.2142 32.7209 16.2232 32.7209 16.2325C32.7209 16.2418 32.7169 16.2508 32.71 16.2574C32.703 16.264 32.6936 16.2677 32.6837 16.2677Z" fill="white"/>
<path d="M32.6837 18.3319H22.5834C22.5735 18.3319 22.564 18.3281 22.5571 18.3215C22.5501 18.3149 22.5461 18.3059 22.5461 18.2966C22.5461 18.2872 22.5501 18.2782 22.5571 18.2716C22.564 18.265 22.5735 18.2612 22.5834 18.2612H32.6837C32.6936 18.2612 32.7031 18.265 32.7101 18.2716C32.7171 18.2782 32.721 18.2872 32.721 18.2966C32.721 18.3059 32.7171 18.3149 32.7101 18.3215C32.7031 18.3281 32.6936 18.3319 32.6837 18.3319Z" fill="white"/>
<path d="M32.6837 19.3912H26.6851C26.6752 19.3912 26.6658 19.3875 26.6588 19.3809C26.6518 19.3742 26.6478 19.3652 26.6478 19.3559C26.6478 19.3465 26.6518 19.3375 26.6588 19.3309C26.6658 19.3243 26.6752 19.3206 26.6851 19.3206H32.6837C32.6936 19.3206 32.7031 19.3243 32.7101 19.3309C32.7171 19.3375 32.721 19.3465 32.721 19.3559C32.721 19.3652 32.7171 19.3742 32.7101 19.3809C32.7031 19.3875 32.6936 19.3912 32.6837 19.3912Z" fill="white"/>
<path d="M30.1388 27.7659H18.4185L16.9302 28.8215V24.2115C16.9302 23.9963 17.0205 23.7898 17.1813 23.6376C17.342 23.4854 17.5601 23.3998 17.7874 23.3998H30.1388C30.3662 23.3998 30.5842 23.4854 30.7449 23.6376C30.9057 23.7898 30.996 23.9963 30.996 24.2115V26.9543C30.996 27.0608 30.9738 27.1664 30.9307 27.2649C30.8877 27.3634 30.8245 27.4528 30.7449 27.5282C30.6653 27.6036 30.5708 27.6634 30.4669 27.7041C30.3629 27.7449 30.2514 27.7659 30.1388 27.7659Z" fill="#367CFF"/>
<path opacity="0.49" d="M30.996 27.7661H18.4185L16.9302 28.8217V23.4001H30.996V27.7661Z" fill="white"/>
<path d="M29.9455 24.5863H17.9808C17.9709 24.5863 17.9614 24.5825 17.9544 24.5759C17.9474 24.5693 17.9435 24.5603 17.9435 24.5509C17.9435 24.5416 17.9474 24.5326 17.9544 24.526C17.9614 24.5193 17.9709 24.5156 17.9808 24.5156H29.9455C29.9553 24.5156 29.9648 24.5193 29.9718 24.526C29.9788 24.5326 29.9828 24.5416 29.9828 24.5509C29.9828 24.5603 29.9788 24.5693 29.9718 24.5759C29.9648 24.5825 29.9553 24.5863 29.9455 24.5863Z" fill="white"/>
<path d="M29.9455 25.6456H17.9808C17.9709 25.6456 17.9614 25.6419 17.9544 25.6352C17.9474 25.6286 17.9435 25.6196 17.9435 25.6103C17.9435 25.6009 17.9474 25.5919 17.9544 25.5853C17.9614 25.5787 17.9709 25.575 17.9808 25.575H29.9455C29.9553 25.575 29.9648 25.5787 29.9718 25.5853C29.9788 25.5919 29.9828 25.6009 29.9828 25.6103C29.9828 25.6196 29.9788 25.6286 29.9718 25.6352C29.9648 25.6419 29.9553 25.6456 29.9455 25.6456Z" fill="white"/>
<path d="M23.9793 26.7253H17.9808C17.9709 26.7253 17.9615 26.7216 17.9545 26.715C17.9475 26.7084 17.9436 26.6995 17.9436 26.6901C17.9436 26.6808 17.9475 26.6719 17.9545 26.6653C17.9615 26.6587 17.9709 26.655 17.9808 26.655H23.9793C23.9892 26.655 23.9986 26.6587 24.0056 26.6653C24.0126 26.6719 24.0165 26.6808 24.0165 26.6901C24.0165 26.6995 24.0126 26.7084 24.0056 26.715C23.9986 26.7216 23.9892 26.7253 23.9793 26.7253Z" fill="white"/>
<path d="M33.236 39.8H17.5033C17.2836 39.8 17.073 39.7174 16.9177 39.5703C16.7623 39.4232 16.6751 39.2237 16.6751 39.0157V38.2293C16.6751 38.0213 16.7624 37.8218 16.9177 37.6747C17.073 37.5276 17.2837 37.4449 17.5034 37.4449H33.236C33.4556 37.4449 33.6663 37.5276 33.8217 37.6747C33.977 37.8218 34.0643 38.0213 34.0643 38.2293V39.0157C34.0643 39.2237 33.977 39.4232 33.8217 39.5703C33.6663 39.7174 33.4556 39.8 33.236 39.8ZM17.5033 37.5156C17.4043 37.5156 17.3063 37.5341 17.2148 37.5699C17.1233 37.6058 17.0402 37.6583 16.9702 37.7246C16.9002 37.7909 16.8447 37.8696 16.8068 37.9562C16.7689 38.0428 16.7494 38.1356 16.7494 38.2293V39.0157C16.7494 39.205 16.8288 39.3865 16.9702 39.5203C17.1115 39.6542 17.3032 39.7294 17.5031 39.7294H33.236C33.4359 39.7294 33.6276 39.6542 33.7689 39.5203C33.9103 39.3865 33.9897 39.205 33.9897 39.0157V38.2293C33.9896 38.04 33.9102 37.8585 33.7689 37.7247C33.6275 37.5908 33.4359 37.5156 33.236 37.5156H17.5033Z" fill="#367CFF"/>
<path d="M31.9007 38.1152L32.1897 38.5723L33.3089 38.112L32.3001 38.7468L32.6446 39.2916L33.52 38.017L31.9007 38.1152Z" fill="#0CBC8B"/>
</g>
<defs>
<clipPath id="clip0_307_1268">
<rect width="45" height="45" fill="white"/>
</clipPath>
</defs>
</svg>
